<svg xmlns="http://www.w3.org/2000/svg" data-source-file="/data/user/0/com.praveen.gitmdannotations_tablet/app_flutter/repos/alvin4frnds/surri/jobs/pending/spec-demo/02-spec.md" data-source-sha="ddfb18f8a7cc386b15ba7bf5c1658c774391aabd">
  <g id="stroke-group-hhtho9djf1-0" data-anchor-line="1" data-timestamp="2026-04-21T16:32:52Z">
    <path d="M 370.9772264134373,575.4444364105868 L 368.1534927885082,574.137246884399 L 364.5980394014591,572.6212134065663 L 361.8268997301227,571.6275451183002 L 358.8464054862327,570.6864707836266 L 356.70281891164825,570.1635949731516 L 354.2972838109174,569.7453964489532 L 352.36254118797774,569.5881252090837 L 349.5914015166413,569.6928024953605 L 346.9249391315817,569.902157067914 L 343.10804783929507,570.3203555921124 L 339.9707929764444,570.7385541163108 L 335.83986982532747,571.6796284509842 L 332.91196953503015,572.5165361202896 L 329.4085994806652,573.9804862654382 L 326.6895431420128,575.0783212190724 L 322.92473518241025,576.9609805093281 L 319.89215760583625,578.791045845991 L 315.60447383575854,581.3528309447739 L 311.8922598297486,583.653688759228 L 307.86601396490846,586.5295057168411 L 304.93811367461126,588.9345301966632 L 301.4347436202462,592.2811396320675 L 298.7156872815938,594.895518684443 L 295.3169945135055,597.8234189747402 L 292.754698793814,600.5424753133926 L 289.7747151708327,604.1505226540344 L 287.63061797533953,607.444538135846 L 285.3302707817942,611.1567521418558 L 283.6569660640921,614.1372463857458 L 282.1404219653507,618.0588149643091 L 281.30402491695406,620.8299546356455 L 280.9379097254397,623.8630428331282 L 280.8858263927557,626.7388597907413 L 281.61754615487564,629.6146767483546 L 282.87265234837935,631.706179990255 L 285.0162389229639,633.4836513733253 L 287.10774216486436,635.0001954720666 L 290.19291369503105,635.7319152341865 L 293.43484584415853,636.3073849982544 L 297.3038204691293,636.0980304257008 L 300.70251323721754,635.8365925204633 L 305.5130728177704,634.8434348531058 L 310.1142778257697,633.7450892785628 L 316.2841102651944,631.9150239418999 L 321.25143046470805,630.2943131777905 L 326.3760219040912,628.0460493169292 L 330.8204662931297,626.3727445992271 L 336.8856214462777,624.2286474037339 L 342.16646288371294,622.7126139259012 L 348.17953470417683,620.4117561114472 L 352.7812503330848,618.4249301558235 L 358.21885238948084,616.1240723413695 L 362.55861949224266,613.7190478615474 L 367.9967321695474,610.7911475712502 L 372.0750613670716,608.594967043073 L 376.20598451818853,606.1373486096581 L 379.447916667316,603.5750528899666 L 382.9507761007724,600.8565071722229 L 385.8791870119783,598.5556493577689 L 388.91176458855216,596.3594688295916 L 390.89859054417593,594.5819974465214 L 392.6765725481548,592.6993381562658 L 393.61764688282835,590.9739501058797 L 394.1926060259875,589.4574060071383 L 394.1926060259875,587.9413725293057 L 393.66973021551235,586.6341830031179 L 392.8333331671156,585.3790768096142 L 390.74182992521514,583.8630433317815 L 388.5982433506306,583.026135662476 L 385.2516339152264,582.1897386140794 L 382.3758169576132,581.3528309447739 L 378.1407271411282,581.1960703258131 L 374.06188732269527,581.823623422565 L 367.8920548832706,582.8693750435152 L 362.55861949224266,583.705772091912 L 356.9642568168857,585.3790768096142 L 352.36254118797774,587.0002981946321 L 346.03594812959227,589.0918014365327 L 340.9118673111178,590.8692728196029 L 335.1602333958915,593.2222139667409 L 331.0819041983673,595.3137172086414 L 326.7942204282896,597.7192523093722 L 323.5522882791621,599.6534843114032 L 319.57863636791467,602.0064254585412 L 319.57863636791467,602.0064254585412" stroke="#FCD34D" stroke-width="2" opacity="0.9"/>
  </g>
  <g id="stroke-group-hhtho9djf1-1" data-anchor-line="1" data-timestamp="2026-04-21T16:32:52Z">
    <path d="M 422.84660893675107,604.8822424161544 L 422.84660893675107,604.8822424161544 L 422.84660893675107,604.8822424161544 L 422.84660893675107,604.8822424161544 L 422.84660893675107,604.8822424161544 L 422.84660893675107,604.8822424161544 L 422.84660893675107,604.8822424161544" stroke="#FCD34D" stroke-width="2" opacity="0.9"/>
  </g>
  <g id="stroke-group-hhtho9djf1-2" data-anchor-line="1" data-timestamp="2026-04-21T16:32:53Z">
    <path d="M 395.9705880299664,577.0656577956049 L 395.9705880299664,577.0656577956049 L 395.9705880299664,577.0656577956049 L 395.9705880299664,577.0656577956049 L 399.8400732758457,577.6406169387641 L 404.5980389028058,578.3728473217927 L 408.8857226728836,578.3728473217927 L 414.7420338743867,578.8431291786751 L 418.2448933078431,578.4770139871608 L 422.6372543641975,577.7452942250408 L 426.19270775124664,576.9083865557354 L 430.32363090236356,576.3855107452603 L 433.35620847893756,575.5491136968635 L 437.3824543437777,574.7647999811509 L 440.78114711186595,573.7711316928846 L 445.33026878718124,572.7253800719344 L 448.7289615552695,571.6796284509842 L 452.65053013383294,570.7385541163108 L 455.36907585157667,569.7453964489532 L 458.29748676278257,568.5949675417262 L 460.4936672909598,567.549215920776 L 462.84660843809786,566.1894324409955 L 464.62407982116804,564.9869202010843 L 465.82659206107905,563.7323246284893 L 466.9770209683061,562.5818957212623 L 467.29105282713635,561.8496653382336 L 467.65665739774204,560.9606743362442 L 467.18637554085956,560.385715193085 L 466.8202603493453,559.914922715294 L 465.72242539571096,559.3920469048188 L 464.46731920220725,558.9738483806204 L 462.3758159603067,558.4509725701454 L 460.441073337367,558.1895346649078 L 457.9834549039523,558.3988892374613 L 455.83986832936773,558.6077331891062 L 453.5916044685065,558.9738483806204 L 451.44750727301323,559.0785256668972 L 448.7289615552695,559.5493181446883 L 446.58486435977636,559.914922715294 L 444.6501217368367,560.5424758120458 L 443.2387655452808,560.5950697656385 L 441.931576019093,561.1700289087977 L 441.2514289687484,561.2747061950745 L 441.0946683497875,561.3793834813513 L 440.98999106351084,561.4835501467194 L 440.98999106351084,561.5882274329961 L 441.04258501710353,561.6408213865888 L 441.1993456360643,561.7975820055497 L 441.5654608275787,562.0064259571944 L 442.9247336864505,562.5293017676696 L 444.8594763093902,563.1568548644215 L 447.4738553617658,563.9937625337269 L 449.199243412152,564.8301595821235 L 451.55218455929,565.719150584113 L 452.91196803907053,566.3987870135489 L 454.5326788031799,567.3398613482225 L 455.73519104309094,568.072091731251 L 457.04238056927875,569.0652493986086 L 458.1928094765058,569.954240400598 L 459.186477764772,571.104669307825 L 459.86611419420785,572.0983375960913 L 460.2843127184062,573.9284029327541 L 460.5457506236438,575.7058743158244 L 460.33639605109033,578.3728473217927 L 459.91819752689196,580.5164338963772 L 459.0292065249025,583.705772091912 L 458.036048857545,586.006629906366 L 456.6762653777645,589.0918014365327 L 455.36907585157667,591.2353880111172 L 455.36907585157667,591.2353880111172" stroke="#FCD34D" stroke-width="2" opacity="0.9"/>
  </g>
  <g id="stroke-group-hhtho9djf1-3" data-anchor-line="1" data-timestamp="2026-04-21T16:32:54Z">
    <path d="M 492.44117506262626,597.8234189747402 L 492.44117506262626,597.8234189747402 L 492.44117506262626,597.8234189747402 L 492.44117506262626,597.8234189747402 L 492.44117506262626,597.8234189747402 L 492.44117506262626,597.8234189747402 L 492.44117506262626,597.8234189747402 L 492.44117506262626,597.8234189747402 L 493.3822493972997,600.3336313617477 L 494.2712403992891,603.4182922710058 L 494.9508768287251,606.1373486096581 L 495.42166930651615,609.2225201398248 L 496.101305735952,611.6275446196469 L 496.62418154642717,614.2940070047066 L 497.3038179758631,616.385510246607 L 497.8266937863382,618.6863680610611 L 498.55892416936683,620.3070788251705 L 499.0292060262493,621.6142683513583 L 499.76143640927785,622.2944154017028 L 500.07495764719954,622.6600199723085 L 500.4936667923065,622.9214578775461 L 500.7025107439514,623.0261351638228 L 500.963948649189,623.0261351638228 L 501.43474112698004,622.9214578775461 L 501.9050229838624,622.6600199723085 L 502.84660793944454,621.718945637635 L 503.8397656068021,620.4117561114472 L 504.7808399414756,618.4249301558235 L 505.56515365718826,616.6469481518446 L 506.08802946766343,614.7127161498136 L 506.7155825644153,613.0914947647956 L 506.8202598506921,610.999991522895 L 507.08169775592955,609.3266868051929 L 507.29105232848315,607.2877775168852 L 507.5524902337206,605.6665561318671 L 507.4998962801279,603.5750528899666 L 507.7092508526815,601.9543421258572 L 507.7613341853655,600.7518298859461 L 507.8660114716423,599.6534843114032 L 507.9180948043263,598.5035660250849 L 508.0753660441958,597.8234189747402 L 508.1795327095639,597.405220450542 L 508.2842099958407,597.196376498897 L 508.38888728211737,597.0391052590276 L 508.49356456839416,596.8823446400668 L 508.65032518735495,596.725584021106 L 508.85967975990843,596.6735006884219 L 509.1732009978301,596.725584021106 L 509.6960768083052,596.9349385936595 L 510.7939117619395,597.5098977368186 L 512.0490179554432,598.5035660250849 L 513.4082908143151,599.7060782649959 L 514.6633970078188,601.0653511238678 L 516.0226698666906,602.7386558415699 L 517.1730987739177,603.9411680814809 L 519.0031641105807,605.562389466499 L 520.4671142557293,606.242025895935 L 522.1404189734313,607.1831002306084 L 523.4476084996192,607.7059760410835 L 525.0688298846372,607.3398608495692 L 525.957310265718,607.3398608495692 L 527.4738543644593,606.6602244201333 L 528.4675226527255,606.0852652769742 L 529.5132742736757,605.0915969887079 L 530.3496713220725,603.7323241298361 L 531.6047775155763,602.0590194121339 L 532.5458518502497,600.3857146944318 L 533.4869261849232,598.1895341662546 L 534.3233232333199,596.5688234021452 L 535.1602309026254,594.1632883014145 L 535.7351900457845,591.8103471542763 L 536.4148264752205,588.9345301966632 L 536.7809416667347,586.7388602893947 L 536.8856189530115,583.2875735677136 L 536.8856189530115,583.2875735677136" stroke="#FCD34D" stroke-width="2" opacity="0.9"/>
  </g>
  <g id="stroke-group-hhtho9djf1-4" data-anchor-line="1" data-timestamp="2026-04-21T16:32:54Z">
    <path d="M 531.0819017051011,554.529403991582 L 531.0819017051011,554.529403991582 L 531.0819017051011,554.529403991582 L 531.0819017051011,554.529403991582 L 531.0819017051011,554.529403991582 L 531.0819017051011,554.529403991582 L 532.7026124692105,557.9280967596702 L 534.0618853280823,561.0132682898369 L 535.4737521405469,564.9869202010843 L 536.3627431425364,567.8627371586975 L 537.2517341445258,570.9479086888642 L 537.9834539066458,573.9804862654382 L 538.5589236707136,577.7452942250408 L 539.1338828138728,581.3007476120899 L 539.656758624348,585.5884313821676 L 540.2322283884157,588.6210089587416 L 540.7025102452982,592.1764623457907 L 541.2253860557732,594.6861641118895 L 541.4868239610108,596.725584021106 L 541.8529391525252,598.1374508335705 L 541.8008558198411,599.6534843114032 L 542.009699771486,600.6471525996694 L 542.009699771486,601.1179450774605 L 542.0622937250787,601.2747056964213 L 542.0622937250787,601.379382982698 L 542.0622937250787,601.4835496480661 L 542.0622937250787,601.5882269343429 L 542.0622937250787,601.5882269343429 L 542.0622937250787,601.4835496480661 L 542.0622937250787,601.2747056964213 L 542.009699771486,600.6471525996694 L 541.9576164388019,599.8107555512727 L 541.9050224852092,598.4509720714922 L 542.2190543440395,594.0065276824536 L 542.3758149630003,591.7582638215923 L 542.9507741061594,589.7188439123759 L 543.2648059649897,588.411654386188 L 544.1537969669791,586.6341830031179 L 544.7808394428224,584.9608782854158 L 545.8791850173653,583.026135662476 L 547.0816972572763,581.823623422565 L 548.4409701161483,580.2549959911397 L 550.0621915011662,579.0524837512286 L 551.7354962188684,578.1634927492391 L 553.199446364017,578.0588154629625 L 554.6633965091656,577.7973775577249 L 555.8138254163927,577.3791790335265 L 556.9642543236196,577.8499715113176 L 557.9053286582931,578.2155760819232 L 558.9510802792433,579.1045670839127 L 559.9442379466009,579.8367974669413 L 560.885822902183,580.8299551342989 L 561.8268972368566,581.8757067552491 L 563.0294094767676,583.4443341866744 L 564.0751610977178,585.0129616180998 L 565.2255900049448,587.1044648600002 L 566.1145810069343,588.5689256260575 L 567.1603326278845,590.3989909627205 L 567.1603326278845,590.3989909627205" stroke="#FCD34D" stroke-width="2" opacity="0.9"/>
  </g>
  <g id="stroke-group-hhtho9djf1-5" data-anchor-line="1" data-timestamp="2026-04-21T16:32:54Z">
    <path d="M 588.4935635710877,569.6928024953605 L 588.4935635710877,569.6928024953605 L 586.8723421860697,570.5297101646659 L 585.4609859945137,571.6796284509842 L 584.2058798010099,572.986817977172 L 583.1080448473757,574.3466014569525 L 581.8008553211879,575.9152288883779 L 580.4410718414074,578.0067321302784 L 579.2385596014963,579.418598942743 L 578.7677671237052,581.771540089881 L 578.192807980546,583.4969281402672 L 577.9313700753086,585.7451920011284 L 577.722015502755,587.5752573377913 L 577.8266927890318,589.5620832934151 L 577.7746094563477,591.1307107248405 L 578.0881306942694,592.8040154425425 L 578.140724647862,594.0065276824536 L 578.7156837910212,595.1048732569966 L 578.9771216962588,595.7845096864324 L 579.3432368877731,596.1506248779468 L 579.552080839418,596.3594688295916 L 579.8661126982482,596.5162294485525 L 580.1796339361698,596.6209067348292 L 580.4936657950001,596.6735006884219 L 580.8592703656058,596.6735006884219 L 581.4347401296735,596.5688234021452 L 582.427897797031,596.2547915433149 L 583.7876812768116,595.523071781195 L 585.4083920409211,593.9018503961769 L 586.9770194723463,591.7582638215923 L 588.0227710932966,590.0328757712061 L 589.1211166678396,587.888778575713 L 589.8007530972754,585.9545465736819 L 590.6371501456722,583.8630433317815 L 591.0553486698706,581.8757067552491 L 591.5782244803457,579.8888807996253 L 591.94433967186,577.6406169387641 L 592.3104548633744,575.33975912431 L 592.5198094359279,573.8758089791614 L 592.8333306738494,572.5686194529736 L 592.9380079601262,571.6796284509842 L 592.9900912928102,571.4707844993394 L 593.042685246403,571.3140238803785 L 593.094768579087,571.2093465941018 L 593.146851911771,571.104669307825 L 593.1994458653638,570.9999920215482 L 593.2515291980478,570.9999920215482 L 593.3562064843246,571.052585975141 L 593.4608837706013,571.2093465941018 L 593.5655610568781,571.4707844993394 L 593.7223216758389,572.0457436424986 L 594.0884368673533,573.9284029327541 L 594.3498747725907,576.0719895073387 L 594.8201566294732,578.5296079407535 L 595.1341884883035,580.3070793238237 L 595.7612309641466,582.6079371382777 L 596.0226688693842,583.9672099971496 L 596.5455446798594,585.7451920011284 L 596.8595765386897,586.7909436220787 L 597.277775062888,587.3659027652378 L 597.6438902544023,587.6799346240681 L 597.9574114923239,587.7846119103449 L 598.3235266838383,587.7846119103449 L 598.8984858269974,587.6273406704754 L 599.6307162100261,587.3138194325538 L 600.4671132584227,586.7909436220787 L 601.6175421656498,585.6405147148516 L 602.7158877401927,584.0198039507422 L 603.6569620748662,582.4511765193168 L 604.5459530768557,580.4643505636932 L 605.2255895062916,578.6863685597143 L 605.9052259357275,576.5427819851297 L 606.2713411272418,574.7647999811509 L 607.0030608893618,572.6732967392504 L 607.2124154619153,570.9999920215482 L 607.525936699837,569.3266873038461 L 607.7352912723904,567.8627371586975 L 607.7352912723904,565.6144732978363 L 607.7873746050744,563.9411685801341 L 607.996729177628,562.0064259571944 L 608.048812510312,560.6992364310066 L 608.2581670828655,559.3920469048188 L 608.2581670828655,558.8170877616596 L 608.3628443691423,558.6077331891062 L 608.4149277018264,558.4509725701454 L 608.4149277018264,558.2942119511846 L 608.4149277018264,558.2421286185005 L 608.4675216554191,558.2421286185005 L 608.5196049881031,558.3462952838686 L 608.6242822743799,558.6077331891062 L 608.8331262260247,559.4446408584116 L 609.2518353711317,561.3267895277586 L 609.6700338953301,563.3662094369749 L 610.1403157522125,565.6144732978363 L 610.5064309437269,567.3398613482225 L 610.8725461352411,569.0131660659246 L 611.0819007077947,570.2156783058356 L 611.3954219457163,571.784305737261 L 611.7615371372306,573.2482558824096 L 612.2844129477057,575.0262378863885 L 612.65052813922,576.8042198903673 L 613.0161327098257,578.5296079407535 L 613.38224790134,579.9935580859021 L 613.8004464255383,581.5621855173274 L 614.0618843307759,582.7646977572385 L 614.3759161896062,584.0718872834263 L 614.5847601412511,584.7515237128622 L 614.5847601412511,584.856200999139 L 614.5847601412511,584.856200999139" stroke="#FCD34D" stroke-width="2" opacity="0.9"/>
  </g>
  <g id="stroke-group-hhtho9djf1-6" data-anchor-line="1" data-timestamp="2026-04-21T16:32:55Z">
    <path d="M 596.4413780144913,564.4640443906093 L 596.4413780144913,564.4640443906093 L 596.4413780144913,564.4640443906093 L 596.4413780144913,564.4640443906093 L 601.6175421656498,562.0590199107871 L 608.1014064639047,558.8691710943438 L 613.8004464255383,556.2027087092841 L 618.1928074818928,554.0065281811069 L 621.2779790120595,552.6993386549191 L 621.2779790120595,552.6993386549191" stroke="#FCD34D" stroke-width="2" opacity="0.9"/>
  </g>
  <g id="stroke-group-hhtho9djf1-7" data-anchor-line="1" data-timestamp="2026-04-21T16:32:55Z">
    <path d="M 664.6240773279019,543.078730114722 L 664.6240773279019,543.078730114722 L 664.6240773279019,543.078730114722 L 664.6240773279019,543.078730114722 L 664.6240773279019,543.078730114722 L 664.6240773279019,543.078730114722 L 664.5194000416251,544.9087954513849 L 664.4673167089411,546.5815895481784 L 664.4673167089411,547.8887790743662 L 664.4673167089411,549.1438852678699 L 664.4673167089411,550.6078354130185 L 664.415233376257,551.6535870339688 L 664.3626394226643,553.1175371791174 L 664.3105560899803,554.3726433726212 L 664.3105560899803,554.9476025157803 L 664.2058788037035,555.7845101850858 L 664.1537954710194,556.3594693282449 L 664.1537954710194,556.3594693282449" stroke="#FCD34D" stroke-width="2" opacity="0.9"/>
  </g>
  <g id="stroke-group-hhtho9djf1-8" data-anchor-line="1" data-timestamp="2026-04-21T16:32:56Z">
    <path d="M 666.3494653782881,526.4508708448863 L 666.3494653782881,526.4508708448863 L 666.3494653782881,526.4508708448863 L 666.3494653782881,526.4508708448863 L 666.3494653782881,526.4508708448863 L 666.3494653782881,526.4508708448863 L 666.3494653782881,526.4508708448863 L 666.3494653782881,526.4508708448863 L 666.3494653782881,526.4508708448863" stroke="#FCD34D" stroke-width="2" opacity="0.9"/>
  </g>
  <g id="stroke-group-hhtho9djf1-9" data-anchor-line="1" data-timestamp="2026-04-21T16:32:56Z">
    <path d="M 692.1276513314385,523.8890857461033 L 692.1276513314385,523.8890857461033 L 692.1276513314385,523.8890857461033 L 689.5132722790629,524.9348373670535 L 687.1603311319247,525.3530358912519 L 684.7027126985099,526.2420268932414 L 682.6632927892936,527.0784239416381 L 680.5717895473931,527.9674149436275 L 678.4282029728085,528.5949680403794 L 676.9116588740671,529.3266878024994 L 675.9185012067096,529.7974802802904 L 675.1862708236811,530.4250333770424 L 674.8201556321667,530.6864712822799 L 674.6113116805218,530.8432319012408 L 674.4540404406523,531.1046698064782 L 674.3498737752843,531.3661077117158 L 674.2972798216915,531.5754622842693 L 674.3498737752843,531.8369001895069 L 674.5066343942451,532.0983380947445 L 675.3430314426419,532.9347351431412 L 676.96425282766,533.771132191538 L 679.5260379264428,534.4512792418825 L 681.8268957408968,534.6080398608433 L 684.9115566501548,535.2355929575951 L 687.2124144646089,535.1829990040025 L 689.7747101843004,535.392353576556 L 691.7089421863313,535.3397596229632 L 693.8530393818246,535.9152293870311 L 695.3690728596573,536.0719900059919 L 696.8856169583985,536.646949149151 L 698.0881291983096,536.9083870543886 L 699.13388081926,537.6927007701013 L 700.8071855369619,538.9998902962891 L 701.3821446801212,539.6800373466338 L 701.8008538252282,540.5685177277145 L 701.5394159199907,542.607937636931 L 701.0165401095155,543.9151271631188 L 699.6567566297349,545.5884318808208 L 696.5720957204769,548.0460503142357 L 695.0555516217357,549.0918019351859 L 693.068725666112,550.2943141750969 L 691.2907436621331,551.1307112234937 L 689.0945631339557,552.0197022254831 L 687.3170917508855,552.9607765601565 L 685.1729945553925,553.4836523706317 L 683.2387625533613,554.0065281811069 L 681.3561032631058,554.1112054673836 L 680.2056743558787,554.5819979451746 L 679.0031621159676,554.6861646105427 L 678.5328802590852,554.6861646105427 L 678.218848400255,554.6861646105427 L 678.0620877812942,554.5819979451746 L 678.0100044486101,554.477320658898 L 678.1141711139783,554.1632888000677 L 678.7943181643229,553.1701311327101 L 678.7943181643229,553.1701311327101" stroke="#FCD34D" stroke-width="2" opacity="0.9"/>
  </g>
  <g id="stroke-group-hhtho9djf1-10" data-anchor-line="1" data-timestamp="2026-04-21T16:32:56Z">
    <path d="M 753.722319681226,496.4381056961595 L 753.722319681226,496.4381056961595 L 753.5655590622653,495.0262388836949 L 752.9380059655134,493.6143720712304 L 752.6765680602757,492.56862045028015 L 752.4672134877221,491.5754627829226 L 752.3630468223541,490.63387782734037 L 752.3104528687613,490.2156793031421 L 752.3104528687613,489.8495641116277 L 752.3104528687613,489.58812620639014 L 752.3104528687613,489.37928225474536 L 752.4151301550382,489.2225216357846 L 752.571890773999,489.2225216357846 L 752.9900892981973,489.43136558742935 L 754.1931121590171,490.3724399221029 L 756.075260828364,492.30718254504256 L 758.0100034513036,494.5554464059038 L 759.5786308827292,497.16982545827943 L 761.0425810278778,498.9998907949424 L 763.6569600802534,506.1113081899492 L 765.3302647979554,509.92819948223587 L 766.3760164189057,512.9607770588099 L 767.7352892777774,515.9933546353838 L 768.676363612451,518.7124109740362 L 769.5132712817565,522.4251356009547 L 770.1408243785083,525.5097965102127 L 770.9772214269051,529.1699271835386 L 771.5521805700641,532.359775999982 L 772.179733666816,535.6537914817935 L 772.179733666816,535.6537914817935" stroke="#FCD34D" stroke-width="2" opacity="0.9"/>
  </g>
  <g id="stroke-group-hhtho9djf1-11" data-anchor-line="1" data-timestamp="2026-04-21T16:32:57Z">
    <path d="M 749.6960738163857,523.2094493166674 L 749.6960738163857,523.2094493166674 L 752.9380059655134,521.2747066937277 L 756.1799381146409,519.7060792623024 L 760.6243825036793,517.2484608288876 L 764.3891904632819,515.1569575869871 L 768.1014044692918,512.9607770588099 L 771.1339820458659,510.7125131979485 L 774.3759141949934,507.8366962403354 L 777.1470538663298,505.3790778069206 L 779.9181935376662,502.76469875454495 L 782.3237286383969,500.6211121799604 L 784.4673152129815,497.849972508624 L 786.4020578359211,495.7584692667235 L 788.0227686000305,493.82372664378386 L 789.3825520798109,492.25509921235846 L 790.3757097471685,490.5817944946564 L 791.3172947027506,489.0652503959151 L 791.7875765596332,487.3924562991216 L 792.415129656385,484.6733999604693 L 792.5718902753458,483.67973167220305 L 792.6244842289384,482.529302764976 L 792.6244842289384,481.95434362181686 L 792.5718902753458,481.4835511440258 L 792.5718902753458,481.2221132387882 L 792.5198069426617,481.0653526198274 L 792.4672129890689,480.9606753335506 L 792.415129656385,480.85650866818264 L 792.3630463237009,480.85650866818264 L 792.3104523701081,481.01326928714343 L 792.2057750838314,481.5361450976185 L 791.9969311321865,483.8890862447565 L 792.0490144648707,486.50346529713215 L 791.6308159406722,489.32668830115267 L 791.8401705132258,491.7322234018834 L 791.3693780354347,494.8694782647341 L 791.3172947027506,497.6406179360705 L 790.7944188922756,501.35283194208046 L 790.6371476524062,504.8562019964454 L 790.3236264144844,508.35957205081047 L 790.2189491282077,511.1307117221469 L 789.7486672713253,513.9018513934833 L 789.7486672713253,516.1506258752532 L 789.434635412495,518.2421291171538 L 789.434635412495,520.1763611191848 L 789.2257914608501,521.9543431231637 L 789.3299581262183,523.7323251271425 L 789.2778747935342,524.8301600807769 L 789.3825520798109,525.7712344154503 L 789.2778747935342,526.3987875122021 L 789.2778747935342,526.6602254174397 L 789.2257914608501,526.8169860364005 L 789.2257914608501,526.9737466553613 L 789.1731975072576,527.026340608954 L 789.1211141745734,527.0784239416381 L 789.0685202209806,526.9737466553613 L 789.0164368882968,526.8169860364005 L 788.9117596020199,526.1894329396487 L 788.702915650375,524.9869206997377 L 788.5982383640983,523.3662099356283 L 788.8596762693358,521.6929052179261 L 788.9117596020199,519.9149232139472 L 789.1731975072576,518.2942124498378 L 789.5393126987717,516.5162304458589 L 790.0101051765628,515.0522803007103 L 790.4283037007613,513.1175376777707 L 791.0558567975131,511.39214962738447 L 791.7354932269491,509.4574070044448 L 792.7286508943066,508.150217478257 L 793.7223191825728,506.1633915226332 L 794.768070803523,505.1702338552757 L 796.0231769970267,503.7583670428112 L 797.173095283345,502.86937604082175 L 798.6375560494023,501.8236244198715 L 799.7874743357206,501.14398799043556 L 800.9904971965404,500.7778727989213 L 802.0362488174906,500.5685182263677 L 803.2387610574017,500.7778727989213 L 804.2319187247592,501.19607132311955 L 805.539108250947,502.1371456577931 L 807.0035690170043,503.6536897565344 L 808.4675191621529,505.1702338552757 L 809.6700314020638,506.7909446193852 L 810.8204603092909,508.3074887181265 L 811.7615346439645,509.98028281491986 L 812.8593695975987,511.75826481889874 L 813.853037885865,513.2222149640473 L 815.003466793092,514.7908423954727 L 815.578425936251,515.9412713026998 L 816.3106563192798,517.0917002099268 L 816.7809381761622,518.0848578772843 L 817.3038139866374,518.9738488792738 L 817.7225231317443,520.2289550727775 L 818.0360443696659,520.9085915022134 L 818.2974822749034,521.6929052179261 L 818.5589201801411,522.0590204094404 L 818.5589201801411,522.0590204094404" stroke="#FCD34D" stroke-width="2" opacity="0.9"/>
  </g>
  <g id="stroke-group-hhtho9djf1-12" data-anchor-line="1" data-timestamp="2026-04-21T16:32:57Z">
    <path d="M 831.8401700145725,507.26173709717625 L 831.8401700145725,507.26173709717625 L 831.8401700145725,507.26173709717625 L 831.8401700145725,507.26173709717625 L 831.8401700145725,507.26173709717625 L 831.8401700145725,507.26173709717625" stroke="#FCD34D" stroke-width="2" opacity="0.9"/>
  </g>
  <g id="stroke-group-hhtho9djf1-13" data-anchor-line="1" data-timestamp="2026-04-21T16:32:57Z">
    <path d="M 819.5525884684073,489.0652503959151 L 819.5525884684073,489.0652503959151 L 819.5525884684073,489.0652503959151 L 819.5525884684073,489.0652503959151 L 819.5525884684073,489.0652503959151" stroke="#FCD34D" stroke-width="2" opacity="0.9"/>
  </g>
  <g id="stroke-group-hhtho9djf1-14" data-anchor-line="1" data-timestamp="2026-04-21T16:32:57Z">
    <path d="M 853.8530373872118,486.45087134353946 L 853.8530373872118,486.45087134353946 L 853.8530373872118,486.45087134353946 L 853.8530373872118,486.45087134353946 L 853.8530373872118,486.45087134353946 L 853.8530373872118,486.45087134353946 L 851.9182947642721,487.3924562991216 L 850.2449900465699,488.3856139664791 L 848.3107580445389,489.32668830115267 L 846.1666608490457,490.4250338756956 L 844.3365955123827,491.31402487768503 L 842.7679680809574,492.41185983131925 L 841.5654558410463,493.248256879716 L 840.676464839057,494.6080403594965 L 839.8400677906602,495.60119802685404 L 839.317191980185,496.75162693408106 L 839.0031601213548,497.9020558413081 L 839.1078374076315,499.0524847485351 L 839.1604313612243,499.88888179693186 L 839.5260359318299,500.882550085198 L 841.0425800305711,503.02613665978254 L 842.1930089377981,504.59476409120794 L 843.9704803208683,505.84987028471164 L 847.0035685183511,507.9413735266121 L 848.0493201393012,508.72568724232485 L 849.3039157118965,509.7188449096824 L 850.9772204295984,511.2353890084237 L 851.6568568590344,512.0197027241363 L 852.0750553832329,512.6472558208882 L 852.545847861024,513.3789755830082 L 852.8593690989455,514.0065286797601 L 853.120807004183,514.634081776512 L 853.2780782440525,515.2090409196711 L 853.3822449094207,515.5751561111854 L 853.4348388630133,515.8891879700157 L 853.4348388630133,516.2027092079373 L 853.3822449094207,516.5162304458589 L 853.120807004183,517.0391062563341 L 852.9119630525381,517.2484608288876 L 852.6505251473006,517.4052214478484 L 852.3890872420632,517.5098987341252 L 852.0750553832329,517.5619820668092 L 851.8136174779952,517.5619820668092 L 851.5521795727577,517.5098987341252 L 851.3433356211128,517.4052214478484 L 851.2386583348361,517.2484608288876 L 851.2386583348361,516.934939590966 L 851.7094508126272,515.836594016423 L 853.120807004183,514.2158832523136 L 855.1081435807155,512.8040164398491 L 857.2517301553,511.70618148621475 L 860.0228698266365,510.6604298652645 L 862.00969578226,509.92819948223587 L 864.5719915019517,509.1959690992072 L 866.5588174575753,508.72568724232485 L 868.8596752720293,508.2028114318497 L 870.5329799897315,507.5752583350978 L 872.3630453263945,507.10446585730676 L 873.5655575663054,506.5815900468316 L 874.9248304251773,506.4774233814635 L 876.9642503343937,506.4774233814635 L 877.8532413363832,506.26806880891 L 878.5328777658192,506.2159854762259 L 879.264597527939,506.26806880891 L 880.1015051972445,506.4774233814635 L 880.1015051972445,506.4774233814635" stroke="#FCD34D" stroke-width="2" opacity="0.9"/>
  </g>
</svg>
