<svg xmlns="http://www.w3.org/2000/svg" data-source-file="/data/user/0/com.praveen.gitmdannotations_tablet/app_flutter/repos/alvin4frnds/surri/jobs/pending/spec-003-pwa-offline-assets/02-spec.md" data-source-sha="f79a07652178faea8e9412f4219d5b9e71ba0d1c">
  <g id="stroke-group-hhtmk977xe-0" data-anchor-line="1" data-timestamp="2026-04-21T19:34:16Z">
    <path d="M 241.12691933537928,7230.881837494357 L 241.12691933537928,7230.881837494357 L 241.12691933537928,7230.881837494357 L 241.12691933537928,7230.881837494357 L 241.12691933537928,7230.881837494357 L 241.12691933537928,7230.881837494357 L 238.75777581137737,7232.630740235279 L 234.7526508257884,7235.958337544857 L 233.00429892037522,7237.5943190064445 L 231.36831745878817,7239.173564410609 L 228.88680349096006,7242.952846837527 L 228.32274792979337,7245.152333024773 L 228.04072014921007,7247.465291326862 L 227.983984091788,7252.203027539356 L 228.43566920912855,7254.290143282775 L 229.1688312715434,7255.982309966275 L 231.08628967820488,7258.40763871219 L 232.21440080053827,7258.971694273357 L 233.51216925962882,7259.310458111362 L 236.4448175092885,7259.705407171281 L 240.28083599362924,7259.535749834524 L 244.3983314230444,7258.859323829531 L 246.0904981065445,7258.464374769612 L 247.72592873262255,7257.900319208446 L 250.4338360946299,7256.71547202869 L 250.4338360946299,7256.71547202869" stroke="#FCD34D" stroke-width="2" opacity="0.9"/>
  </g>
  <g id="stroke-group-hhtmk977xe-1" data-anchor-line="1" data-timestamp="2026-04-21T19:34:17Z">
    <path d="M 260.191887135712,7241.31686537594 L 260.191887135712,7241.31686537594 L 260.191887135712,7241.31686537594 L 260.191887135712,7241.31686537594 L 260.191887135712,7241.31686537594 L 260.191887135712,7241.31686537594 L 260.191887135712,7241.31686537594 L 256.69463248937666,7245.491096862778 L 254.88954452654144,7249.664777514106 L 254.49459546662297,7251.131652474445 L 254.32548896537475,7252.372684876113 L 254.26930374346165,7254.008115502192 L 254.26930374346165,7254.459249784023 L 254.32548896537475,7254.854198843942 L 254.6075167459581,7255.418254405108 L 254.8333593046284,7255.700282185691 L 255.1153870852117,7255.926124744362 L 255.9047343695397,7256.2643377468585 L 256.18676215012306,7256.2643377468585 L 256.8637389906249,7255.86938868694 L 257.20250282863026,7255.531175684444 L 257.87892883362315,7254.572171063359 L 259.23288251462685,7251.469865476942 L 259.7969380757935,7249.664777514106 L 260.13515107829,7248.424295947947 L 260.6430214175436,7246.506286705777 L 260.98123442004004,7245.547282084691 L 261.1508917567972,7245.209069082194 L 261.8273177617901,7244.250064461109 L 262.05316032046034,7244.024221902439 L 262.22226682170856,7243.855115401191 L 262.44810938037887,7243.742194121856 L 262.61721588162703,7243.686008899943 L 262.95542888412353,7243.798930179278 L 263.12508622088063,7244.080957959861 L 263.35037794404195,7244.757934800363 L 263.8015122258735,7247.352370047526 L 263.9144335052087,7248.875430229778 L 263.97116956263073,7250.059726574024 L 264.02735478454383,7251.526601534363 L 264.02735478454383,7251.920999758773 L 264.02735478454383,7252.315948818691 L 264.02735478454383,7253.049110881107 L 264.02735478454383,7253.387874719112 L 264.02735478454383,7253.669902499695 L 264.02735478454383,7254.064851559613 L 264.02735478454383,7254.1210367815265 L 263.97116956263073,7253.78282377903 L 263.97116956263073,7253.500795998447 L 263.97116956263073,7252.880004379858 L 264.08354000645693,7250.905809915775 L 264.2531973432141,7249.721513571529 L 264.4223038444623,7248.70632372853 L 264.7605168469587,7247.40855526944 L 264.929623348207,7246.901235765695 L 265.0992806849641,7246.450101483863 L 265.5504149667957,7245.604018142113 L 265.83244274737905,7245.265254304108 L 266.1144705279624,7244.9832265235245 L 266.8476325903773,7244.47590701978 L 267.2425816502958,7244.362985740445 L 267.63753071021426,7244.3062496830225 L 268.87801227637385,7244.532092241693 L 270.0628594561293,7245.604018142113 L 270.9651280197925,7247.070342266943 L 271.81121136154246,7250.285569132695 L 272.09323914212587,7252.203027539356 L 271.92413264087764,7254.1210367815265 L 271.86794741896455,7257.56155537044 L 271.98031786279074,7259.3666433332755 L 271.92413264087764,7260.94588873744 L 271.92413264087764,7260.94588873744" stroke="#FCD34D" stroke-width="2" opacity="0.9"/>
  </g>
  <g id="stroke-group-hhtmk977xe-2" data-anchor-line="1" data-timestamp="2026-04-21T19:34:20Z">
    <path d="M 304.8084616897945,7245.265254304108 L 304.8084616897945,7245.265254304108 L 304.8084616897945,7245.265254304108 L 304.8084616897945,7245.265254304108 L 304.8084616897945,7245.265254304108 L 304.63935518854635,7248.311374668611 L 304.4135126298761,7253.839009000943 L 304.69554041045944,7255.926124744362 L 305.09048947037786,7257.731212707197 L 306.5573644307167,7260.494754455609 L 307.1214199918834,7261.397573854781 L 307.96750333363343,7262.356027640357 L 309.2647209572151,7263.48413876269 L 310.11080429896504,7263.992009101944 L 311.12599414196336,7263.879087822609 L 314.56651273087664,7262.581870199027 L 316.76654975363044,7260.325647954361 L 318.45871643713053,7256.603101584864 L 319.02277199829723,7254.62890712078 L 319.643012781377,7250.905809915775 L 319.9250405619604,7249.439485790945 L 320.03796184129544,7248.198453389276 L 320.03796184129544,7247.183263546278 L 320.03796184129544,7246.901235765695 L 320.03796184129544,7246.619207985112 L 320.03796184129544,7246.224258925193 L 320.03796184129544,7246.111337645858 L 320.03796184129544,7245.998416366522 L 320.1508831206306,7246.111337645858 L 320.2638043999658,7246.337180204528 L 320.54583218054904,7247.352370047526 L 321.3919155222992,7250.736703414526 L 321.8992350260438,7252.541791377362 L 322.4632905872105,7254.17722200344 L 323.87342949012725,7256.546365527442 L 324.49422110871603,7257.279527589857 L 324.8324341112125,7257.6182914278625 L 325.56559617362734,7258.01324048778 L 326.01728129096784,7258.125610931606 L 326.52460079471257,7258.238532210942 L 328.16058225629956,7258.125610931606 L 328.83755909680144,7257.956504430358 L 329.7398276604646,7257.505370148527 L 330.6988322815497,7256.546365527442 L 331.03704528404614,7255.86938868694 L 331.2628878427164,7255.080041402612 L 331.2628878427164,7252.259763596779 L 330.98086006213305,7250.736703414526 L 330.47298972287945,7249.32656451161 L 330.2476979997182,7247.972610830606 L 330.2476979997182,7247.634397828109 L 330.1909619422961,7247.40855526944 L 330.1909619422961,7247.01415704503 L 330.1909619422961,7246.901235765695 L 330.2476979997182,7246.844499708272 L 330.52972578030153,7246.957420987608 L 331.6578369026349,7248.142268167363 L 333.68821658863146,7251.131652474445 L 334.4213786510463,7252.428870098027 L 335.0983554915482,7253.613166442273 L 335.88825361138515,7254.62890712078 L 335.88825361138515,7254.62890712078" stroke="#DC2626" stroke-width="2" opacity="0.9"/>
  </g>
  <g id="stroke-group-hhtmk977xe-3" data-anchor-line="1" data-timestamp="2026-04-21T19:34:20Z">
    <path d="M 345.6463046524674,7258.238532210942 L 345.6463046524674,7258.238532210942 L 345.6463046524674,7258.238532210942 L 345.6463046524674,7258.238532210942 L 345.6463046524674,7258.238532210942 L 348.3536611789657,7254.064851559613 L 349.4817723012991,7252.372684876113 L 350.15874914180085,7251.074916417023 L 350.77898992488065,7249.608592292193 L 350.89191120421583,7249.100721952939 L 350.89191120421583,7248.593402449194 L 350.83572598230285,7247.690583050023 L 350.77898992488065,7247.296184825613 L 350.6660686455456,7246.957420987608 L 350.1020130843789,7246.675393207024 L 349.81998530379553,7246.7321292644465 L 349.14355929880264,7247.070342266943 L 347.50757783721565,7249.8344348508635 L 347.1693648347192,7251.638971978189 L 347.1126287772971,7253.33113866169 L 347.7896056177989,7256.433444248107 L 348.4098464008788,7257.843583151023 L 349.4255870793861,7259.423379390697 L 352.35823532904567,7261.1155460741975 L 354.3324297931291,7261.284652575446 L 356.7015733171311,7261.1155460741975 L 356.7015733171311,7261.1155460741975" stroke="#DC2626" stroke-width="2" opacity="0.9"/>
  </g>
  <g id="stroke-group-hhtmk977xe-4" data-anchor-line="1" data-timestamp="2026-04-21T19:34:21Z">
    <path d="M 419.53758316530525,7243.178138560689 L 419.53758316530525,7243.178138560689 L 419.53758316530525,7243.178138560689 L 419.53758316530525,7243.178138560689 L 419.53758316530525,7243.178138560689 L 419.53758316530525,7243.178138560689 L 417.90160170371826,7244.701198742941 L 415.13805995530674,7247.972610830606 L 413.8402914962162,7249.8344348508635 L 412.99420815446615,7251.24457375378 L 411.9790183114678,7253.839009000943 L 411.86609703213276,7254.854198843942 L 411.9790183114678,7255.531175684444 L 412.31778214947326,7256.828393308025 L 412.6559951519697,7257.392448869192 L 413.72792105239,7257.843583151023 L 415.8712220177217,7258.238532210942 L 416.94259708263303,7258.2952682683635 L 418.0707082049664,7257.900319208446 L 419.7066896665534,7257.110421088609 L 420.15782394838504,7256.71547202869 L 420.60895823021656,7256.151416467524 L 421.3426711281404,7255.080041402612 L 421.62469890872376,7254.572171063359 L 421.79380540997204,7254.1210367815265 L 422.0758331905554,7253.162032160441 L 422.1320184124686,7252.71089787861 L 422.18875446989057,7252.315948818691 L 422.30112491371676,7251.6957080356115 L 422.30112491371676,7251.469865476942 L 422.35786097113873,7251.3007589756935 L 422.30112491371676,7251.131652474445 L 422.24493969180355,7251.131652474445 L 422.18875446989057,7251.24457375378 L 422.24493969180355,7251.582786756277 L 422.30112491371676,7251.808629314947 L 422.41404619305183,7252.09065709553 L 422.86518047488335,7252.597976599275 L 423.31686559222396,7252.823819157945 L 424.6140832158055,7252.992925659193 L 427.9984165828058,7252.203027539356 L 429.5214767650576,7251.24457375378 L 430.70577310930423,7249.9468052946895 L 432.5670462940525,7246.957420987608 L 433.5260509151377,7245.3781755834425 L 434.37213425688776,7243.798930179278 L 435.6693518804693,7240.921916316022 L 436.4025139428843,7239.511777413106 L 437.0233055614731,7238.158374567611 L 437.5306250652177,7234.943147701859 L 437.6435463445529,7232.968953237775 L 437.75646762388783,7231.163865274941 L 437.4744398433045,7227.836267965362 L 437.5306250652177,7226.538499506271 L 437.3053333420563,7225.636230942609 L 437.0233055614731,7224.903068880193 L 436.9665695040509,7224.790147600858 L 436.9103842821379,7224.733962378945 L 436.2901434990581,7225.580045720695 L 435.6693518804693,7227.441318905443 L 435.0491110973895,7229.922832873272 L 433.9771851969691,7234.999332923772 L 433.86426391763416,7237.255555168439 L 433.6951574163859,7239.511777413106 L 433.6389721944728,7244.250064461109 L 434.0901064763043,7246.7321292644465 L 434.5412407581359,7248.931615451691 L 436.06430094038785,7252.315948818691 L 437.4182546213915,7253.4440599410245 L 438.71547224497306,7254.233958060862 L 441.59193527271975,7255.192962681947 L 442.8891528963013,7255.418254405108 L 444.29929179921805,7255.192962681947 L 446.7251713806421,7253.726087721609 L 448.304416784807,7252.767083100523 L 449.71455568772376,7251.3007589756935 L 451.7449353737203,7247.296184825613 L 452.7039399948055,7245.32199036153 L 453.3241807778853,7243.291059840024 L 453.7758658952258,7239.568513470527 L 454.3399214563925,7236.015073602279 L 454.3399214563925,7232.3487124546955 L 454.4522919002187,7230.54362449186 L 454.3961066783055,7229.133485588944 L 454.11407889772227,7227.666610628605 L 454.05789367580917,7227.441318905443 L 454.0011576183871,7227.272212404196 L 453.8882363390519,7227.15929112486 L 453.7758658952258,7227.441318905443 L 453.55002333655557,7228.512693970355 L 453.2118103340591,7232.85603195844 L 453.09888905472394,7234.999332923772 L 452.9297825534758,7236.861156944029 L 453.2118103340591,7240.639888535439 L 453.3809168353073,7242.614082999522 L 453.71912983780373,7244.814120022276 L 454.5652131795539,7248.988351509113 L 455.24219002005566,7250.962545973197 L 455.86243080313545,7252.71089787861 L 457.160199262226,7255.24914790386 L 457.160199262226,7255.24914790386" stroke="#DC2626" stroke-width="2" opacity="0.9"/>
  </g>
  <g id="stroke-group-hhtmk977xe-5" data-anchor-line="1" data-timestamp="2026-04-21T19:34:22Z">
    <path d="M 464.2108937768097,7239.173564410609 L 464.2108937768097,7239.173564410609 L 464.2108937768097,7239.173564410609 L 464.2108937768097,7239.173564410609 L 464.2108937768097,7239.173564410609 L 464.3232642206359,7244.193879239197 L 464.66202805864134,7246.337180204528 L 465.11316234047297,7247.803504329358 L 465.9030604603099,7249.721513571529 L 466.24127346280625,7250.510860855857 L 466.86151424588604,7251.24457375378 L 467.98962536821955,7252.203027539356 L 468.55368092938625,7252.428870098027 L 468.9486299893048,7252.372684876113 L 469.90763461039,7251.86481453686 L 470.4155049496436,7251.3007589756935 L 471.20485223397156,7249.9468052946895 L 471.88182907447333,7248.48048116986 L 472.84083369555856,7245.265254304108 L 473.06612541871993,7244.080957959861 L 473.235782755477,7241.8809209371075 L 473.2919679773901,7241.0915736527795 L 473.40488925672526,7240.639888535439 L 473.5178105360603,7240.01964775236 L 473.57399575797353,7239.7376199717755 L 473.6869170373086,7239.511777413106 L 473.91220876046987,7239.004457909361 L 474.1380513191401,7238.722430128778 L 474.3638938778105,7238.496587570107 L 474.92794943897707,7238.271295846946 L 475.2661624414735,7238.271295846946 L 475.60437544397007,7238.327481068859 L 476.394273563807,7238.835351408113 L 476.84540784563853,7239.286485689944 L 477.40946340680523,7240.132569031694 L 478.36846802789046,7242.614082999522 L 479.2145513696404,7245.886045922696 L 479.7786069308072,7247.86024038678 L 479.94771343205537,7248.367559890525 L 480.11681993330365,7248.875430229778 L 480.45558377130897,7249.664777514106 L 480.68087549447034,7250.003541352112 L 480.9067180531406,7250.285569132695 L 481.5269588362204,7250.680518192614 L 481.8657226742257,7250.79288863644 L 482.26067173414424,7250.79288863644 L 483.50115330030394,7250.39849041203 L 484.2348661982277,7249.9468052946895 L 484.6860004800593,7249.608592292193 L 485.3062412631391,7248.875430229778 L 485.58826904372245,7248.536666391773 L 485.8141116023927,7248.198453389276 L 486.2090606623111,7247.578212606197 L 486.3781671635594,7247.352370047526 L 486.49108844289447,7247.183263546278 L 486.71638016605584,7247.01415704503 L 486.8293014453909,7247.070342266943 L 486.9422227247261,7247.183263546278 L 487.16751444788747,7247.690583050023 L 487.2804357272224,7248.029346888028 L 487.5062782858928,7248.593402449194 L 488.0703338470595,7249.664777514106 L 488.74731068756137,7250.510860855857 L 489.6495792512244,7251.3007589756935 L 493.14683389755976,7252.315948818691 L 495.1210283616433,7251.9777358161955 L 497.03848676830467,7251.0187311951095 L 500.6486626939752,7248.367559890525 L 501.8896950956437,7246.957420987608 L 502.7919636593068,7245.491096862778 L 503.63804700105686,7243.065768116863 L 503.5251257217217,7242.275869997026 L 503.29983399856053,7241.4859718771895 L 502.7919636593068,7239.963462530446 L 502.11498681880494,7239.0606431312735 L 501.04361175389363,7238.214559789524 L 497.8845701100547,7237.086448667191 L 496.1924034265546,7236.973527387855 L 494.72607930172467,7237.086448667191 L 491.05971815414114,7238.496587570107 L 491.05971815414114,7238.496587570107" stroke="#DC2626" stroke-width="2" opacity="0.9"/>
  </g>
  <g id="stroke-group-hhtmk977xe-6" data-anchor-line="1" data-timestamp="2026-04-21T19:34:23Z">
    <path d="M 544.0247556818981,7235.5633884849385 L 544.0247556818981,7235.5633884849385 L 544.0247556818981,7235.5633884849385 L 544.0247556818981,7235.5633884849385 L 544.0247556818981,7235.5633884849385 L 544.0247556818981,7235.5633884849385 L 544.0809409038111,7237.143184724612 L 544.2500474050595,7239.229749632523 L 544.7011816868909,7240.978652373445 L 545.7169223653982,7242.839925558193 L 546.4500844278131,7243.629823678029 L 547.4652742708114,7244.250064461109 L 549.7776817373913,7244.814120022276 L 551.1316354183949,7244.814120022276 L 552.5417743213117,7244.757934800363 L 554.2901262267249,7244.3062496830225 L 555.0238391246487,7243.968036680526 L 555.5311586283934,7243.686008899943 L 556.2081354688952,7242.839925558193 L 556.4339780275654,7242.219684775113 L 556.6030845288138,7241.655629213947 L 556.7160058081488,7240.470782034191 L 556.7160058081488,7240.245490311029 L 556.7160058081488,7239.850541251111 L 556.7160058081488,7239.7376199717755 L 556.7160058081488,7239.681434749863 L 556.6030845288138,7239.7376199717755 L 556.4901632494787,7239.850541251111 L 556.3772419701435,7240.075832974272 L 556.1519502469822,7241.373601433363 L 556.2081354688952,7242.219684775113 L 556.3772419701435,7243.009032059441 L 557.1104040325584,7244.419170962357 L 557.674459593725,7244.9832265235245 L 558.7463854941454,7245.604018142113 L 561.4537420206437,7245.829309865274 L 563.258829983479,7245.32199036153 L 564.894811445066,7244.419170962357 L 567.3763254128942,7242.162948717691 L 568.109487475309,7241.373601433363 L 568.6173578145628,7240.696624592861 L 569.1814133757293,7239.511777413106 L 569.4072559343996,7238.891536630026 L 569.5196263782258,7238.440402348194 L 569.576362435648,7237.650504228357 L 569.576362435648,7237.199369946526 L 569.576362435648,7236.748235664694 L 569.4634411563128,7235.958337544857 L 569.3505198769776,7235.620124542361 L 569.2375985976425,7235.338096761778 L 569.0123068744812,7234.943147701859 L 568.899385595146,7234.886962479945 L 568.843200373233,7234.886962479945 L 568.7864643158109,7235.281360704355 L 568.899385595146,7235.845416265522 L 569.1252281538164,7236.579129163446 L 569.9713114955664,7238.891536630026 L 570.3657097199759,7239.963462530446 L 570.8735800592295,7241.260680154028 L 571.5505568997313,7243.347795897446 L 571.7196634009795,7244.137143181774 L 571.7758486228927,7244.588277463606 L 571.8325846803147,7245.434360805356 L 571.7196634009795,7246.0551524239445 L 571.5505568997313,7246.7321292644465 L 570.8735800592295,7247.803504329358 L 570.5353670567331,7248.085532109942 L 569.9713114955664,7248.367559890525 L 568.6735430364757,7248.70632372853 L 568.0533022533959,7248.762508950443 L 567.4892466922292,7248.70632372853 L 566.530242071144,7248.424295947947 L 566.0791077893126,7248.198453389276 L 565.740894786816,7247.86024038678 L 565.2330244475625,7246.957420987608 L 565.1768392256495,7246.337180204528 L 565.3459457268976,7245.6602033640265 L 565.740894786816,7244.927041301611 L 565.740894786816,7244.927041301611" stroke="#DC2626" stroke-width="2" opacity="0.9"/>
  </g>
  <g id="stroke-group-hhtmk977xe-7" data-anchor-line="1" data-timestamp="2026-04-21T19:34:24Z">
    <path d="M 580.2366820403931,7239.793805193689 L 580.2366820403931,7239.793805193689 L 580.2366820403931,7239.793805193689 L 580.2366820403931,7239.793805193689 L 580.2366820403931,7239.793805193689 L 580.2366820403931,7239.793805193689 L 580.2366820403931,7239.793805193689 L 580.7445523796467,7239.342670911858 L 581.2524227189003,7238.947721851939 L 582.1546912825635,7237.9892680663625 L 582.4929042850599,7237.5943190064445 L 582.7187468437303,7237.199369946526 L 583.1698811255618,7236.522393106024 L 583.2266171829839,7236.2403653254405 L 583.1136959036487,7236.071258824192 L 582.6625616218171,7235.902152322944 L 582.0985060606505,7236.015073602279 L 581.2524227189003,7236.353286604775 L 579.5602560354004,7237.707240285779 L 579.3905986986431,7238.101638510188 L 579.2214921973949,7238.609508849442 L 579.3905986986431,7239.568513470527 L 579.6164412573133,7240.132569031694 L 580.1243115965669,7240.978652373445 L 581.703557000732,7242.727004278858 L 583.6210154073934,7244.024221902439 L 585.3699181483155,7244.757934800363 L 586.2721867119786,7244.9832265235245 L 587.3441126123989,7245.152333024773 L 589.1492005752342,7245.152333024773 L 590.1643904182325,7244.927041301611 L 591.1233950393176,7244.588277463606 L 592.5335339422345,7243.742194121856 L 592.9279321666439,7243.40398111936 L 593.2666960046492,7243.065768116863 L 593.8307515658161,7242.332055218939 L 594.1127793463994,7241.824735715194 L 594.3380710695607,7241.31686537594 L 594.7330201294792,7240.132569031694 L 594.9021266307274,7239.511777413106 L 595.0150479100624,7238.891536630026 L 595.2408904687328,7237.707240285779 L 595.2970756906459,7237.143184724612 L 595.3538117480679,7236.635314385359 L 595.4661821918941,7235.902152322944 L 595.5791034712292,7235.39428198369 L 595.7482099724774,7235.112254203107 L 595.8611312518126,7235.112254203107 L 596.0302377530608,7235.168990260529 L 596.5381080923144,7235.451018041113 L 596.8763210948108,7235.676309764274 L 597.722404436561,7235.845416265522 L 599.6965989006444,7236.127444046106 L 600.5426822423943,7236.2403653254405 L 601.2763951403183,7236.409471826689 L 602.3477702052297,7237.030263445277 L 602.686534043235,7237.425212505196 L 602.9685618238184,7237.876346787028 L 603.3629600482279,7238.77861535069 L 603.4758813275631,7239.286485689944 L 603.5326173849851,7239.963462530446 L 603.3629600482279,7241.4859718771895 L 603.1938535469797,7242.275869997026 L 603.0247470457315,7243.009032059441 L 603.0247470457315,7243.009032059441" stroke="#DC2626" stroke-width="2" opacity="0.9"/>
  </g>
  <g id="stroke-group-hhtmk977xe-8" data-anchor-line="1" data-timestamp="2026-04-21T19:34:24Z">
    <path d="M 643.8058539509823,7219.54454104911 L 643.8058539509823,7219.54454104911 L 644.0316965096524,7222.421004076856 L 644.5957520708192,7228.62561524969 L 645.0468863526507,7231.445893055524 L 645.0468863526507,7233.871221801439 L 645.272728911321,7237.707240285779 L 645.3850993551472,7239.511777413106 L 645.4418354125692,7241.260680154028 L 645.4980206344824,7245.039962580946 L 645.6109419138174,7247.01415704503 L 645.6109419138174,7247.01415704503" stroke="#DC2626" stroke-width="2" opacity="0.9"/>
  </g>
  <g id="stroke-group-hhtmk977xe-9" data-anchor-line="1" data-timestamp="2026-04-21T19:34:25Z">
    <path d="M 630.5505482635647,7239.511777413106 L 630.5505482635647,7239.511777413106 L 630.5505482635647,7239.511777413106 L 630.5505482635647,7239.511777413106 L 635.2320992541466,7238.665694071356 L 643.4109048910638,7237.030263445277 L 646.9648955948212,7236.127444046106 L 649.8413586225677,7235.451018041113 L 654.0155901094049,7234.379092140693 L 654.5229096131496,7234.209985639444 L 654.8049373937329,7234.153249582022 L 655.1437012317382,7234.097064360109 L 655.2560716755644,7234.097064360109 L 655.3689929548996,7234.097064360109 L 655.5380994561478,7234.097064360109 L 655.5380994561478,7234.153249582022 L 655.4819142342348,7234.492013420027 L 655.3128077329866,7235.112254203107 L 654.9740438949812,7236.635314385359 L 654.861673451155,7237.425212505196 L 654.8049373937329,7238.214559789524 L 654.861673451155,7239.39940696928 L 654.9740438949812,7240.075832974272 L 655.1998864536514,7240.752809814774 L 656.1021550173145,7241.93765699453 L 657.3431874189831,7242.614082999522 L 658.5842198206516,7242.896110780106 L 661.7994466864036,7242.332055218939 L 662.7584513074888,7241.824735715194 L 663.4916133699037,7241.260680154028 L 664.0556689310704,7240.4145968122775 L 664.1685902104056,7239.850541251111 L 664.1118541529835,7239.229749632523 L 663.4916133699037,7237.5943190064445 L 662.9837430306501,7236.804420886607 L 661.8556319083167,7235.676309764274 L 658.3021920400683,7233.92795785886 L 655.2560716755644,7233.476823577029 L 653.0565854883197,7234.097064360109 L 652.0975808672345,7234.717305143188 L 652.0975808672345,7234.717305143188" stroke="#DC2626" stroke-width="2" opacity="0.9"/>
  </g>
  <g id="stroke-group-hhtmk977xe-10" data-anchor-line="1" data-timestamp="2026-04-21T19:34:25Z">
    <path d="M 709.2930351037417,7227.610425406692 L 709.2930351037417,7227.610425406692 L 709.2930351037417,7227.610425406692 L 709.2930351037417,7227.610425406692 L 709.2930351037417,7227.610425406692 L 709.2930351037417,7227.610425406692 L 709.2930351037417,7227.610425406692 L 709.2930351037417,7227.610425406692 L 708.6722434851529,7228.569430027777 L 707.7699749214897,7230.9947587736915 L 707.6008684202416,7234.040879138196 L 708.2211092033214,7236.635314385359 L 708.6160582632399,7237.876346787028 L 709.0110073231583,7238.947721851939 L 710.7031740066584,7240.188754253608 L 711.3796000116513,7240.583703313526 L 711.8312851289918,7240.921916316022 L 712.5077111339847,7241.598893156524 L 712.5644471914068,7241.8809209371075 L 712.2824194108234,7242.5578977776095 L 711.4925212909865,7243.291059840024 L 709.9132758868215,7244.193879239197 L 705.9087017367414,7245.434360805356 L 703.990692494571,7245.716388585939 L 702.5805535916543,7245.829309865274 L 700.3243313469875,7245.886045922696 L 699.4782480052374,7245.829309865274 L 698.9703776659838,7245.773124643361 L 698.2372156035689,7245.3781755834425 L 698.0681091023207,7245.209069082194 L 698.0119238804076,7244.9832265235245 L 698.293951660991,7244.024221902439 L 699.3653267259023,7242.614082999522 L 702.6934748709895,7239.850541251111 L 704.4418267764026,7238.609508849442 L 704.4418267764026,7238.609508849442" stroke="#DC2626" stroke-width="2" opacity="0.9"/>
  </g>
  <g id="stroke-group-hhtmk977xe-11" data-anchor-line="1" data-timestamp="2026-04-21T19:34:26Z">
    <path d="M 717.528025962572,7226.8205272868545 L 717.528025962572,7226.8205272868545 L 717.528025962572,7226.8205272868545 L 717.528025962572,7226.8205272868545 L 717.528025962572,7226.8205272868545 L 717.528025962572,7226.8205272868545 L 717.528025962572,7226.8205272868545 L 718.7690583642404,7229.246406868278 L 720.3483037684055,7233.589194020855 L 721.5326001126518,7237.537582949022 L 721.9842852299925,7241.655629213947 L 721.3634936114037,7243.798930179278 L 720.7994380502371,7246.280444147106 L 720.3483037684055,7251.808629314947 L 719.8971694865738,7254.515985841445 L 719.8971694865738,7254.515985841445" stroke="#DC2626" stroke-width="2" opacity="0.9"/>
  </g>
  <g id="stroke-group-hhtmk977xe-12" data-anchor-line="1" data-timestamp="2026-04-21T19:34:26Z">
    <path d="M 711.0975722310679,7240.301675532943 L 711.0975722310679,7240.301675532943 L 711.0975722310679,7240.301675532943 L 715.3847249972403,7239.173564410609 L 719.3331139254071,7238.158374567611 L 726.5529149412391,7236.2403653254405 L 731.5732297698264,7234.830226422524 L 733.5474242339099,7234.379092140693 L 733.8294520144932,7234.322906918779 L 734.0547437376545,7234.322906918779 L 734.505878019486,7234.322906918779 L 734.6755353562432,7234.322906918779 L 734.8446418574914,7234.379092140693 L 735.0137483587396,7234.435277362605 L 735.0699335806528,7234.492013420027 L 735.0137483587396,7234.604934699362 L 734.7317205781563,7235.056068981194 L 734.3935075756598,7235.451018041113 L 733.9985585157414,7235.902152322944 L 732.7013408921598,7237.368476447774 L 732.1934705529062,7238.045453288276 L 731.8552575504096,7238.496587570107 L 731.2912019892431,7239.39940696928 L 731.0091742086597,7239.906726473024 L 730.8395168719024,7240.4145968122775 L 730.6704103706543,7241.429786655276 L 730.7833316499895,7242.444976498275 L 731.347387211156,7243.516902398695 L 731.6294149917394,7243.855115401191 L 731.9676279942358,7244.137143181774 L 733.0957391165692,7244.47590701978 L 733.603609455823,7244.47590701978 L 734.0547437376545,7244.362985740445 L 734.8446418574914,7243.968036680526 L 735.2395909174099,7243.686008899943 L 735.5778039199064,7243.347795897446 L 736.1980447029862,7242.614082999522 L 736.4238872616563,7242.162948717691 L 736.5929937629047,7241.711814435859 L 736.7621002641529,7240.809545872196 L 736.7621002641529,7240.357860754855 L 736.7059150422398,7239.963462530446 L 736.5368085409915,7239.286485689944 L 736.4238872616563,7239.004457909361 L 736.3109659823214,7238.77861535069 L 736.08567425916,7238.55332362753 L 735.8598317004897,7238.609508849442 L 735.6907251992416,7239.173564410609 L 735.7469104211546,7239.455592191192 L 736.0289382017379,7240.132569031694 L 736.3109659823214,7240.470782034191 L 736.818836321575,7240.921916316022 L 738.0031326658213,7241.598893156524 L 738.6239242844101,7241.824735715194 L 739.1879798455768,7241.93765699453 L 740.4851974691585,7241.93765699453 L 741.3312808109084,7241.824735715194 L 741.9515215939882,7241.711814435859 L 743.0234474944086,7241.31686537594 L 743.4745817762401,7241.0915736527795 L 743.8695308361587,7240.809545872196 L 744.4335863973254,7240.075832974272 L 744.6026928985735,7239.681434749863 L 744.6588781204867,7239.286485689944 L 744.6026928985735,7238.496587570107 L 744.3768503399034,7237.650504228357 L 743.9824521154937,7236.691499607272 L 743.7566095568236,7236.184180103527 L 743.5875030555753,7235.845416265522 L 743.4183965543272,7235.5633884849385 L 743.4183965543272,7235.507203263025 L 743.5875030555753,7235.676309764274 L 743.7566095568236,7235.845416265522 L 743.9824521154937,7236.015073602279 L 744.884720679157,7236.466207884111 L 745.3358549609885,7236.691499607272 L 745.8437253002421,7236.861156944029 L 746.8589151432403,7237.199369946526 L 747.4229707044071,7237.368476447774 L 747.9870262655738,7237.537582949022 L 749.1151373879072,7237.876346787028 L 749.6230077271608,7238.045453288276 L 750.1303272309054,7238.214559789524 L 751.0331466300776,7238.609508849442 L 751.8224939144056,7239.117379188696 L 752.4432855329944,7239.7376199717755 L 752.6685772561556,7240.075832974272 L 752.8376837574039,7240.4145968122775 L 753.1764475954092,7241.2039440966055 L 753.3455540966575,7241.542707934611 L 753.5713966553278,7241.993842216442 L 754.1354522164944,7242.896110780106 L 754.6427717202391,7243.573087620607 L 755.0377207801575,7243.968036680526 L 756.109646680578,7244.701198742941 L 756.6169661843226,7244.870305244189 L 757.1810217454893,7244.9832265235245 L 759.0990309876596,7244.870305244189 L 760.0580356087448,7244.588277463606 L 760.960304172408,7244.193879239197 L 762.4266282972378,7243.121953338776 L 763.1036051377396,7242.388791276361 L 763.8935032575765,7241.31686537594 L 764.964878322488,7239.173564410609 L 765.6418551629897,7236.353286604775 L 765.7547764423249,7234.492013420027 L 765.6985912204118,7233.984143080774 L 765.5289338836548,7233.138059739023 L 765.4165634398286,7232.7431106791055 L 765.3036421604934,7232.404897676609 L 765.0777996018231,7231.897027337355 L 765.0216143799099,7231.840842115442 L 764.9086931005749,7231.953763394777 L 764.7957718212398,7234.153249582022 L 764.7957718212398,7235.845416265522 L 764.9086931005749,7237.650504228357 L 764.9086931005749,7241.2039440966055 L 764.9086931005749,7243.178138560689 L 764.9086931005749,7245.32199036153 L 764.7957718212398,7249.32656451161 L 764.6828505419046,7251.24457375378 L 764.4575588187433,7253.049110881107 L 763.7805819782415,7255.86938868694 L 763.7805819782415,7255.86938868694" stroke="#DC2626" stroke-width="2" opacity="0.9"/>
  </g>
  <g id="stroke-group-hhtmk977xe-13" data-anchor-line="1" data-timestamp="2026-04-21T19:34:27Z">
    <path d="M 760.227142109993,7236.635314385359 L 760.227142109993,7236.635314385359 L 760.227142109993,7236.635314385359 L 760.227142109993,7236.635314385359 L 763.442368975745,7235.676309764274 L 766.8828875646583,7234.830226422524 L 770.0413783729882,7234.266170861357 L 774.3847163610736,7233.589194020855 L 775.7948552639904,7233.476823577029 L 776.6976746631625,7233.533008798942 L 777.4870219474905,7233.702115300191 L 777.4870219474905,7233.92795785886 L 777.4870219474905,7233.92795785886" stroke="#DC2626" stroke-width="2" opacity="0.9"/>
  </g>
  <g id="stroke-group-hhtmk977xe-14" data-anchor-line="1" data-timestamp="2026-04-21T19:34:27Z">
    <path d="M 812.5713880191611,7228.456508748442 L 812.5713880191611,7228.456508748442 L 812.5713880191611,7228.456508748442 L 812.5713880191611,7228.456508748442 L 811.1050638943314,7230.54362449186 L 810.0893232158242,7232.179055117938 L 808.7921055922425,7234.943147701859 L 808.566813869081,7235.902152322944 L 808.5100778116591,7237.030263445277 L 809.0741333728258,7240.4145968122775 L 809.4128972108313,7241.373601433363 L 811.5561981761628,7243.686008899943 L 812.2893602385777,7244.080957959861 L 814.0944482014129,7244.080957959861 L 814.6585037625798,7243.855115401191 L 815.8428001068262,7243.065768116863 L 816.632698226663,7242.332055218939 L 816.9709112291596,7241.93765699453 L 817.4787815684133,7241.147758874693 L 817.6478880696616,7240.752809814774 L 817.9299158502449,7239.963462530446 L 817.9861010721579,7239.568513470527 L 817.9861010721579,7239.229749632523 L 817.9299158502449,7238.609508849442 L 817.8169945709096,7238.383666290772 L 817.7040732915746,7238.214559789524 L 817.4220455109912,7238.045453288276 L 817.309675067165,7238.045453288276 L 817.19675378783,7238.158374567611 L 817.0276472865817,7238.665694071356 L 817.0838325084947,7238.891536630026 L 817.5349667903263,7239.39940696928 L 818.04283712958,7239.681434749863 L 819.1142121944913,7239.963462530446 L 822.1041473370819,7239.850541251111 L 825.206452923499,7238.77861535069 L 828.0829159512455,7237.199369946526 L 829.3239483529139,7236.297101382863 L 830.0571104153289,7235.5633884849385 L 831.8621983781641,7232.912768015863 L 832.4262539393308,7231.163865274941 L 832.482439161244,7229.246406868278 L 832.7082817199141,7225.072175381441 L 832.7644669418273,7223.2109021966935 L 832.7082817199141,7221.461999455771 L 832.2004113806606,7219.093406767278 L 832.0874901013253,7218.641721649938 L 831.9751196574991,7218.416429926776 L 831.749277098829,7218.2473234255285 L 831.5234345401589,7218.303508647441 L 830.9593789789919,7218.69845770736 L 829.4930548541622,7221.969869795024 L 828.8728140710825,7224.113170760356 L 828.5340502330771,7226.369393005023 L 828.7598927917472,7230.656545771196 L 829.2672122954918,7233.984143080774 L 830.7902724777439,7235.958337544857 L 831.9183836000773,7236.748235664694 L 833.4976290042421,7237.425212505196 L 836.656670648081,7238.271295846946 L 837.9538882716627,7238.440402348194 L 839.081999393996,7238.440402348194 L 841.4511429179979,7237.9892680663625 L 842.5792540403313,7237.537582949022 L 843.7073651626649,7236.9173421659425 L 845.28661056683,7235.281360704355 L 845.9635874073317,7233.815036579525 L 846.5276429684984,7232.00994861669 L 847.2608050309134,7227.328397626108 L 847.2608050309134,7224.846332822772 L 847.2046198090002,7222.308082797521 L 847.2046198090002,7217.9652956449445 L 847.1478837515781,7216.273128961445 L 847.0916985296651,7215.31412434036 L 846.9787772503298,7214.580962277944 L 846.9787772503298,7214.411304941187 L 846.9225920284168,7214.355119719274 L 846.8096707490818,7214.524226220523 L 846.6967494697467,7215.201203061024 L 846.4709069110763,7217.119212303194 L 846.301800409828,7222.590110578105 L 846.301800409828,7225.185096660776 L 846.4147216891633,7227.948638409188 L 846.8658559709947,7233.025138459689 L 847.034962472243,7235.056068981194 L 847.4299115321614,7236.861156944029 L 848.6147587119169,7240.245490311029 L 849.2349994949968,7241.824735715194 L 849.7990550561635,7243.178138560689 L 849.7990550561635,7243.178138560689" stroke="#DC2626" stroke-width="2" opacity="0.9"/>
  </g>
  <g id="stroke-group-hhtmk977xe-15" data-anchor-line="1" data-timestamp="2026-04-21T19:34:28Z">
    <path d="M 273.842141883048,7266.474073905281 L 273.842141883048,7266.474073905281 L 273.842141883048,7266.474073905281 L 273.842141883048,7266.474073905281 L 273.842141883048,7266.474073905281 L 275.0264382272945,7273.580953641778 L 275.3084660078779,7277.247314789362 L 275.5343085665481,7283.903060244027 L 275.2522807859648,7286.441310269277 L 274.91351694795935,7288.5284260126955 L 274.18035488554443,7291.686916821025 L 273.72922060371286,7292.8150279433585 L 273.56011410246464,7293.604926063195 L 273.5033780450426,7294.73303718553 L 273.5033780450426,7295.015064966113 L 273.4471928231295,7295.522935305366 L 273.3904567657075,7295.692041806615 L 273.3904567657075,7295.692041806615" stroke="#DC2626" stroke-width="2" opacity="0.9"/>
  </g>
  <g id="stroke-group-hhtmk977xe-16" data-anchor-line="1" data-timestamp="2026-04-21T19:34:29Z">
    <path d="M 282.41534574437475,7275.329305547191 L 282.41534574437475,7275.329305547191 L 285.79967911137487,7276.627074006282 L 287.0974475704655,7277.303500011274 L 288.9587207552138,7278.826560193526 L 289.7480680395418,7279.841750036525 L 290.3121236007085,7280.80075465761 L 290.81999393996216,7283.000791680363 L 290.81999393996216,7284.580037084528 L 290.6508874387139,7286.216018546115 L 289.0149059771269,7289.261588075111 L 287.77387357545837,7290.502620476779 L 286.3637346725416,7291.574546377199 L 283.0923225848765,7292.984685280116 L 281.51307718071155,7293.435819561948 L 280.1591234997079,7293.717847342531 L 277.73379475379284,7294.112796402449 L 277.39558175129645,7294.112796402449 L 276.77479013270766,7294.112796402449 L 276.4927623521244,7294.112796402449 L 276.21073457154097,7294.056060345028 L 275.9287067909577,7293.886953843779 L 275.9287067909577,7293.717847342531 L 276.60568363145944,7292.984685280116 L 276.60568363145944,7292.984685280116" stroke="#DC2626" stroke-width="2" opacity="0.9"/>
  </g>
  <g id="stroke-group-hhtmk977xe-17" data-anchor-line="1" data-timestamp="2026-04-21T19:34:29Z">
    <path d="M 295.1633319280475,7280.969861158858 L 295.1633319280475,7280.969861158858 L 295.1633319280475,7280.969861158858 L 295.1633319280475,7280.969861158858 L 295.38862365120883,7281.87268055803 L 295.72738748921427,7282.774949121694 L 296.6296560528774,7284.128902802697 L 297.0807903347089,7284.692958363864 L 298.1527162351292,7285.595226927527 L 300.0139894198776,7286.892444551108 L 301.19883659963307,7287.4565001122755 L 301.81907738271286,7287.56942139161 L 302.778082003798,7287.231208389114 L 303.00337372695935,7286.780074107282 L 303.1730310637165,7285.990175987446 L 302.2702116645444,7283.226083403525 L 301.25502182154617,7281.87268055803 L 300.12691069921266,7280.80075465761 L 297.8145032326328,7279.3906157546935 L 296.6296560528774,7279.052402752197 L 295.89649399046243,7278.826560193526 L 294.6554615887939,7278.770374971613 L 294.37343380821056,7278.770374971613 L 293.80937824704387,7279.052402752197 L 293.1891374639641,7279.898486093947 L 292.9071096833807,7280.631648156362 L 292.9071096833807,7280.631648156362" stroke="#DC2626" stroke-width="2" opacity="0.9"/>
  </g>
  <g id="stroke-group-hhtmk977xe-18" data-anchor-line="1" data-timestamp="2026-04-21T19:34:29Z">
    <path d="M 313.38221638663015,7268.786481371861 L 313.38221638663015,7268.786481371861 L 313.38221638663015,7268.786481371861 L 313.38221638663015,7268.786481371861 L 313.32603116471716,7276.288310168276 L 313.32603116471716,7279.95467131586 L 313.1563738279599,7283.33900468286 L 312.5923182667932,7289.318324132532 L 312.479947822967,7290.897569536697 L 312.25410526429687,7292.250972382192 L 311.85915620437834,7293.886953843779 L 311.85915620437834,7293.886953843779" stroke="#DC2626" stroke-width="2" opacity="0.9"/>
  </g>
  <g id="stroke-group-hhtmk977xe-19" data-anchor-line="1" data-timestamp="2026-04-21T19:34:29Z">
    <path d="M 309.49001268037637,7281.139518495615 L 309.49001268037637,7281.139518495615 L 314.56651273087664,7279.052402752197 L 317.0485775342138,7277.924291629864 L 319.1918784995455,7276.79618050753 L 323.0840822057992,7275.160199045943 L 324.6633276099643,7274.652879542198 L 325.45322572980115,7274.427036983528 L 326.63752207404775,7274.314115704193 L 326.919549854631,7274.257930482279 L 327.08865635587927,7274.201194424858 L 327.4274201938846,7274.257930482279 L 327.4274201938846,7274.257930482279" stroke="#DC2626" stroke-width="2" opacity="0.9"/>
  </g>
  <g id="stroke-group-hhtmk977xe-20" data-anchor-line="1" data-timestamp="2026-04-21T19:34:30Z">
    <path d="M 382.366101350216,7280.518726877027 L 382.366101350216,7280.518726877027 L 382.366101350216,7280.518726877027 L 382.366101350216,7280.518726877027 L 382.366101350216,7280.518726877027 L 382.366101350216,7280.518726877027 L 382.366101350216,7280.518726877027 L 382.366101350216,7280.518726877027 L 382.366101350216,7280.518726877027 L 381.68912450971425,7280.011407373282 L 379.2076105418861,7279.221509253445 L 377.9103929183045,7279.277694475358 L 376.4435179579657,7279.616458313363 L 374.46932349388214,7281.02659721628 L 373.6799762095542,7282.267629617949 L 373.84908271080235,7283.621032463443 L 374.0743744339637,7284.2418240820325 L 374.41313827196916,7284.749143585776 L 374.92045777571377,7285.369935204366 L 375.2024855562971,7285.595226927527 L 375.54124939430255,7285.764333428775 L 376.27441145671753,7285.87725470811 L 376.8384670178841,7285.821069486197 L 378.0794994195527,7285.313199146944 L 379.6587448237176,7284.298009303945 L 380.2228003848844,7283.846875022114 L 380.56101338738085,7283.508111184108 L 381.18180500596964,7282.944055622942 L 381.4070967291308,7282.71876389978 L 381.57675406588805,7282.549657398532 L 381.9149670683844,7282.549657398532 L 382.14080962705475,7283.226083403525 L 382.3099161283029,7285.313199146944 L 382.02788834771957,7290.051486194948 L 381.8020457890493,7292.081865880944 L 381.57675406588805,7294.056060345028 L 380.786855946051,7298.11737055253 L 380.3357216642195,7300.260671517861 L 379.7149300456307,7302.855657600533 L 378.86884670388065,7308.157449374195 L 378.30479114271407,7310.752435456867 L 377.74073558154726,7313.064842923447 L 376.4435179579657,7316.6182827916955 L 375.8232771748859,7317.746393914029 L 375.54124939430255,7318.085157752034 L 375.2024855562971,7318.367185532617 L 374.97719383313574,7318.423370754531 L 374.7513512744655,7318.367185532617 L 374.1311104913858,7317.746393914029 L 373.6799762095542,7316.957046629701 L 373.1159206483874,7315.377250390027 L 372.6080503091338,7310.470407676284 L 372.72097158846896,7307.988342872946 L 373.1721058703006,7305.50627806961 L 375.0901151124709,7300.711805799692 L 376.3873327360525,7298.850532614944 L 377.85365686088244,7297.102180709531 L 381.68912450971425,7294.1689816243625 L 383.8329763105547,7293.040870502029 L 386.1453837771347,7291.912759379696 L 391.05277732638683,7289.825643636277 L 393.19607829171855,7288.923375072614 L 395.1140875338889,7288.133476952777 L 398.2725783422188,7286.780074107282 L 399.4006894645522,7286.159282488694 L 400.1338515269671,7285.764333428775 L 400.97993486871724,7285.25701392503 L 401.2619626493006,7285.087907423782 L 401.600726487306,7284.862064865112 L 402.44680982905595,7284.18508802461 L 402.6721015522173,7283.9597963014485 L 402.95412933280056,7283.451925962196 L 403.01086539022265,7283.169898181612 L 402.95412933280056,7282.8878704010285 L 402.61591633030423,7282.2108935605265 L 401.82601821046717,7281.590652777447 L 399.62653202322247,7280.80075465761 L 398.2163931203057,7280.687833378275 L 397.03154594055025,7280.857490715032 L 394.77532369588346,7281.928865779943 L 393.4781060723018,7282.944055622942 L 392.68820795246484,7283.790138964691 L 391.8421246107148,7285.7081482068625 L 391.7297541668886,7286.3851250473635 L 391.7297541668886,7287.005365830444 L 391.95504589005,7287.964370451529 L 392.1808884487202,7288.415504733361 L 392.51910145121656,7288.923375072614 L 393.25226351363153,7289.430694576358 L 393.70394863097215,7289.656537135029 L 394.21126813471676,7289.825643636277 L 395.7343283169687,7289.994750137525 L 396.80625421738887,7289.8823796936995 L 397.7647080029652,7289.656537135029 L 400.5288005868856,7287.795263950281 L 401.600726487306,7286.3851250473635 L 403.12323583404884,7283.677768520865 L 403.63110617330256,7282.380000061775 L 403.9693191757989,7281.308624996864 L 404.4210042931394,7279.898486093947 L 404.59011079438767,7279.503537034028 L 404.75921729563595,7279.165324031532 L 405.21035157746746,7278.544532412943 L 405.4361941361377,7278.3192406897815 L 405.661485859299,7278.149583353024 L 406.1693561985527,7278.206319410447 L 406.50756920104914,7278.6012684703655 L 406.9592543183895,7280.236699096443 L 406.9592543183895,7284.3541945258585 L 406.4513839791359,7286.328388989941 L 406.0564349192175,7287.964370451529 L 405.5491154154729,7290.220592696196 L 405.26708763488955,7290.897569536697 L 405.15416635555437,7291.235782539194 L 405.0412450762192,7291.743652878447 L 404.9283237968841,7292.138601938366 L 404.8721385749709,7292.420629718949 L 404.8721385749709,7292.476814940863 L 404.8721385749709,7292.533000162775 L 404.81540251754893,7292.420629718949 L 404.81540251754893,7292.250972382192 L 404.81540251754893,7291.968944601609 L 405.0412450762192,7290.333513975531 L 405.37945807871574,7288.754268571366 L 405.77440713863416,7287.1744723316915 L 406.6772265378063,7284.580037084528 L 407.0716247622157,7283.621032463443 L 407.46657382213425,7282.774949121694 L 408.4255784432195,7281.64683799936 L 408.876712725051,7281.308624996864 L 409.2154765630564,7281.139518495615 L 410.0048238473844,7280.857490715032 L 410.455958129216,7280.80075465761 L 410.9076432465564,7280.80075465761 L 412.148124812716,7281.02659721628 L 412.7689164313048,7281.364810218776 L 413.44589327180654,7281.87268055803 L 414.2919766135567,7282.8878704010285 L 414.57400439414005,7283.395740740282 L 414.7992961173013,7284.128902802697 L 414.9684026185496,7285.539041705613 L 414.9684026185496,7286.046361209358 L 414.9684026185496,7286.498046326699 L 414.9684026185496,7287.231208389114 L 414.9684026185496,7287.56942139161 L 414.9122173966365,7287.8514491721935 L 414.9122173966365,7288.246398232112 L 414.9122173966365,7288.359319511447 L 414.9122173966365,7288.415504733361 L 414.9122173966365,7288.302583454025 L 414.9684026185496,7288.133476952777 L 415.0813238978848,7287.682342670945 L 415.81448596029963,7285.313199146944 L 416.096513740883,7284.580037084528 L 416.77349058138486,7283.451925962196 L 417.33754614255145,7282.831685179115 L 418.2403655417237,7282.267629617949 L 418.7476850454683,7282.041787059278 L 419.3684766640571,7281.87268055803 L 421.22974984880534,7281.815944500609 L 422.18875446989057,7282.041787059278 L 422.86518047488335,7282.323814839861 L 424.1062128765519,7283.33900468286 L 424.55734715838355,7283.9597963014485 L 425.00903227572405,7284.862064865112 L 425.46016655755557,7286.610416770525 L 425.62927305880385,7287.795263950281 L 425.62927305880385,7289.148666795775 L 425.00903227572405,7291.743652878447 L 424.55734715838355,7292.7026574995325 L 424.55734715838355,7292.7026574995325" stroke="#DC2626" stroke-width="2" opacity="0.9"/>
  </g>
  <g id="stroke-group-hhtmk977xe-21" data-anchor-line="1" data-timestamp="2026-04-21T19:34:31Z">
    <path d="M 437.0233055614731,7285.651962984949 L 437.0233055614731,7285.651962984949 L 437.0233055614731,7285.651962984949 L 437.0233055614731,7285.651962984949 L 437.0233055614731,7285.651962984949 L 437.4744398433045,7284.918250087025 L 438.0384954044713,7283.9597963014485 L 438.1514166838065,7283.508111184108 L 438.26433796314143,7283.056976902277 L 438.20760190571946,7282.097972281192 L 438.0946806263844,7281.703574056782 L 437.81265284580104,7281.308624996864 L 436.233407441636,7280.518726877027 L 435.44406015730806,7280.857490715032 L 434.99237503996756,7281.590652777447 L 434.93618981805434,7283.451925962196 L 435.2744028205509,7286.272203768029 L 435.6131666585562,7289.092481573862 L 436.3463287209711,7290.164407474283 L 437.3053333420563,7291.122861259859 L 440.3509028710512,7292.476814940863 L 442.7767824524751,7292.8150279433585 L 445.54032420088663,7292.871764000781 L 450.72974553072197,7292.589736220198 L 453.15507427663715,7292.250972382192 L 454.9039770175593,7291.686916821025 L 457.160199262226,7290.615541756114 L 457.55459748663566,7290.333513975531 L 457.7804400453058,7290.164407474283 L 457.7804400453058,7290.164407474283" stroke="#DC2626" stroke-width="2" opacity="0.9"/>
  </g>
  <g id="stroke-group-hhtmk977xe-22" data-anchor-line="1" data-timestamp="2026-04-21T19:34:32Z">
    <path d="M 505.38694974197904,7283.2828194609465 L 505.38694974197904,7283.2828194609465 L 505.38694974197904,7283.2828194609465 L 505.38694974197904,7283.2828194609465 L 505.49932018580523,7284.2418240820325 L 505.6122414651403,7284.918250087025 L 505.78134796638847,7285.539041705613 L 506.2892183056422,7286.554231548612 L 506.5712460862254,7287.0621018878655 L 506.96619514614406,7287.513236169697 L 507.6993572085588,7288.359319511447 L 508.20722754781264,7288.64134729203 L 508.8274683308923,7288.923375072614 L 510.3505285131441,7289.148666795775 L 512.5500147003889,7288.64134729203 L 514.0730748826409,7287.400314890362 L 514.6371304438076,7286.554231548612 L 514.9191582243909,7285.821069486197 L 515.2579220623962,7283.790138964691 L 515.3141072843094,7283.395740740282 L 515.3141072843094,7282.662027842358 L 515.3141072843094,7282.323814839861 L 515.3141072843094,7282.041787059278 L 515.3141072843094,7281.64683799936 L 515.3141072843094,7281.590652777447 L 515.3141072843094,7281.703574056782 L 515.5399498429797,7283.9597963014485 L 515.878162845476,7285.539041705613 L 516.3292971273077,7286.892444551108 L 517.7961720876465,7289.374509354446 L 518.8113619306448,7290.389699197443 L 519.9394730529782,7291.179597317281 L 522.7597508588117,7292.194787160279 L 525.580028664645,7292.476814940863 L 528.0053574105602,7292.138601938366 L 529.0205472535584,7291.799838100361 L 529.8666305953085,7291.404889040442 L 530.8818204383067,7290.558805698692 L 531.3335055556473,7289.938564915612 L 531.6717185581438,7289.148666795775 L 531.5026120568955,7286.3851250473635 L 530.8256352163937,7284.580037084528 L 529.5846028147251,7282.49292134111 L 527.2721953481453,7278.826560193526 L 526.2002694477248,7277.247314789362 L 525.0721583253915,7275.837175886445 L 522.5906443575634,7273.862981422361 L 521.7445610158134,7273.298925861194 L 521.2366906765598,7272.960712858698 L 520.8417416166413,7272.734870300028 L 520.672635115393,7272.6786850781145 L 520.5035286141448,7272.621949020693 L 520.2776860554745,7272.621949020693 L 520.2776860554745,7272.903976801276 L 521.3496119558949,7274.03208792361 L 522.5339083001413,7274.709064764112 L 523.8878619811451,7275.442226826526 L 526.31319072706,7276.288310168276 L 527.2154592907232,7276.401231447611 L 527.949172188647,7276.514152726946 L 528.8514407523102,7276.57033794886 L 529.2463898122287,7276.57033794886 L 529.6413388721472,7276.57033794886 L 530.5436074358104,7276.457416669525 L 530.9385564957288,7276.401231447611 L 531.3335055556473,7276.401231447611 L 532.1228528399753,7276.457416669525 L 532.4616166779807,7276.57033794886 L 532.7998296804772,7276.79618050753 L 533.532991742892,7277.755185128615 L 533.8717555808975,7278.6012684703655 L 534.1537833614808,7280.011407373282 L 533.9841260247237,7283.677768520865 L 533.7020982441403,7286.949180608531 L 533.5897278003141,7288.979560294527 L 533.532991742892,7289.712722356942 L 533.5897278003141,7290.333513975531 L 533.8150195234755,7291.292518596616 L 533.9841260247237,7291.686916821025 L 534.1537833614808,7292.081865880944 L 534.1537833614808,7292.081865880944" stroke="#DC2626" stroke-width="2" opacity="0.9"/>
  </g>
  <g id="stroke-group-hhtmk977xe-23" data-anchor-line="1" data-timestamp="2026-04-21T19:34:32Z">
    <path d="M 538.7785982946406,7273.41184714053 L 538.7785982946406,7273.41184714053 L 538.7785982946406,7273.41184714053 L 538.7785982946406,7273.41184714053 L 538.7785982946406,7273.41184714053 L 538.7785982946406,7273.41184714053 L 538.7785982946406,7273.41184714053 L 538.7785982946406,7273.41184714053 L 538.7785982946406,7273.41184714053 L 538.7785982946406,7273.41184714053 L 538.7785982946406,7273.41184714053 L 538.7785982946406,7273.41184714053 L 538.7785982946406,7273.41184714053 L 538.7785982946406,7273.41184714053 L 538.7785982946406,7273.41184714053 L 538.7785982946406,7273.41184714053 L 538.7785982946406,7273.41184714053 L 538.7785982946406,7273.41184714053" stroke="#DC2626" stroke-width="2" opacity="0.9"/>
  </g>
  <g id="stroke-group-hhtmk977xe-24" data-anchor-line="1" data-timestamp="2026-04-21T19:34:33Z">
    <path d="M 538.8915195739758,7273.242740639282 L 538.8915195739758,7273.242740639282 L 538.8915195739758,7273.242740639282 L 538.8915195739758,7273.242740639282 L 538.8915195739758,7273.242740639282 L 538.8915195739758,7273.242740639282 L 538.8915195739758,7273.242740639282 L 538.8915195739758,7273.242740639282 L 538.8915195739758,7273.242740639282 L 538.8915195739758,7273.242740639282 L 538.8915195739758,7273.242740639282 L 538.8915195739758,7273.242740639282 L 538.8915195739758,7273.242740639282 L 538.8915195739758,7273.242740639282 L 538.8915195739758,7273.242740639282 L 538.8915195739758,7273.242740639282 L 538.8915195739758,7273.242740639282" stroke="#DC2626" stroke-width="2" opacity="0.9"/>
  </g>
  <g id="stroke-group-hhtmk977xe-25" data-anchor-line="1" data-timestamp="2026-04-21T19:34:33Z">
    <path d="M 548.0855150538912,7264.668985942446 L 548.0855150538912,7264.668985942446 L 548.0855150538912,7264.668985942446 L 549.4394687348948,7270.929782337193 L 549.9473390741484,7274.314115704193 L 550.5113946353151,7277.473157348031 L 551.4136631989783,7283.33900468286 L 551.2445566977301,7285.200277867609 L 550.7934224158985,7286.949180608531 L 549.2136261762246,7289.938564915612 L 549.2136261762246,7289.938564915612" stroke="#DC2626" stroke-width="2" opacity="0.9"/>
  </g>
  <g id="stroke-group-hhtmk977xe-26" data-anchor-line="1" data-timestamp="2026-04-21T19:34:33Z">
    <path d="M 539.6814176938127,7286.836259329196 L 539.6814176938127,7286.836259329196 L 539.6814176938127,7286.836259329196 L 547.2961677695632,7283.056976902277 L 549.6653112935652,7281.703574056782 L 553.6137002217321,7279.165324031532 L 555.3620521271453,7277.755185128615 L 556.7160058081488,7276.401231447611 L 558.0694086536436,7273.862981422361 L 558.408172491649,7272.621949020693 L 558.8025707160585,7271.437652676446 L 559.254255833399,7269.688749935524 L 559.3666262772251,7269.068509152445 L 559.4233623346472,7268.673560092526 L 559.3104410553121,7267.996583252024 L 559.197519775977,7267.714555471441 L 559.0845984966418,7267.489263748279 L 558.7463854941454,7266.981393409025 L 558.5205429354752,7266.981393409025 L 557.3924318131418,7268.391532311943 L 556.4339780275654,7271.944972180191 L 555.5878946858154,7275.95009716578 L 555.4182373490582,7278.037212909198 L 555.3620521271453,7280.123777817108 L 555.3620521271453,7283.226083403525 L 555.5878946858154,7284.580037084528 L 555.6440799077286,7285.313199146944 L 555.8131864089768,7286.216018546115 L 555.8699224663989,7286.441310269277 L 555.982292910225,7286.667152827948 L 556.2643206908084,7287.005365830444 L 556.3772419701435,7286.949180608531 L 556.6592697507268,7286.554231548612 L 556.8851123093971,7285.87725470811 L 557.2233253118936,7284.862064865112 L 558.1823299329787,7282.323814839861 L 558.6334642148103,7281.308624996864 L 559.197519775977,7280.236699096443 L 560.2127096189753,7278.883296250949 L 560.7205799582289,7278.431611133608 L 561.3975567987308,7278.093398131112 L 562.8638809235605,7277.64226384928 L 563.6537790433974,7277.529342569945 L 564.5560476070607,7277.585527791858 L 566.6993485723924,7278.149583353024 L 567.6021679715644,7278.770374971613 L 568.2791448120662,7279.447351812115 L 569.3505198769776,7281.308624996864 L 569.6892837149829,7282.380000061775 L 569.9713114955664,7283.846875022114 L 570.0274967174794,7287.400314890362 L 569.8016541588091,7288.923375072614 L 569.4072559343996,7290.333513975531 L 568.3915152558924,7292.758842721446 L 567.7712744728126,7293.943139065692 L 567.7712744728126,7293.943139065692" stroke="#DC2626" stroke-width="2" opacity="0.9"/>
  </g>
  <g id="stroke-group-hhtmk977xe-27" data-anchor-line="1" data-timestamp="2026-04-21T19:34:34Z">
    <path d="M 578.9962004742335,7277.755185128615 L 578.9962004742335,7277.755185128615 L 578.9962004742335,7277.755185128615 L 578.8265431374764,7279.95467131586 L 578.9394644168116,7282.041787059278 L 579.3905986986431,7285.200277867609 L 579.7855477585616,7286.328388989941 L 580.0113903172319,7287.005365830444 L 580.5754458783986,7287.8514491721935 L 580.9136588808949,7288.246398232112 L 581.3647931627265,7288.5284260126955 L 582.1546912825635,7288.923375072614 L 582.7749320656433,7289.036296351949 L 583.6777514648154,7288.810453793279 L 585.5952098714769,7286.554231548612 L 585.821052430147,7285.426120426278 L 585.3699181483155,7282.041787059278 L 584.9187838664839,7280.405805597691 L 584.2979922478952,7278.770374971613 L 582.8316681230654,7275.724254607109 L 582.3237977838118,7274.709064764112 L 581.9855847813153,7273.975902701696 L 581.4215292201485,7273.186004581859 L 581.3647931627265,7273.016898080611 L 581.2524227189003,7272.7910555219405 L 581.2524227189003,7272.734870300028 L 581.2524227189003,7272.6786850781145 L 581.4777144420617,7272.7910555219405 L 581.703557000732,7272.960712858698 L 582.0985060606505,7273.186004581859 L 583.2828024048969,7273.862981422361 L 584.18507096856,7274.427036983528 L 585.0878903677323,7275.10401382403 L 587.0053487743936,7276.909101786865 L 588.133459896727,7278.375425911695 L 588.8671727946509,7279.672643535277 L 589.2615710190604,7280.4625416551135 L 589.6003348570657,7281.195703717529 L 590.2773116975676,7282.944055622942 L 590.4464181988158,7283.508111184108 L 590.615524700064,7284.072166745275 L 590.9537377025605,7285.087907423782 L 591.1233950393176,7285.595226927527 L 591.3486867624789,7286.046361209358 L 591.8565571017325,7286.892444551108 L 592.138584882316,7287.231208389114 L 592.4206126628993,7287.513236169697 L 593.0408534459791,7287.8514491721935 L 593.3796172839844,7287.964370451529 L 593.6616450645679,7287.964370451529 L 594.3380710695607,7287.795263950281 L 594.6768349075661,7287.56942139161 L 595.0150479100624,7287.231208389114 L 595.8049460298995,7285.933990765532 L 596.4819228704014,7283.790138964691 L 596.7072145935626,7282.436736119197 L 596.7639506509846,7281.87268055803 L 596.8201358728978,7281.364810218776 L 596.8201358728978,7280.405805597691 L 596.8201358728978,7280.011407373282 L 596.8201358728978,7279.672643535277 L 596.8201358728978,7279.33443053278 L 596.7639506509846,7279.33443053278 L 596.6510293716495,7279.559722255942 L 596.3690015910662,7282.041787059278 L 596.4251868129793,7283.790138964691 L 596.5942933142276,7285.144092645695 L 597.1021636534812,7287.287393611027 L 597.3280062121514,7287.964370451529 L 597.5532979353128,7288.472240790782 L 598.0611682745664,7289.148666795775 L 598.5123025563979,7289.543615855694 L 598.9072516163163,7289.825643636277 L 599.9224414593145,7290.276777918109 L 600.5426822423943,7290.389699197443 L 601.7837146440629,7290.446435254866 L 604.4910711705613,7289.600351913115 L 605.7888396296519,7288.754268571366 L 607.1989785325686,7287.287393611027 L 608.8344091586467,7283.790138964691 L 609.3422794979003,7281.815944500609 L 609.793413779732,7279.898486093947 L 610.3012841189856,7275.555148105861 L 610.5833118995689,7273.693874921113 L 610.6956823433951,7272.114629516948 L 611.0906314033135,7270.196620274777 L 611.1473674607355,7269.8584072722815 L 611.2035526826487,7269.632564713611 L 611.3164739619838,7269.350536933028 L 611.3164739619838,7269.294351711114 L 611.485580463232,7269.688749935524 L 611.7114230219023,7270.534833277274 L 612.1625573037338,7272.621949020693 L 612.9519045880619,7277.585527791858 L 613.2339323686452,7279.95467131586 L 613.4597749273155,7282.154708338614 L 614.1929369897305,7286.441310269277 L 614.756992550897,7288.190213010199 L 615.0957563889025,7289.600351913115 L 615.4339693913989,7291.574546377199 L 615.4339693913989,7292.138601938366 L 615.4339693913989,7292.533000162775 L 615.4339693913989,7292.871764000781 L 615.4339693913989,7292.871764000781" stroke="#DC2626" stroke-width="2" opacity="0.9"/>
  </g>
  <g id="stroke-group-hhtmk977xe-28" data-anchor-line="1" data-timestamp="2026-04-21T19:34:34Z">
    <path d="M 605.11186278915,7278.544532412943 L 605.11186278915,7278.544532412943 L 607.481006313152,7277.980476851776 L 610.3574693408985,7277.41642129061 L 616.7311870149806,7276.232124946363 L 619.3261730976527,7275.668069385197 L 621.3003675617362,7275.329305547191 L 624.6279648713144,7274.87817126536 L 624.9099926518977,7274.87817126536 L 625.1920204324811,7274.991092544695 L 625.1920204324811,7275.10401382403 L 625.079099153146,7275.273120325278 L 625.079099153146,7275.273120325278" stroke="#DC2626" stroke-width="2" opacity="0.9"/>
  </g>
  <g id="stroke-group-hhtmk977xe-29" data-anchor-line="1" data-timestamp="2026-04-21T19:34:35Z">
    <path d="M 659.1482753818183,7254.7980136220285 L 659.1482753818183,7254.7980136220285 L 659.1482753818183,7254.7980136220285 L 659.8814374442333,7257.843583151023 L 660.3325717260648,7260.720597014279 L 660.6713355640701,7263.540874820113 L 660.9533633446536,7269.124694374357 L 660.7275207859833,7272.114629516948 L 660.0505439454814,7277.247314789362 L 659.6561457210719,7279.841750036525 L 659.2611966611535,7281.985601837366 L 658.3021920400683,7285.7081482068625 L 657.9072429801497,7287.118287109779 L 657.5690299776534,7288.077291730864 L 657.1740809177348,7289.148666795775 L 657.0611596383998,7289.318324132532 L 656.8358679152384,7289.543615855694 L 656.7229466359032,7289.543615855694 L 656.6100253565681,7289.487430633781 L 656.2718123540717,7288.697532513944 L 656.1588910747366,7288.020555673442 L 656.2150762966496,7286.046361209358 L 656.44091885532,7285.144092645695 L 656.9482383590646,7284.2418240820325 L 658.5280345987385,7282.436736119197 L 660.0505439454814,7281.477731498112 L 661.8556319083167,7280.969861158858 L 665.3528865546521,7280.687833378275 L 667.3270810187355,7280.80075465761 L 669.3012754828189,7281.139518495615 L 672.5165023485708,7281.815944500609 L 673.9828264734008,7282.267629617949 L 675.054752373821,7282.774949121694 L 675.9570209374842,7283.33900468286 L 676.1261274387324,7283.508111184108 L 676.1828634961545,7283.733953742779 L 676.1828634961545,7284.298009303945 L 675.9570209374842,7284.805879643199 L 675.1676736531562,7285.821069486197 L 670.993442166319,7287.964370451529 L 668.568113420404,7288.697532513944 L 666.3680763976504,7289.318324132532 L 662.0247384095649,7290.389699197443 L 660.2202012822387,7290.671726978027 L 658.5842198206516,7290.728463035449 L 656.3841827978979,7290.728463035449 L 655.763942014818,7290.671726978027 L 655.4819142342348,7290.615541756114 L 655.1437012317382,7290.502620476779 L 655.0307799524032,7290.446435254866 L 654.9740438949812,7290.389699197443 L 654.9740438949812,7290.276777918109 L 654.9740438949812,7290.276777918109" stroke="#DC2626" stroke-width="2" opacity="0.9"/>
  </g>
  <g id="stroke-group-hhtmk977xe-30" data-anchor-line="1" data-timestamp="2026-04-21T19:34:35Z">
    <path d="M 680.3565441474827,7284.523851862616 L 680.3565441474827,7284.523851862616 L 680.3565441474827,7284.523851862616 L 680.3565441474827,7284.523851862616 L 682.5565811702364,7283.169898181612 L 685.7718080359884,7281.02659721628 L 686.8999191583217,7280.011407373282 L 688.0280302806551,7279.1085879741095 L 689.4943544054851,7277.64226384928 L 689.8331182434905,7277.247314789362 L 690.0022247447387,7276.852365729443 L 690.2275164678999,7276.006282387693 L 690.2275164678999,7275.386041604614 L 690.0022247447387,7274.87817126536 L 688.1409515599903,7273.41184714053 L 686.9561043802349,7273.186004581859 L 685.7150719785664,7273.129819359947 L 683.797613571905,7273.4680323624425 L 682.7824237289067,7274.088823981032 L 681.5413913272381,7275.329305547191 L 680.0745163668993,7278.262504632359 L 679.8492246437381,7279.898486093947 L 679.9054098656511,7281.5339167200245 L 680.4132802049047,7284.410930583281 L 681.428470047903,7286.554231548612 L 684.8128034149032,7289.036296351949 L 686.22294231782,7289.600351913115 L 688.9302988443184,7290.10767141686 L 690.6792015852404,7289.8823796936995 L 692.653396049324,7289.600351913115 L 696.9399979799873,7288.133476952777 L 697.6731600424022,7287.626157449033 L 699.0271137234059,7286.328388989941 L 699.8731970651559,7285.087907423782 L 700.7754656288191,7283.508111184108 L 702.1856045317359,7280.236699096443 L 702.5805535916543,7278.770374971613 L 702.8063961503246,7277.078208288113 L 703.144609152821,7274.596143484776 L 703.2007943747341,7273.862981422361 L 703.2007943747341,7273.4680323624425 L 703.2007943747341,7272.960712858698 L 703.2007943747341,7272.621949020693 L 703.2007943747341,7272.509027741357 L 703.144609152821,7272.56576379878 L 703.088423930908,7272.903976801276 L 702.8063961503246,7275.160199045943 L 702.5805535916543,7276.79618050753 L 702.4676323123192,7278.6012684703655 L 702.6367388135674,7281.703574056782 L 702.6934748709895,7283.113712959699 L 702.8063961503246,7284.410930583281 L 703.0316878734859,7286.328388989941 L 703.144609152821,7287.005365830444 L 703.2575304321562,7287.682342670945 L 703.3704517114912,7288.697532513944 L 703.3704517114912,7288.697532513944" stroke="#DC2626" stroke-width="2" opacity="0.9"/>
  </g>
  <g id="stroke-group-hhtmk977xe-31" data-anchor-line="1" data-timestamp="2026-04-21T19:34:36Z">
    <path d="M 705.9087017367414,7271.944972180191 L 705.9087017367414,7271.944972180191 L 705.9087017367414,7271.944972180191 L 705.9087017367414,7271.944972180191 L 705.9087017367414,7274.765249986024 L 705.9087017367414,7274.765249986024" stroke="#DC2626" stroke-width="2" opacity="0.9"/>
  </g>
  <g id="stroke-group-hhtmk977xe-32" data-anchor-line="1" data-timestamp="2026-04-21T19:34:36Z">
    <path d="M 712.3386046327364,7280.518726877027 L 712.3386046327364,7280.518726877027 L 712.3386046327364,7280.518726877027 L 712.3386046327364,7280.518726877027 L 712.3386046327364,7280.518726877027 L 712.3953406901585,7281.195703717529 L 712.4515259120716,7281.815944500609 L 712.4515259120716,7282.323814839861 L 712.3953406901585,7283.000791680363 L 712.3953406901585,7283.169898181612 L 712.4515259120716,7283.169898181612 L 712.6206324133199,7282.944055622942 L 712.789738914568,7282.605842620445 L 713.1846879744866,7281.87268055803 L 714.8768546579867,7280.067592595195 L 715.948780558407,7279.559722255942 L 717.0768916807403,7279.1085879741095 L 720.8561741076591,7278.657453692278 L 721.645521391987,7278.7136389141915 L 722.6607112349853,7278.826560193526 L 723.1123963523258,7278.939481472862 L 723.5635306341574,7278.995666694775 L 724.747826978404,7279.277694475358 L 725.0865908164094,7279.559722255942 L 725.7630168214022,7280.575462934448 L 726.0450446019855,7281.251888939441 L 726.3270723825689,7282.267629617949 L 726.7220214424874,7284.523851862616 L 726.7787574999094,7285.482305648192 L 726.8349427218225,7286.216018546115 L 727.0040492230708,7287.344129668449 L 727.0040492230708,7287.344129668449" stroke="#DC2626" stroke-width="2" opacity="0.9"/>
  </g>
  <g id="stroke-group-hhtmk977xe-33" data-anchor-line="1" data-timestamp="2026-04-21T19:34:36Z">
    <path d="M 737.3828918827415,7280.575462934448 L 737.3828918827415,7280.575462934448 L 737.3828918827415,7280.575462934448 L 737.3828918827415,7280.575462934448 L 737.3828918827415,7280.575462934448 L 737.3828918827415,7280.575462934448 L 737.3828918827415,7280.575462934448 L 737.3828918827415,7280.575462934448 L 737.3828918827415,7280.575462934448 L 736.4800724835695,7280.518726877027 L 736.0289382017379,7280.518726877027 L 735.6339891418195,7280.575462934448 L 734.1114797950765,7280.913675936945 L 733.4906881764878,7281.308624996864 L 731.4603084904912,7282.831685179115 L 731.1215446524858,7283.169898181612 L 730.7833316499895,7283.903060244027 L 730.6704103706543,7284.2418240820325 L 730.5574890913191,7284.636222306442 L 730.445118647493,7285.369935204366 L 730.445118647493,7285.764333428775 L 730.5013038694061,7286.159282488694 L 730.7271464280763,7286.780074107282 L 731.0091742086597,7287.1744723316915 L 731.2912019892431,7287.56942139161 L 732.137285330993,7288.472240790782 L 732.4193131115765,7288.64134729203 L 733.2653964533264,7288.810453793279 L 733.5474242339099,7288.697532513944 L 734.3935075756598,7288.020555673442 L 734.6755353562432,7287.56942139161 L 735.3519613612361,7286.159282488694 L 735.5778039199064,7285.7081482068625 L 736.1418594810731,7284.523851862616 L 736.3109659823214,7284.2418240820325 L 736.818836321575,7283.733953742779 L 737.0441280447361,7283.790138964691 L 738.0598687232434,7285.764333428775 L 738.5671882269882,7287.513236169697 L 738.8492160075715,7289.2054028531975 L 739.0183225088197,7291.912759379696 L 738.9621372869066,7293.322898282612 L 738.7362947282363,7294.789222407442 L 737.7778409426601,7297.891527993859 L 737.0441280447361,7299.696615956695 L 736.3677020397433,7301.896652979448 L 734.5626140769082,7306.127069688198 L 733.603609455823,7307.706315092363 L 732.6446048347378,7309.11645399528 L 730.3883825900709,7311.203569738699 L 729.2040862458244,7311.823810521779 L 727.7939473429077,7312.162574359784 L 724.070850137902,7312.162574359784 L 722.2663130105758,7311.6547040205305 L 720.3483037684055,7310.695699399445 L 718.8252435861535,7309.511403055199 L 718.8252435861535,7309.511403055199" stroke="#DC2626" stroke-width="2" opacity="0.9"/>
  </g>
  <g id="stroke-group-hhtmk977xe-34" data-anchor-line="1" data-timestamp="2026-04-21T19:34:36Z">
    <path d="M 702.0726832524007,7261.904893358525 L 702.0726832524007,7261.904893358525 L 702.0726832524007,7261.904893358525 L 702.0726832524007,7261.904893358525 L 702.0726832524007,7261.904893358525" stroke="#DC2626" stroke-width="2" opacity="0.9"/>
  </g>
  <g id="stroke-group-hhtmk977xe-35" data-anchor-line="1" data-timestamp="2026-04-21T19:34:37Z">
    <path d="M 770.8874617147383,7272.226999960774 L 770.8874617147383,7272.226999960774 L 770.8874617147383,7272.226999960774" stroke="#DC2626" stroke-width="2" opacity="0.9"/>
  </g>
  <g id="stroke-group-hhtmk977xe-36" data-anchor-line="1" data-timestamp="2026-04-21T19:34:37Z">
    <path d="M 771.0571190514954,7272.170814738861 L 771.0571190514954,7272.170814738861 L 771.0571190514954,7272.170814738861 L 771.0571190514954,7272.170814738861 L 771.0571190514954,7272.170814738861 L 771.0571190514954,7272.170814738861 L 771.0571190514954,7272.170814738861 L 771.0571190514954,7272.170814738861 L 769.4211375899084,7272.847791579363 L 766.0929894448213,7276.739444450108 L 765.7547764423249,7278.037212909198 L 765.5856699410767,7279.672643535277 L 765.810961664238,7280.293435153865 L 766.1497255022433,7280.913675936945 L 768.293026467575,7282.49292134111 L 769.1391098093251,7282.605842620445 L 770.605433934155,7282.549657398532 L 772.1852301738288,7282.097972281192 L 773.9335820792421,7281.477731498112 L 776.5847533838273,7279.616458313363 L 777.8257857854959,7278.48834719103 L 778.8971608504073,7277.473157348031 L 781.4921469330794,7274.652879542198 L 782.1685729380724,7273.862981422361 L 783.0713923372444,7272.903976801276 L 783.2966840604057,7272.6786850781145 L 783.5787118409892,7272.509027741357 L 784.312424738913,7272.170814738861 L 784.5944525194964,7272.170814738861 L 785.4967210831595,7272.7910555219405 L 785.8916701430779,7273.355111083108 L 786.5119109261577,7274.87817126536 L 786.8506747641632,7276.739444450108 L 786.9068599860763,7277.924291629864 L 786.9068599860763,7278.431611133608 L 786.9068599860763,7278.939481472862 L 786.7939387067411,7279.898486093947 L 786.737753484828,7280.293435153865 L 786.6248322054929,7280.631648156362 L 786.3989896468225,7281.139518495615 L 786.2866192029965,7281.251888939441 L 786.1736979236613,7281.308624996864 L 785.9478553649911,7281.082782438193 L 785.7787488637427,7280.687833378275 L 785.6096423624946,7279.898486093947 L 785.6096423624946,7277.64226384928 L 785.834934085656,7276.345046225699 L 786.0607766443261,7275.329305547191 L 786.737753484828,7273.580953641778 L 787.0197812654113,7273.129819359947 L 788.0911563303227,7272.057893459526 L 788.7681331708245,7271.550573955781 L 789.6142165125747,7271.098888838441 L 791.7575174779063,7270.534833277274 L 792.8856286002397,7270.478648055361 L 793.901369278747,7270.591569334696 L 795.1418508449066,7271.098888838441 L 795.7626424634951,7271.550573955781 L 796.4958045259101,7272.396657297531 L 797.6239156482435,7275.216935103364 L 797.9059434288268,7276.965287008778 L 797.8497582069139,7278.7136389141915 L 797.2289665883251,7281.64683799936 L 796.8907535858286,7282.8878704010285 L 796.6087258052453,7284.072166745275 L 795.9317489647435,7286.046361209358 L 795.7626424634951,7286.554231548612 L 795.7626424634951,7286.554231548612" stroke="#DC2626" stroke-width="2" opacity="0.9"/>
  </g>
  <g id="stroke-group-hhtmk977xe-37" data-anchor-line="1" data-timestamp="2026-04-21T19:34:37Z">
    <path d="M 807.7207305273312,7253.105846938528 L 807.7207305273312,7253.105846938528 L 807.7207305273312,7253.105846938528 L 808.6791843129072,7255.926124744362 L 809.9202167145759,7261.058810016775 L 810.4842722757426,7263.597060042026 L 810.9354065575742,7266.0791248453625 L 810.9921426149963,7271.268546175198 L 810.5971935550776,7273.862981422361 L 810.2589805525813,7276.401231447611 L 809.4690824327442,7283.2828194609465 L 809.0179481509126,7285.200277867609 L 809.0179481509126,7285.200277867609" stroke="#DC2626" stroke-width="2" opacity="0.9"/>
  </g>
  <g id="stroke-group-hhtmk977xe-38" data-anchor-line="1" data-timestamp="2026-04-21T19:34:38Z">
    <path d="M 819.8479250924152,7268.391532311943 L 819.8479250924152,7268.391532311943 L 819.8479250924152,7268.391532311943 L 819.8479250924152,7268.391532311943 L 819.8479250924152,7271.775865678943 L 819.678267755658,7275.160199045943 L 819.3962399750746,7278.375425911695 L 818.6630779126597,7283.33900468286 L 818.6630779126597,7283.33900468286" stroke="#DC2626" stroke-width="2" opacity="0.9"/>
  </g>
  <g id="stroke-group-hhtmk977xe-39" data-anchor-line="1" data-timestamp="2026-04-21T19:34:38Z">
    <path d="M 828.0829159512455,7275.386041604614 L 828.0829159512455,7275.386041604614 L 828.0829159512455,7275.386041604614 L 828.0829159512455,7275.386041604614 L 828.0829159512455,7275.386041604614 L 828.0829159512455,7275.386041604614 L 828.0829159512455,7275.386041604614 L 828.0829159512455,7275.386041604614 L 828.0829159512455,7275.386041604614 L 828.0829159512455,7275.386041604614 L 828.0829159512455,7275.386041604614 L 828.0829159512455,7275.386041604614 L 828.0829159512455,7275.386041604614 L 829.436869632249,7274.539958262863 L 831.9751196574991,7273.242740639282 L 833.3852585604159,7272.6786850781145 L 835.1336104658292,7272.057893459526 L 837.8409669923276,7271.49383789836 L 839.0258141720831,7271.268546175198 L 840.0971892369944,7271.211810117776 L 841.7893559204945,7271.268546175198 L 842.4101475390833,7271.380916619024 L 842.97420310025,7271.606759177695 L 843.820286442,7272.170814738861 L 844.2714207238316,7272.6786850781145 L 844.7787402275762,7273.7500601430265 L 845.0045827862466,7277.64226384928 L 844.2146846664095,7281.082782438193 L 844.2146846664095,7281.082782438193" stroke="#DC2626" stroke-width="2" opacity="0.9"/>
  </g>
  <g id="stroke-group-hhtmk977xe-40" data-anchor-line="1" data-timestamp="2026-04-21T19:34:38Z">
    <path d="M 849.0658929937485,7279.616458313363 L 849.0658929937485,7279.616458313363 L 849.0658929937485,7279.616458313363 L 849.0658929937485,7279.616458313363 L 854.7064486054155,7276.288310168276 L 855.6087171690788,7275.724254607109 L 856.8497495707472,7274.87817126536 L 857.2446986306657,7274.539958262863 L 857.582911633162,7274.257930482279 L 858.0907819724159,7273.524768419865 L 858.0907819724159,7273.186004581859 L 857.9778606930806,7272.903976801276 L 857.0755921294174,7272.057893459526 L 856.1727727302455,7271.662944399608 L 854.7626338273287,7271.380916619024 L 850.0810828367469,7272.170814738861 L 848.7838652131652,7273.0730833025245 L 847.034962472243,7275.95009716578 L 846.9225920284168,7277.529342569945 L 847.8810458139931,7281.5339167200245 L 848.5580226544948,7282.380000061775 L 851.040087457832,7284.2418240820325 L 852.9575458644933,7284.974986144447 L 855.0446616079118,7285.426120426278 L 859.5571060972457,7285.426120426278 L 860.2340829377474,7285.313199146944 L 861.1930875588325,7284.974986144447 L 861.6442218406642,7284.580037084528 L 861.6442218406642,7284.580037084528" stroke="#DC2626" stroke-width="2" opacity="0.9"/>
  </g>
  <g id="stroke-group-hhtmk977xe-41" data-anchor-line="1" data-timestamp="2026-04-21T19:34:39Z">
    <path d="M 823.2322584594153,7258.182346989029 L 823.2322584594153,7258.182346989029 L 823.2322584594153,7258.182346989029 L 823.2322584594153,7258.182346989029" stroke="#DC2626" stroke-width="2" opacity="0.9"/>
  </g>
  <g id="stroke-group-hhtmk977xe-42" data-anchor-line="1" data-timestamp="2026-04-21T19:34:39Z">
    <path d="M 870.9511385999149,7269.294351711114 L 870.9511385999149,7269.294351711114 L 870.9511385999149,7269.294351711114 L 870.9511385999149,7269.294351711114" stroke="#DC2626" stroke-width="2" opacity="0.9"/>
  </g>
  <g id="stroke-group-hhtmk977xe-43" data-anchor-line="1" data-timestamp="2026-04-21T19:34:40Z">
    <path d="M 882.1193285439138,7265.966203566028 L 882.1193285439138,7265.966203566028 L 882.1193285439138,7265.966203566028 L 882.1193285439138,7265.966203566028 L 881.4423517034118,7265.853282286693 L 878.8479164562486,7264.781907221781 L 877.4939627752449,7263.879087822609 L 875.4073978673352,7261.397573854781 L 874.4483932462501,7259.47956461261 L 873.489388625165,7257.392448869192 L 872.643305283415,7251.638971978189 L 872.9253330639981,7249.890620072776 L 874.6736849694114,7246.675393207024 L 875.6326895904967,7246.111337645858 L 878.1709396157469,7245.265254304108 L 879.8069210773338,7245.152333024773 L 881.7243794839951,7245.491096862778 L 885.1654489084174,7246.78831448636 L 886.8576155919175,7247.972610830606 L 888.3239397167474,7249.8344348508635 L 890.2419489589179,7253.55698122036 L 890.6368980188363,7255.644096963779 L 890.7492684626625,7257.674476649775 L 890.6368980188363,7261.622865577942 L 890.1852129014956,7263.540874820113 L 889.4520508390806,7265.4021480048605 L 885.2216341303306,7271.550573955781 L 883.5294674468303,7274.1450092029445 L 880.4838979178355,7279.841750036525 L 879.0737590149188,7282.831685179115 L 877.8889118351635,7285.651962984949 L 877.8889118351635,7285.651962984949" stroke="#DC2626" stroke-width="2" opacity="0.9"/>
  </g>
  <g id="stroke-group-hhtmk977xe-44" data-anchor-line="1" data-timestamp="2026-04-21T19:34:40Z">
    <path d="M 879.8069210773338,7294.056060345028 L 879.8069210773338,7294.056060345028 L 879.8069210773338,7294.056060345028 L 879.8069210773338,7294.056060345028 L 879.8069210773338,7294.056060345028 L 879.8069210773338,7294.056060345028 L 879.8069210773338,7294.056060345028 L 879.8069210773338,7294.056060345028 L 879.8069210773338,7294.056060345028 L 879.8069210773338,7294.056060345028 L 879.8069210773338,7294.056060345028 L 879.8069210773338,7294.056060345028 L 879.8069210773338,7294.056060345028 L 879.8069210773338,7294.056060345028 L 879.8069210773338,7294.056060345028" stroke="#DC2626" stroke-width="2" opacity="0.9"/>
  </g>
</svg>
