<svg xmlns="http://www.w3.org/2000/svg" data-source-file="/data/user/0/com.praveen.gitmdannotations_tablet/app_flutter/repos/alvin4frnds/surri/jobs/pending/spec-003-pwa-offline-assets/02-spec.md" data-source-sha="cf8599b29470f8d18f2d39678b28a14d11c5dfaf">
  <g id="stroke-group-hhtl8uq5jt-0" data-anchor-line="1" data-timestamp="2026-04-21T18:42:33Z">
    <path d="M 186.24387256545208,429.3803544828177 L 186.24387256545208,429.3803544828177 L 182.97246047778697,428.13932208114915 L 179.5319418888737,427.12413223815093 L 163.9074926774543,425.0932017166454 L 157.8158027839557,425.1499377740674 L 136.6069831827823,425.99602111581754 L 128.5978348826223,426.50334061956215 L 112.29640883070107,427.8011090786527 L 103.44062635328208,428.75956286422894 L 95.71295499819644,429.88767398656233 L 73.0383621077022,435.5282295982294 L 67.22814915927802,438.1232156809015 L 56.51109349711072,443.8766925719037 L 51.20930172344907,447.0351833802336 L 46.64012117669341,450.5324380265691 L 37.446125696777955,461.3056789106494 L 35.697773791364796,465.14114655948123 L 33.94887105044262,473.09466047323707 L 33.89268582852952,477.04304940140395 L 34.40055616778315,480.82233182832266 L 36.99499141494641,487.36515600365277 L 39.2512136596132,490.35454031073454 L 42.74846830594856,493.2877393959032 L 52.562704568943786,498.47716072573866 L 63.956737071612906,502.48173487581863 L 77.4378853177007,504.9637996791558 L 85.10882061536427,505.8660682428188 L 92.10332990803494,506.3172025246503 L 108.00980690003769,505.8660682428188 L 116.47064031753825,504.9070636217336 L 125.04384417886496,503.2716329956556 L 142.52956657503267,498.1951329451553 L 150.87802954870705,494.8669848000682 L 159.84618246995223,491.36973015373286 L 176.26052980120863,484.0370078585658 L 183.59325209637575,479.80659114981546 L 191.0950808927911,475.2379614385688 L 203.95543752029005,465.818123399983 L 209.14485885012556,461.3056789106494 L 213.88259506262045,457.0190769799861 L 221.44115991645782,449.00937784431716 L 224.14851644295624,445.2868314748204 L 225.6715766252081,441.95868332973333 L 225.50247012395988,436.2052064387312 L 221.10294691396138,432.42592401181247 L 212.58537743903884,430.1135165452326 L 207.84764122654389,429.5494609840659 L 201.86832177687148,429.26743320348254 L 188.16188180762248,429.3803544828177 L 181.7314280761185,429.77530354273625 L 175.41444645945853,430.39554432581605 L 162.38443249520242,432.5955813485696 L 156.46184910295204,433.8927989721513 L 151.9494046136184,435.5282295982294 L 145.06781660028287,439.58953980573136 L 142.13516835062313,441.95868332973333 L 139.99131654978254,444.49693335498347 L 138.35588592370448,447.2042898814819 L 138.35588592370448,447.2042898814819" stroke="#FCD34D" stroke-width="2" opacity="0.9"/>
  </g>
  <g id="stroke-group-hhtl8uq5jt-1" data-anchor-line="1" data-timestamp="2026-04-21T18:42:34Z">
    <path d="M 213.48819683821097,474.84301237865026 L 213.48819683821097,474.84301237865026 L 223.64119693921157,472.0227345728168 L 227.53284980995642,471.00754472981845 L 236.6144748460457,469.0895354876481 L 239.9420721556238,468.4692947045683 L 247.89558606937976,467.67939658473136 L 251.84397499754664,467.4541048615701 L 251.84397499754664,467.4541048615701" stroke="#FCD34D" stroke-width="2" opacity="0.9"/>
  </g>
  <g id="stroke-group-hhtl8uq5jt-2" data-anchor-line="1" data-timestamp="2026-04-21T18:42:35Z">
    <path d="M 303.00337372695935,448.107109280654 L 303.00337372695935,448.107109280654 L 303.1162950062944,452.111683430734 L 303.3421375649647,456.9061557006509 L 303.3421375649647,467.9052391434016 L 303.56742928812605,471.2333872884887 L 303.96237834804447,474.1660355381484 L 304.52643390921116,478.79140130681714 L 305.14722552779995,480.7094105489875 L 305.8803875902148,482.2324707312394 L 307.1214199918834,485.108933758986 L 308.0798737774596,486.2932301032326 L 309.54674873779845,487.36515600365277 L 311.4080219225467,487.98539678673257 L 311.4080219225467,487.98539678673257" stroke="#FCD34D" stroke-width="2" opacity="0.9"/>
  </g>
  <g id="stroke-group-hhtl8uq5jt-3" data-anchor-line="1" data-timestamp="2026-04-21T18:42:35Z">
    <path d="M 329.7960128823777,464.35179927515316 L 329.7960128823777,464.35179927515316 L 329.7960128823777,464.35179927515316 L 328.6117165381311,466.2130724599015 L 327.4836054157977,468.30018820332015 L 326.2425730141292,471.2895725104019 L 325.9043600116328,472.58679013398347 L 325.6785174529625,473.65871603440377 L 325.9605452335459,475.51998921915214 L 326.2993090715512,476.14023000223193 L 327.4274201938846,476.93012812206877 L 330.1909619422961,477.889132743154 L 331.6578369026349,477.889132743154 L 333.23708230679995,477.4379984613225 L 338.3697675792133,474.22277159557046 L 339.6669852027949,472.9255539719888 L 341.2467814424689,470.3305678893167 L 342.03612872679685,468.9771650438219 L 342.65692034538563,467.397368804148 L 343.61537413096175,463.90066499332164 L 344.06705924830237,462.3776048110697 L 344.3490870288857,461.08038718748804 L 344.63111480946895,458.93653538664756 L 344.80022131071735,458.1471881023195 L 344.9131425900524,457.6393177630659 L 345.1384343132138,456.962340922564 L 345.25135559254875,456.6803131419808 L 345.42046209379714,456.4550214188194 L 345.75922593180246,456.060072358901 L 345.9845176549637,455.9471510795658 L 346.210360213634,455.8909658576526 L 346.7744157748007,456.11625758081396 L 347.3384713359675,456.6803131419808 L 348.07163339838235,457.9213455436491 L 348.9739019620455,462.0388409730643 L 349.19974452071574,464.2388779958181 L 349.3126658000509,466.3821789611498 L 349.4255870793861,470.04854010873333 L 349.59469358063427,471.62778551289824 L 349.9896426405527,472.75589663523164 L 350.72280470296766,473.71490125631686 L 351.2301242067123,473.94074381498723 L 352.2458648852196,474.1098503162354 L 356.1375177559644,473.77163731373884 L 357.94260571879965,473.15084569515017 L 359.63477240229963,472.19184107406505 L 362.5112354300463,469.82324838557196 L 363.6960826098018,468.69513726323856 L 364.6550872308869,467.4541048615701 L 365.72646229579834,465.02877611565503 L 365.8393835751335,463.90066499332164 L 365.7831983532203,462.6028965342311 L 364.8803789540483,460.177567788316 L 363.809003889137,459.1623779453177 L 362.84999926805176,458.37247982548075 L 360.9319900258814,457.30110476056933 L 359.63477240229963,456.962340922564 L 358.45047605805325,456.62412792006756 L 355.9684112547161,456.2859149175711 L 355.009406633631,456.2859149175711 L 354.10713806996785,456.22917886014915 L 353.1481334488826,456.3421001394842 L 352.8661056682994,456.3982853613973 L 352.58407788771603,456.4550214188194 L 352.1891288277974,456.5112066407324 L 352.1329436058844,456.5112066407324 L 352.3020501071326,456.4550214188194 L 352.7531843889642,456.2859149175711 L 352.7531843889642,456.2859149175711" stroke="#FCD34D" stroke-width="2" opacity="0.9"/>
  </g>
  <g id="stroke-group-hhtl8uq5jt-4" data-anchor-line="1" data-timestamp="2026-04-21T18:42:35Z">
    <path d="M 370.46474934380217,443.312637010737 L 370.46474934380217,443.312637010737 L 370.46474934380217,443.312637010737 L 370.46474934380217,443.312637010737 L 370.46474934380217,443.312637010737 L 371.3108326855522,449.46051212614867 L 371.4237539648874,451.32178531089704 L 371.64904568804866,456.3421001394842 L 371.76196696738384,459.50059094781415 L 371.64904568804866,462.0388409730643 L 371.3108326855522,467.56702614090517 L 371.59286046613556,468.80750770706476 L 372.15691602730226,469.7665123281499 L 372.4389438078856,469.93561882939815 L 372.94626331163033,469.93561882939815 L 375.3154068356323,468.92042898639994 L 376.72554573854893,467.9614243653147 L 378.30479114271407,466.66420674173315 L 381.8587818464714,463.78774371398646 L 383.6071337518846,462.0955770304865 L 385.01727265480133,460.4595955688994 L 387.3296801213812,457.5831325411528 L 387.55552268005147,456.3421001394842 L 387.66844395938665,455.4398315758212 L 388.0066569618831,454.53701217664906 L 388.06339301930507,454.2549843960656 L 388.11957824121816,454.02969267290445 L 388.17576346313126,453.6347436129858 L 388.11957824121816,453.46563711173764 L 388.0066569618831,453.40890105431566 L 387.55552268005147,453.40890105431566 L 387.04765234079787,453.57800755556383 L 386.03246249779954,454.02969267290445 L 383.0430781907178,456.00388713698777 L 381.8020457890493,457.35728998248254 L 380.730670724138,458.82416494282137 L 379.32053182122127,461.813549249903 L 379.0385040406378,463.448979875981 L 378.81266148196767,465.2540678388164 L 378.81266148196767,468.35637342523313 L 378.98176798321583,469.6535910488149 L 379.37671704313425,470.49967439056485 L 380.56101338738085,471.51541506907205 L 381.8020457890493,471.9098132934816 L 383.5509485299714,472.0227345728168 L 387.61170790196456,471.7974428496555 L 389.7555597028053,471.57160029098526 L 391.7297541668886,471.1766512310667 L 394.6624024165483,470.49967439056485 L 395.5652218157204,470.1052761661553 L 396.0163560975519,469.82324838557196 L 396.6365968806317,469.42829932565354 L 396.8624394393021,469.25919282440526 L 397.03154594055025,469.0895354876481 L 397.2573884992205,468.69513726323856 L 397.3135737211337,468.5254799264814 L 397.3703097785557,468.35637342523313 L 397.3135737211337,468.0743456446499 L 397.2006524417985,468.0181604227368 L 397.03154594055025,467.9614243653147 L 396.5242264368055,467.9614243653147 L 395.90343481821685,468.0743456446499 L 394.4932959153001,468.4692947045683 L 390.6016430445552,470.1614613880685 L 389.2476893635517,470.95135950790547 L 388.4016060218015,471.57160029098526 L 387.7813652387217,472.13565585215184 L 387.55552268005147,472.3614984108221 L 387.3296801213812,472.58679013398347 L 386.7094393383014,473.09466047323707 L 386.48359677963117,473.31995219639845 L 386.3144902783829,473.6019799769818 L 386.3144902783829,474.33569287490565 L 386.6532541163883,474.84301237865026 L 388.3454207998884,475.8582022216486 L 388.3454207998884,475.8582022216486" stroke="#FCD34D" stroke-width="2" opacity="0.9"/>
  </g>
  <g id="stroke-group-hhtl8uq5jt-5" data-anchor-line="1" data-timestamp="2026-04-21T18:42:36Z">
    <path d="M 394.4932959153001,461.9264705292382 L 394.4932959153001,461.9264705292382 L 394.4932959153001,461.9264705292382 L 394.4932959153001,461.9264705292382 L 394.4932959153001,461.9264705292382 L 394.4932959153001,461.9264705292382 L 396.3545691000485,463.0545816515716 L 399.62653202322247,465.2540678388164 L 401.0366709261392,466.3259937392366 L 401.99512471171545,467.22826230289974 L 403.1799718914709,468.4692947045683 L 403.5181848939674,468.80750770706476 L 403.68729139521554,469.1462715450701 L 403.9693191757989,469.93561882939815 L 404.026055233221,470.3305678893167 L 403.9693191757989,470.7255169492351 L 403.06705061213574,472.13565585215184 L 401.48780520797084,473.15084569515017 L 399.3445042426391,473.65871603440377 L 395.1140875338889,473.94074381498723 L 393.25226351363153,473.88400775756503 L 391.6730181094666,473.65871603440377 L 389.5297171441349,473.037924415815 L 388.852740303633,472.64352619140544 L 388.5707125230497,472.4176836327352 L 388.17576346313126,472.0227345728168 L 388.11957824121816,471.7974428496555 L 388.3454207998884,471.06372995173166 L 392.2370736706333,468.6384012058165 L 395.0573514764668,467.5102900834832 L 398.15965706288364,466.2692576818146 L 401.31869870672256,465.14114655948123 L 401.31869870672256,465.14114655948123" stroke="#FCD34D" stroke-width="2" opacity="0.9"/>
  </g>
  <g id="stroke-group-hhtl8uq5jt-6" data-anchor-line="1" data-timestamp="2026-04-21T18:42:36Z">
    <path d="M 453.09888905472394,449.06556306623014 L 453.09888905472394,449.06556306623014 L 447.2892269418087,449.4043269042356 L 442.3250973351346,451.09649358773567 L 441.2537222702232,451.9425769294857 L 439.6177408086362,453.6347436129858 L 438.94076396813443,454.9319612365675 L 438.94076396813443,456.3421001394842 L 439.6744768660583,459.38822050398795 L 440.3509028710512,460.62870207014765 L 441.6486713301417,461.53152146931967 L 444.5813195798015,462.7158178135663 L 446.66843532322,462.77255387098825 L 449.20668534847016,462.26468353173465 L 454.0011576183871,460.12138256640293 L 456.1444585837188,458.82416494282137 L 457.893361324641,457.4140260399045 L 460.14958356930777,455.04488251590266 L 460.76982435238756,454.08587789481743 L 460.8827456317226,453.57800755556383 L 461.0518521329709,452.7319242138138 L 461.0518521329709,452.39371121131734 L 460.9389308536357,451.9425769294857 L 460.14958356930777,450.5324380265691 L 459.4164215068928,449.62961862739695 L 458.2315743271374,448.44532228315035 L 456.93435670355575,447.37339638273016 L 456.93435670355575,447.37339638273016" stroke="#FCD34D" stroke-width="2" opacity="0.9"/>
  </g>
  <g id="stroke-group-hhtl8uq5jt-7" data-anchor-line="1" data-timestamp="2026-04-21T18:42:37Z">
    <path d="M 457.2163844841391,438.9125629652296 L 459.3035002275576,441.6766555491501 L 461.27769469164116,444.2710907963132 L 466.5233012433897,452.5628177125655 L 467.7075975876362,458.93653538664756 L 467.82051886697127,461.3056789106494 L 467.93344014630645,465.6490168987348 L 467.93344014630645,465.6490168987348" stroke="#FCD34D" stroke-width="2" opacity="0.9"/>
  </g>
  <g id="stroke-group-hhtl8uq5jt-8" data-anchor-line="1" data-timestamp="2026-04-21T18:42:37Z">
    <path d="M 479.1583661477274,449.57343340548385 L 479.1583661477274,449.57343340548385 L 479.1583661477274,449.57343340548385 L 479.1583661477274,449.57343340548385 L 479.1583661477274,449.57343340548385 L 479.1583661477274,449.57343340548385 L 477.5223846861404,450.4195167472339 L 476.4504587857201,450.9835723084005 L 475.71729672330514,451.4914426476542 L 474.8712133815551,452.28078993198227 L 474.53300037905865,452.6757389919007 L 474.3071578203883,453.013951994397 L 473.96894481789195,454.08587789481743 L 474.3071578203883,454.8757760146544 L 475.60437544397007,455.7218593564044 L 480.8505328312275,456.3982853613973 L 482.4297782353925,456.22917886014915 L 482.4297782353925,456.22917886014915" stroke="#FCD34D" stroke-width="2" opacity="0.9"/>
  </g>
  <g id="stroke-group-hhtl8uq5jt-9" data-anchor-line="1" data-timestamp="2026-04-21T18:42:37Z">
    <path d="M 498.3362552273952,449.4043269042356 L 498.3362552273952,449.4043269042356 L 498.3362552273952,449.4043269042356 L 498.3362552273952,449.4043269042356 L 498.3362552273952,449.4043269042356 L 498.3362552273952,449.4043269042356 L 498.3362552273952,449.4043269042356 L 498.3362552273952,449.4043269042356 L 498.3362552273952,449.4043269042356 L 498.3362552273952,449.4043269042356 L 498.3362552273952,449.4043269042356 L 500.25371363405657,449.96838246540227 L 504.0329960609753,450.70154452781725 L 505.1049219613957,450.70154452781725 L 505.95100530314573,450.58862324848207 L 507.2482229267274,450.25041024598573 L 507.6431719866458,450.08130374473745 L 508.3763340490608,449.2914056249005 L 508.54544055030897,448.95319262240395 L 508.8836535528054,447.88126672198376 L 508.8836535528054,447.37339638273016 L 508.7712831089792,446.4149425971538 L 508.60162577222206,445.79415097856514 L 508.4325192709738,445.3430166967336 L 507.812278487894,444.3278268537353 L 507.2482229267274,443.98906301572987 L 506.5712460862254,443.8766925719037 L 505.89426924572365,444.2710907963132 L 505.78134796638847,444.55311857689657 L 505.78134796638847,446.35820653973184 L 505.89426924572365,447.31721116081695 L 506.5712460862254,449.2914056249005 L 507.02238036805704,450.13748896665055 L 507.812278487894,451.3785213683191 L 509.16568133338876,453.0706880518192 L 509.72973689455546,453.690928834899 L 510.18142201189596,454.1420631167305 L 511.30953313422935,455.2139890171508 L 511.7039313586389,455.49601679773417 L 512.8887785383944,456.2859149175711 L 513.2837275983129,456.4550214188194 L 513.2837275983129,456.4550214188194" stroke="#FCD34D" stroke-width="2" opacity="0.9"/>
  </g>
  <g id="stroke-group-hhtl8uq5jt-10" data-anchor-line="1" data-timestamp="2026-04-21T18:42:37Z">
    <path d="M 516.7804314091393,452.111683430734 L 516.7804314091393,452.111683430734 L 516.7804314091393,452.111683430734 L 516.7804314091393,452.111683430734 L 516.7804314091393,452.111683430734 L 516.7804314091393,452.111683430734 L 516.7804314091393,452.111683430734 L 516.7804314091393,452.111683430734 L 516.7804314091393,452.111683430734 L 520.1647647761394,453.747664892321 L 526.0311629464767,454.7628547353192 L 528.5132277498138,454.9319612365675 L 530.5436074358104,454.8190399572324 L 533.8150195234755,454.2549843960656 L 534.4919963639773,453.8600353361472 L 534.7740241445606,453.6347436129858 L 535.112237147057,453.2959797749805 L 535.2818944838142,453.1268732737322 L 535.4510009850625,452.95776677248404 L 535.7330287656458,452.78866027123587 L 535.8459500449809,452.7319242138138 L 535.9583204888071,452.78866027123587 L 536.1841630474775,453.2959797749805 L 536.2403482693904,454.3117204534877 L 536.1279778255642,456.9061557006509 L 535.3942649276404,463.27987337473286 L 535.112237147057,466.3259937392366 L 534.8869454238957,469.31537804631836 L 533.7020982441403,476.59191511957243 L 533.1380426829735,478.3964522468987 L 531.3896907775603,481.38638738948947 L 530.4306861564752,482.51449851182286 L 529.47168153539,483.472952297399 L 527.7795148518899,484.9960124796509 L 527.3283805700584,485.27804026023426 L 526.9901675675619,485.39096153956933 L 526.31319072706,485.33477631765624 L 525.46710738531,485.052748537073 L 524.0569684823932,484.4319569184842 L 521.5749036790562,482.739790234984 L 520.7855563947281,481.6684151700727 L 520.1647647761394,480.42738276840424 L 519.4316027137246,476.93012812206877 L 519.7136304943078,474.89974843607234 L 520.3344221128966,472.4176836327352 L 522.7030148013896,467.2849983603218 L 524.1131537043063,464.7467483350717 L 525.9182416671416,462.15176225239946 L 530.7694499944806,458.0342668229843 L 533.3638852416439,456.62412792006756 L 535.7892139875588,455.7218593564044 L 535.7892139875588,455.7218593564044" stroke="#FCD34D" stroke-width="2" opacity="0.9"/>
  </g>
  <g id="stroke-group-hhtl8uq5jt-11" data-anchor-line="1" data-timestamp="2026-04-21T18:42:38Z">
    <path d="M 565.6841587293941,444.49693335498347 L 565.6841587293941,444.49693335498347 L 565.6841587293941,444.49693335498347 L 565.6841587293941,444.49693335498347 L 565.6841587293941,444.49693335498347 L 565.6841587293941,444.49693335498347 L 566.6431633504792,447.31721116081695 L 567.4892466922292,449.6863546848189 L 568.3353300339794,452.111683430734 L 569.6892837149829,457.0752622018992 L 570.2533392761497,459.50059094781415 L 570.8735800592295,461.9264705292382 L 572.0578764034759,467.397368804148 L 572.5095615208165,469.93561882939815 L 572.9039597452261,472.58679013398347 L 573.5809365857278,476.64810034148553 L 574.0888069249814,478.2840818030725 L 574.0888069249814,478.2840818030725" stroke="#FCD34D" stroke-width="2" opacity="0.9"/>
  </g>
  <g id="stroke-group-hhtl8uq5jt-12" data-anchor-line="1" data-timestamp="2026-04-21T18:42:38Z">
    <path d="M 565.6841587293941,463.0545816515716 L 565.6841587293941,463.0545816515716 L 567.3763254128942,461.8697344718161 L 569.2943346550645,460.7416233494827 L 571.7196634009795,459.6702482845713 L 580.4063393771503,456.62412792006756 L 583.3389876268101,456.17299363823605 L 588.4722237347323,455.66512329898245 L 590.615524700064,455.60893807706935 L 592.3076913835641,455.8342298002306 L 594.3948071269826,456.3421001394842 L 594.9021266307274,456.62412792006756 L 595.2970756906459,457.0190769799861 L 595.9178673092347,458.31629460356777 L 596.1431590323959,459.331484446566 L 596.256080311731,460.62870207014765 L 596.199895089818,462.77255387098825 L 596.1431590323959,463.6186372127383 L 596.0869738104828,464.0697714945698 L 595.9740525311477,464.8029335569848 L 595.9178673092347,465.08496133756813 L 595.9178673092347,465.3108038962384 L 596.0302377530608,465.4231743400646 L 596.3690015910662,464.91585483631985 L 596.7639506509846,463.7310076565645 L 597.1021636534812,460.6854381275696 L 596.989242374146,459.2185631672309 L 596.7072145935626,457.86516032173614 L 595.6920247505644,455.8909658576526 L 595.0717839674846,455.15780379523784 L 594.2818858476477,454.3679056754008 L 592.1947701042291,452.95776677248404 L 591.3486867624789,452.5066324906524 L 590.4464181988158,452.1678686526471 L 588.6975154578937,451.77347042823754 L 587.8514321161437,451.77347042823754 L 587.400297834312,451.82965565015064 L 586.7800570512322,452.0554982088209 L 586.554214492562,452.28078993198227 L 586.554214492562,453.2959797749805 L 587.5132191136472,454.53701217664906 L 587.5132191136472,454.53701217664906" stroke="#FCD34D" stroke-width="2" opacity="0.9"/>
  </g>
  <g id="stroke-group-hhtl8uq5jt-13" data-anchor-line="1" data-timestamp="2026-04-21T18:42:38Z">
    <path d="M 659.8814374442333,455.60893807706935 L 659.8814374442333,455.60893807706935 L 662.7017152500666,459.8955400077327 L 663.8298263724001,462.4905260904049 L 664.6197244922371,465.02877611565503 L 665.5787291133222,469.99235488682024 L 665.4658078339871,472.07947063023886 L 665.0708587740686,473.82782253565205 L 664.1685902104056,476.253151281567 L 663.8865624298222,476.986313343982 L 663.7169050930651,477.3250771819873 L 663.4916133699037,477.8323966857319 L 663.3786920905686,478.0020540224892 L 663.2657708112334,478.17116052373734 L 663.0404790880721,478.2840818030725 L 663.0966643099853,478.11442446631537 L 663.4916133699037,476.64810034148553 L 663.8298263724001,475.1250401592336 L 664.2809606542316,473.20758175257225 L 665.3528865546521,468.92042898639994 L 666.2551551183152,466.8333132429813 L 667.0450532381521,464.5770909983144 L 668.3990069191558,460.3466742895643 L 669.357460704732,458.5421371622379 L 670.3732013832392,456.962340922564 L 672.572687570484,454.6499334559841 L 673.362585690321,454.08587789481743 L 673.7007986928174,453.8600353361472 L 674.4339607552324,453.57800755556383 L 674.8289098151508,453.57800755556383 L 675.3929653763175,453.6347436129858 L 676.8031042792343,454.08587789481743 L 677.7059236784064,454.59374823407103 L 678.7211135214047,455.4398315758212 L 680.3003589255696,458.37247982548075 L 680.8082292648232,460.177567788316 L 681.2026274892327,461.9264705292382 L 681.5975765491512,464.6900122776496 L 681.8796043297347,465.6490168987348 L 682.1616321103179,466.2130724599015 L 682.6127663921494,466.7771280210682 L 682.8947941727329,466.9462345223164 L 683.2335580107382,467.05915580165157 L 685.1510164173997,467.11534102356467 L 686.5611553203164,466.9462345223164 L 688.5353497844,466.2692576818146 L 691.6943914282389,464.40798449706625 L 692.9354238299072,463.448979875981 L 694.0635349522406,462.4337900329828 L 695.924808136989,460.57251684823444 L 696.657970199404,459.6702482845713 L 697.1658405386576,458.93653538664756 L 697.8422665436505,457.86516032173614 L 698.0681091023207,457.4702112618176 L 698.2372156035689,457.13199825932116 L 698.4063221048171,456.5112066407324 L 698.4630581622391,456.22917886014915 L 698.5192433841523,456.00388713698777 L 698.5759794415743,455.7218593564044 L 698.5192433841523,455.7218593564044 L 698.4063221048171,455.8342298002306 L 697.504053541154,457.24436870314736 L 696.9961832019004,458.37247982548075 L 696.5450489200688,460.12138256640293 L 696.5450489200688,462.77255387098825 L 696.714155421317,463.6186372127383 L 696.9399979799873,464.125956716483 L 698.1242943242338,465.08496133756813 L 699.2524054465673,465.4231743400646 L 701.0574934094025,465.36698911815137 L 704.3856415544896,464.40798449706625 L 706.0778082379898,463.39279465406804 L 707.3750258615713,462.3776048110697 L 709.9132758868215,460.4595955688994 L 710.8722805079067,459.55732700523623 L 711.6616277922346,458.5421371622379 L 712.3953406901585,457.24436870314736 L 712.5077111339847,456.8499704787378 L 712.5077111339847,456.5112066407324 L 712.2824194108234,455.8909658576526 L 712.0565768521531,455.60893807706935 L 711.7183638496566,455.383095518399 L 710.4773314479881,454.8757760146544 L 709.2362990463197,454.7061186778972 L 708.2211092033214,454.7628547353192 L 706.2469147392379,455.4398315758212 L 705.569937898736,455.9471510795658 L 704.8929610582342,456.73704919940275 L 703.990692494571,459.2185631672309 L 704.1036137739062,461.02365113006607 L 705.0058823375693,462.9978455941495 L 709.2362990463197,465.818123399983 L 712.84647497199,467.11534102356467 L 717.7538685212421,468.35637342523313 L 729.0911649664893,470.61259566990003 L 729.0911649664893,470.61259566990003" stroke="#FCD34D" stroke-width="2" opacity="0.9"/>
  </g>
  <g id="stroke-group-hhtl8uq5jt-14" data-anchor-line="1" data-timestamp="2026-04-21T18:42:44Z">
    <path d="M 238.19372025021067,1507.5257158891468 L 238.19372025021067,1507.5257158891468 L 238.19372025021067,1507.5257158891468 L 238.19372025021067,1507.5257158891468 L 238.19372025021067,1507.5257158891468 L 238.19372025021067,1507.5257158891468 L 238.19372025021067,1503.6902482403152 L 237.79877119029214,1501.8289750555668 L 237.12179434979038,1499.685123254726 L 234.97849338445872,1495.1726787653924 L 233.73746098279014,1492.8040860768995 L 232.04529429929005,1491.0551833359773 L 227.02553030621175,1488.0096138069825 L 223.58446088178954,1486.711845347892 L 219.74899323295773,1485.4146277243103 L 212.19042837912036,1482.9331137564823 L 208.69372456829393,1481.5791600754785 L 204.63241436079193,1480.1690211725618 L 194.59233553912645,1477.6869563692246 L 189.23380770804278,1476.6155813043133 L 184.10057160012036,1475.6565766832282 L 174.28633533712514,1474.2464377803112 L 168.98399272795456,1473.6823822191448 L 163.0052241137911,1473.287433159226 L 151.2162425512035,1473.0621414360648 L 145.23747393704002,1473.3441692166484 L 138.97612670678427,1473.8514887203928 L 126.9618534210353,1475.0363359001483 L 121.77243209119985,1475.8824192418983 L 116.41390426011623,1476.8408730274746 L 105.3018995380304,1479.2100165514767 L 100.45124204620038,1480.5072341750583 L 96.50285311803344,1481.9173730779748 L 89.79037160594606,1485.019678664392 L 86.46277429636797,1486.824766627227 L 82.68349186944926,1488.7427758693975 L 75.23784829494696,1493.8754611418108 L 72.30464920977835,1496.8086602269796 L 70.16134824444669,1500.0800723146444 L 66.72082965553335,1506.679632547397 L 65.42361203195179,1510.1201511363101 L 64.5207926327796,1513.5612205607322 L 64.01347312903499,1520.4428085740678 L 64.29550090961834,1524.1653549435646 L 64.91574169269813,1527.775530869235 L 67.05904265802985,1534.3183550445651 L 71.57148714736343,1540.2409384368157 L 79.35534372436211,1545.2045172079806 L 88.83191782036988,1549.434933916731 L 98.98491792137048,1552.8192672837313 L 112.91664961378086,1554.7934617478145 L 127.35680248095383,1556.2036006507315 L 135.93055717778947,1556.5985497106499 L 144.16554803661967,1556.6547349325629 L 161.20013615095593,1555.5833598676518 L 169.99918257095283,1554.342327465983 L 178.4038307665403,1552.5372395031477 L 196.39687266645268,1547.6298459538957 L 204.80152086204015,1545.0915959286453 L 213.31853950145376,1542.6100819608175 L 229.2250164934565,1537.6465031896523 L 235.8245767262087,1534.8824106057318 L 242.53705823829608,1531.949211520563 L 255.05865102778967,1526.026628128313 L 260.0227806344638,1522.924322541896 L 263.97116956263073,1519.8787530129011 L 270.4578085160478,1514.4634891243954 L 273.2780863218813,1511.869053877232 L 275.42138728721295,1509.2740677945599 L 278.4107715942947,1504.0284612428115 L 278.8057206542132,1501.4340259956482 L 278.57987809554294,1498.782854691063 L 275.8725215690446,1493.5372481393142 L 273.4471928231295,1491.1681046153124 L 270.11904467804237,1489.193910151229 L 262.84305844029734,1485.6966555048937 L 257.87892883362315,1484.3994378813122 L 251.33610465829298,1483.497169317649 L 237.29090085103854,1482.4252434172286 L 230.12783589262864,1482.3123221378935 L 222.11813675695964,1482.3690581953156 L 206.7757153261236,1483.1584054796435 L 198.76601619045465,1483.8353823201453 L 190.7563170547857,1484.6252804399824 L 176.65492802561812,1486.711845347892 L 170.11210385028795,1487.9528777495605 L 163.73838617620606,1489.3630166524772 L 154.26236291570729,1492.9731925781477 L 151.04713604995527,1494.890650984809 L 151.04713604995527,1494.890650984809" stroke="#FCD34D" stroke-width="2" opacity="0.9"/>
  </g>
  <g id="stroke-group-hhtl8uq5jt-15" data-anchor-line="1" data-timestamp="2026-04-21T18:42:45Z">
    <path d="M 279.76472527529836,1515.5916002467288 L 279.76472527529836,1515.5916002467288 L 278.9186419335483,1515.760706747977 L 278.9186419335483,1515.760706747977 L 279.0310123773745,1515.648336304151 L 281.79510496129495,1514.068540064477 L 283.8822207047135,1512.9971649995655 L 289.0149059771269,1510.2898084730673 L 292.56834584537535,1508.8229335127285 L 296.5734708309643,1507.4127946098115 L 305.65454503154456,1504.536331582065 L 310.3360960221264,1503.1261926791483 L 314.3412210077154,1501.6031324968963 L 320.3767256793009,1498.5008269104796 L 322.80205442521594,1496.8648454488925 L 324.88917016863445,1495.5676278253109 L 326.8633646327179,1492.7473500194774 L 326.919549854631,1492.0703731789756 L 326.01728129096784,1490.039993492979 L 325.1144618917958,1488.9680675925588 L 323.7043229888791,1487.9528777495605 L 320.3767256793009,1486.2607110660601 L 318.45871643713053,1485.7533915623158 L 316.3716006937119,1485.3584425023973 L 309.7720404609597,1484.4556231032252 L 307.7416607749632,1484.230331380064 L 305.3725172509612,1483.8915675420585 L 305.09048947037786,1483.8353823201453 L 304.9213829691297,1483.7791970982323 L 304.58316996663325,1483.7224610408102 L 304.52643390921116,1483.7224610408102 L 304.9213829691297,1483.9483035994804 L 308.3057163361299,1484.9073082205657 L 311.18217936387646,1485.6966555048937 L 314.1721145064672,1486.5427388466437 L 319.6997488387991,1488.0657990288955 L 322.29418408596234,1488.8556971487326 L 324.94535539054755,1489.870886991731 L 330.1909619422961,1492.4653222388943 L 332.10897118446655,1493.988382421146 L 333.350003586135,1495.6243638827332 L 334.87251293287795,1498.7266694691498 L 335.0983554915482,1500.0238870927315 L 334.76014248905176,1501.2649194944001 L 332.7859480249683,1503.57732696098 L 330.98086006213305,1504.7054380833133 L 328.83755909680144,1505.7773639837337 L 323.76105904630106,1507.2436881085634 L 321.61720724546046,1507.8639288916434 L 319.7559340607122,1508.3717992308968 L 317.1047627561269,1509.1049612933118 L 316.59744325238216,1509.2740677945599 L 316.3716006937119,1509.3308038519822 L 316.3716006937119,1509.4999103532302 L 316.3716006937119,1509.4999103532302" stroke="#FCD34D" stroke-width="2" opacity="0.9"/>
  </g>
  <g id="stroke-group-hhtl8uq5jt-16" data-anchor-line="1" data-timestamp="2026-04-21T18:42:46Z">
    <path d="M 372.94626331163033,1506.1717622081433 L 372.94626331163033,1506.1717622081433 L 372.94626331163033,1506.1717622081433 L 373.1159206483874,1513.8432483413158 L 373.1721058703006,1516.8888178703105 L 373.567054930219,1519.4270678955606 L 374.52605955130423,1522.981058599318 L 375.146300334384,1524.0524336642293 L 375.54124939430255,1524.503567946061 L 377.9103929183045,1524.560304003483 L 379.99695782621404,1523.9395123848944 L 382.14080962705475,1522.811401262561 L 387.49933745813837,1517.3966882095642 L 388.79655508172004,1515.760706747977 L 390.88367082513855,1512.7151372189824 L 391.3348051069702,1511.5302900392267 L 391.44772638630525,1510.6842066974768 L 391.6168328875535,1509.7257529119006 L 391.56009683013144,1509.3869890738952 L 391.44772638630525,1509.0487760713986 L 391.1089625482998,1508.484720510232 L 390.93985604705165,1508.2026927296488 L 390.7707495458035,1507.9768501709784 L 390.37580048588495,1507.694822390395 L 390.1499579272147,1507.638637168482 L 389.86793014663135,1507.694822390395 L 389.0218468048813,1508.3717992308968 L 388.5145273011367,1509.161697350734 L 388.23249952055323,1510.176887193732 L 388.73981902429784,1512.7151372189824 L 389.585902366048,1514.2381974012342 L 390.7140134883814,1515.5354150248158 L 394.0983468553816,1517.340502987651 L 395.6781430950556,1517.7916372694826 L 397.7085227810521,1517.6225307682344 L 401.93893948980235,1516.3247623091438 L 403.8002126745507,1515.0842807429842 L 405.5491154154729,1513.7865122838937 L 408.876712725051,1510.9662344780602 L 410.17393034863267,1509.5560955751434 L 411.0767497478048,1508.3156140089839 L 411.86609703213276,1506.002655706895 L 412.0357543688899,1504.8183593626486 L 411.92283308955473,1503.1261926791483 L 410.79472196722145,1499.5160167534777 L 409.8919025680492,1497.3727157881463 L 408.876712725051,1495.3985213240626 L 407.01543954030274,1491.8450814558144 L 406.1131709766395,1490.604049054146 L 405.4923793580507,1489.7017804904826 L 404.9283237968841,1489.0809888718939 L 404.75921729563595,1489.0248036499806 L 404.5333747369656,1489.0809888718939 L 403.68729139521554,1490.0961787148922 L 402.8979441108876,1491.7883453983923 L 402.33388854972077,1493.7625398624757 L 402.33388854972077,1493.7625398624757" stroke="#FCD34D" stroke-width="2" opacity="0.9"/>
  </g>
  <g id="stroke-group-hhtl8uq5jt-17" data-anchor-line="1" data-timestamp="2026-04-21T18:42:46Z">
    <path d="M 413.72792105239,1500.4188361526499 L 413.72792105239,1500.4188361526499 L 413.72792105239,1500.4188361526499 L 413.72792105239,1500.4188361526499 L 414.06613405488633,1504.3672250808168 L 414.2352405561347,1506.3414195449004 L 415.4762729578032,1512.4331094383988 L 415.81448596029963,1513.6741418400675 L 416.37854152146633,1514.6325956256437 L 416.6043840801367,1515.0275446855621 L 416.9993331400551,1515.2533872442325 L 419.65050444464043,1515.0275446855621 L 421.17301379138337,1514.2943826231472 L 422.41404619305183,1513.5612205607322 L 424.38824065713527,1512.0943456003936 L 425.12140271955013,1511.5302900392267 L 425.7421943381389,1511.0229705354823 L 426.5315416224669,1509.9510446350619 L 426.81356940305034,1509.6690168544783 L 427.20851846296887,1508.9358547920635 L 427.37762496421703,1508.540905732145 L 427.4905462435521,1508.0897714503135 L 427.71638880222247,1507.2998733304767 L 427.77257402413545,1506.9054751060671 L 427.82931008155754,1506.5105260461485 L 427.88549530347063,1505.946470484982 L 427.88549530347063,1505.7206279263116 L 427.88549530347063,1505.5515214250634 L 427.88549530347063,1505.26949364448 L 427.82931008155754,1505.213308422567 L 427.77257402413545,1505.213308422567 L 427.6596527448004,1505.325678866393 L 427.6596527448004,1505.4386001457283 L 427.6596527448004,1505.5515214250634 L 427.6034675228873,1505.8897344275597 L 427.5472823009742,1506.11557698623 L 427.4905462435521,1506.3976047668134 L 427.4343610216391,1506.73581776931 L 427.4343610216391,1506.73581776931" stroke="#FCD34D" stroke-width="2" opacity="0.9"/>
  </g>
  <g id="stroke-group-hhtl8uq5jt-18" data-anchor-line="1" data-timestamp="2026-04-21T18:42:46Z">
    <path d="M 416.71730535947165,1495.9625768852295 L 416.71730535947165,1495.9625768852295 L 416.71730535947165,1495.9625768852295 L 418.52239332230704,1501.4340259956482 L 419.1988193272998,1503.6902482403152 L 419.8757961678017,1509.7257529119006 L 420.2707452277202,1511.9252390991453 L 420.66569428763864,1516.1556558078955 L 420.947722068222,1517.227581708316 L 421.3426711281404,1517.7916372694826 L 421.73706935254995,1518.129850271979 L 421.9067266893072,1518.129850271979 L 422.0190971331334,1518.0736650500658 L 422.41404619305183,1517.4528734314772 L 422.6398887517222,1516.7764474264843 L 422.86518047488335,1515.760706747977 L 423.31686559222396,1513.6174057826454 L 423.42923603605016,1512.489294660312 L 423.5421573153852,1511.4741048173137 L 423.8241850959686,1509.6690168544783 L 423.99329159721674,1508.9358547920635 L 424.162948933974,1508.3156140089839 L 424.50116193647034,1507.2998733304767 L 424.67026843771873,1506.848739048645 L 424.8393749389669,1506.4537899887264 L 425.2343239988853,1505.7206279263116 L 425.46016655755557,1505.4386001457283 L 425.7421943381389,1505.213308422567 L 426.81356940305034,1505.1565723651447 L 427.6034675228873,1505.382414923815 L 428.44955086463733,1505.8897344275597 L 429.91587498946717,1507.4695306672338 L 430.59285182996905,1508.6538270114802 L 431.15690739113575,1510.0077806924837 L 432.115912012221,1513.279192780149 L 432.4541250147173,1514.9713594636492 L 432.9058101320578,1516.2685770872308 L 433.92099997505613,1517.7916372694826 L 434.42831947880074,1518.129850271979 L 435.0491110973895,1518.242771551314 L 436.9665695040509,1518.0736650500658 L 438.26433796314143,1517.7349012120605 L 439.7306620879714,1516.9455539277324 L 441.1408009908881,1515.5916002467288 L 441.6486713301417,1515.0275446855621 L 442.2127268913084,1514.4634891243954 L 443.0020741756364,1513.335378002062 L 443.17118067688466,1512.8842437202306 L 443.28410195621973,1512.489294660312 L 443.62286579422516,1511.5302900392267 L 443.84815751738654,1510.853864034234 L 444.0172640186347,1510.4021789168933 L 444.1301852979699,1509.5560955751434 L 444.1301852979699,1509.161697350734 L 444.1301852979699,1508.7667482908155 L 444.1301852979699,1508.0897714503135 L 444.1301852979699,1507.751558447817 L 444.1301852979699,1507.4695306672338 L 444.1301852979699,1507.017845549893 L 444.1301852979699,1506.848739048645 L 444.1301852979699,1506.679632547397 L 444.0172640186347,1506.5105260461485 L 444.0172640186347,1506.4537899887264 L 444.0172640186347,1506.6234473254835 L 444.0172640186347,1506.73581776931 L 444.0172640186347,1506.9054751060671 L 444.0740000760568,1507.4695306672338 L 444.1301852979699,1507.8077436697304 L 444.24310657730496,1508.1459566722265 L 444.5813195798015,1508.9358547920635 L 444.75097691655856,1509.3308038519822 L 444.97626863971993,1509.7819381338136 L 445.6532454802217,1510.797127976812 L 446.3864075426367,1511.5870260966487 L 447.2892269418087,1512.376373380977 L 450.1656899695554,1513.6741418400675 L 451.51964365055903,1513.9561696206506 L 453.04215299730197,1513.8994335632287 L 455.24219002005566,1513.3921140594841 L 455.80624558122236,1513.1100862789008 L 456.2011946411409,1512.8842437202306 L 456.76525020230747,1512.4331094383988 L 457.04727798289093,1512.2072668797286 L 457.3293057634743,1511.9819751565674 L 457.7804400453058,1511.5302900392267 L 458.00628260397605,1511.3611835379786 L 458.1753891052242,1511.2482622586435 L 458.4574168858077,1511.2482622586435 L 458.57033816514286,1511.4179195954007 L 458.62652338705584,1512.2072668797286 L 457.9495465465541,1516.8326326483975 L 457.55459748663566,1519.4270678955606 L 457.160199262226,1521.8529474769846 L 456.42648636430215,1526.3653919663184 L 456.1444585837188,1528.3957716523148 L 455.75006035930926,1530.3137808944853 L 454.4522919002187,1533.7542994833984 L 453.8320511171389,1535.1644383863154 L 452.9859677753889,1536.2925495086488 L 450.27861124889046,1538.0976374714837 L 448.5297085079683,1538.7178782545636 L 446.7251713806421,1538.999906035147 L 442.49475467189177,1538.8307995338987 L 440.40763892847315,1538.4358504739803 L 438.5463657437249,1537.8156096909006 L 434.7670833168062,1536.1234430074005 L 433.3569444138893,1535.05151710698 L 432.3417545708911,1533.8104847053114 L 430.3675601068077,1530.5390726176465 L 429.5214767650576,1528.6216142109852 L 428.7877638671338,1526.4215771882314 L 427.9984165828058,1522.1911604794811 L 427.9984165828058,1520.2731512373107 L 428.167523084054,1518.5809845538106 L 429.069791647717,1515.817442805399 L 429.8596897675541,1514.745516904979 L 430.93161566797437,1513.8432483413158 L 434.7670833168062,1512.546030717734 L 437.869388903223,1512.0943456003936 L 441.6486713301417,1511.7561325978972 L 441.6486713301417,1511.7561325978972" stroke="#FCD34D" stroke-width="2" opacity="0.9"/>
  </g>
  <g id="stroke-group-hhtl8uq5jt-19" data-anchor-line="1" data-timestamp="2026-04-21T18:42:47Z">
    <path d="M 500.53574141464003,1492.352400959559 L 500.53574141464003,1492.352400959559 L 500.53574141464003,1492.352400959559 L 500.592477472062,1495.454706545976 L 500.6486626939752,1498.3879056311443 L 500.7615839733103,1505.4953362031501 L 500.8177691952234,1507.5257158891468 L 500.592477472062,1511.0229705354823 L 500.1975284121436,1512.9404289421436 L 499.40763029230664,1515.0842807429842 L 498.3362552273952,1519.709095676144 L 497.9413061674768,1521.9091326988978 L 497.320514548888,1523.9395123848944 L 497.320514548888,1523.9395123848944" stroke="#FCD34D" stroke-width="2" opacity="0.9"/>
  </g>
  <g id="stroke-group-hhtl8uq5jt-20" data-anchor-line="1" data-timestamp="2026-04-21T18:42:47Z">
    <path d="M 485.58826904372245,1515.3095724661455 L 485.58826904372245,1515.3095724661455 L 485.58826904372245,1515.3095724661455 L 485.58826904372245,1515.3095724661455 L 492.9777273963116,1511.1358918148173 L 496.58735248647304,1509.161697350734 L 505.49932018580523,1504.536331582065 L 507.6431719866458,1503.1261926791483 L 510.85784801688897,1499.9109658133964 L 512.0426951966443,1498.162613907983 L 513.0016998177296,1496.357525945148 L 515.3141072843094,1489.983808271066 L 515.878162845476,1488.0096138069825 L 516.7804314091393,1484.9634934424787 L 516.9500887458964,1484.3994378813122 L 517.0062739678094,1484.1735953226416 L 517.0062739678094,1483.7224610408102 L 516.9500887458964,1483.7224610408102 L 516.4422184066428,1484.6252804399824 L 515.7090563442279,1486.768581405314 L 515.0882647256391,1489.7579657123956 L 513.9601536033057,1496.5828176683092 L 513.3960980421391,1499.628938032813 L 512.8320424809723,1502.2233732799762 L 511.760667416061,1506.679632547397 L 511.1966118548942,1508.5976417895672 L 510.80166279497575,1510.3459936949803 L 509.9555794532257,1515.0275446855621 L 509.8426581738905,1516.2123918653176 L 509.67355167264236,1517.7349012120605 L 509.67355167264236,1518.016928992644 L 509.67355167264236,1518.186586329401 L 509.67355167264236,1518.4118780525623 L 509.72973689455546,1518.4118780525623 L 509.78647295197754,1518.3556928306493 L 510.18142201189596,1517.509609488899 L 510.7454775730628,1516.381498366566 L 511.4786396354775,1514.8022529624009 L 513.5090193214742,1510.797127976812 L 514.242181383889,1509.6690168544783 L 515.7090563442279,1507.3566093878985 L 516.4984036285558,1506.4537899887264 L 517.514144307063,1505.4953362031501 L 520.1647647761394,1503.6902482403152 L 521.5749036790562,1503.1261926791483 L 523.0417786393949,1502.6750583973167 L 526.257005505147,1502.3362945593112 L 528.1182786898952,1502.3930306167335 L 529.5846028147251,1502.5621371179816 L 532.2357741193105,1503.7464334622282 L 532.6307231792289,1504.3672250808168 L 533.0818574610605,1505.4953362031501 L 533.2509639623087,1506.11557698623 L 533.3077000197308,1507.017845549893 L 533.1380426829735,1509.6128316325653 L 532.7998296804772,1511.1920770367303 L 532.3486953986455,1512.376373380977 L 530.9385564957288,1515.3663085235676 L 530.7127139370585,1515.9865493066472 L 530.5997926577234,1516.550604867814 L 530.7127139370585,1516.6635261471492 L 531.107662996977,1516.6635261471492 L 533.532991742892,1515.2533872442325 L 533.532991742892,1515.2533872442325" stroke="#FCD34D" stroke-width="2" opacity="0.9"/>
  </g>
  <g id="stroke-group-hhtl8uq5jt-21" data-anchor-line="1" data-timestamp="2026-04-21T18:42:48Z">
    <path d="M 540.5836862574757,1503.7464334622282 L 540.5836862574757,1503.7464334622282 L 540.5836862574757,1503.7464334622282 L 540.5836862574757,1503.7464334622282 L 540.5836862574757,1503.7464334622282 L 540.5836862574757,1503.7464334622282 L 540.5836862574757,1503.7464334622282 L 540.5836862574757,1503.7464334622282 L 540.3016584768925,1506.96166032798 L 540.0763667537311,1508.540905732145 L 539.906709416974,1509.8381233557268 L 539.906709416974,1509.8381233557268" stroke="#FCD34D" stroke-width="2" opacity="0.9"/>
  </g>
  <g id="stroke-group-hhtl8uq5jt-22" data-anchor-line="1" data-timestamp="2026-04-21T18:42:48Z">
    <path d="M 558.5205429354752,1499.628938032813 L 558.5205429354752,1499.628938032813 L 558.5205429354752,1499.628938032813 L 558.5205429354752,1499.628938032813 L 558.5205429354752,1499.628938032813 L 558.5205429354752,1499.628938032813 L 558.6902002722323,1501.4902112175614 L 559.5362836139824,1504.7616233052263 L 560.2694456763974,1506.2284982655651 L 561.2284502974825,1507.694822390395 L 564.2178346045642,1511.0791557573953 L 564.7818901657308,1511.5870260966487 L 564.9509966669791,1512.3201881590637 L 564.7818901657308,1512.546030717734 L 561.510478078066,1514.4073039024825 L 559.141334554064,1514.745516904979 L 551.3574779770652,1514.8022529624009 L 549.1012557323984,1514.125276121899 L 549.1012557323984,1514.125276121899" stroke="#FCD34D" stroke-width="2" opacity="0.9"/>
  </g>
  <g id="stroke-group-hhtl8uq5jt-23" data-anchor-line="1" data-timestamp="2026-04-21T18:42:48Z">
    <path d="M 543.1786723401481,1481.9173730779748 L 543.1786723401481,1481.9173730779748 L 543.1786723401481,1481.9173730779748 L 543.1786723401481,1481.9173730779748" stroke="#FCD34D" stroke-width="2" opacity="0.9"/>
  </g>
  <g id="stroke-group-hhtl8uq5jt-24" data-anchor-line="1" data-timestamp="2026-04-21T18:42:53Z">
    <path d="M 128.20288582270382,5899.616844191384 L 123.4084135527869,5899.052788630217 L 118.38809872419966,5898.319075732294 L 106.76877449836917,5897.078594166134 L 103.8917606351136,5896.739830328129 L 99.32313092386693,5896.2886960462965 L 97.91299202095018,5896.119589545049 L 96.50285311803344,5895.837561764465 L 95.48766327503517,5895.72464048513 L 95.26182071636487,5895.668455263217 L 95.0365289932036,5895.611719205795 L 94.52865865395,5895.442612704547 L 94.41573737461482,5895.386427482634 L 94.35955215270178,5895.329691425211 L 94.4724734320369,5895.329691425211 L 94.69776515519817,5895.329691425211 L 100.45124204620038,5894.8223719214675 L 104.45581619628035,5894.483608083462 L 112.07056627203082,5894.088659023543 L 115.51163569645308,5893.919552522295 L 119.68531634778128,5893.694260799133 L 127.35680248095383,5893.242575681793 L 131.02316362853736,5893.130205237967 L 137.50980258195443,5892.904362679296 L 148.3397795234569,5892.396492340043 L 153.52865001778338,5892.284121896217 L 160.07202502862248,5892.227385838794 L 179.41902060953856,5892.002094115634 L 186.8646641840408,5892.002094115634 L 202.0941643355418,5892.058279337547 L 207.90382644845698,5892.1144645594595 L 216.8725302052111,5892.227385838794 L 232.44024335920852,5892.509413619378 L 239.4909378737923,5892.622334898713 L 249.36191019420954,5892.678520120627 L 264.08354000645693,5892.735256178048 L 271.64210486029424,5892.7914413999615 L 280.4978873377133,5892.848177457384 L 301.19883659963307,5892.96054790121 L 309.3776422365502,5892.904362679296 L 322.5762118665456,5892.7914413999615 L 328.72463781746626,5892.735256178048 L 336.3955731151299,5892.7914413999615 L 348.01544817646925,5892.678520120627 L 353.03521216954755,5892.453228397465 L 359.01453161921995,5892.509413619378 L 371.931073468632,5892.5661496768 L 374.92045777571377,5892.622334898713 L 380.2228003848844,5892.678520120627 L 381.8587818464714,5892.735256178048 L 382.64812913079936,5892.678520120627 L 382.8172356320475,5892.735256178048 L 382.9868929688048,5892.735256178048 L 383.099263412631,5892.735256178048 L 382.9868929688048,5892.735256178048 L 382.5352078514642,5892.678520120627 L 378.86884670388065,5892.5661496768 L 376.3305966786305,5892.5661496768 L 373.22829109221357,5892.678520120627 L 361.5527816444701,5893.017283958632 L 355.9122260328031,5893.299311739215 L 345.5895685950453,5893.694260799133 L 339.9490129833782,5893.750446021047 L 331.8831286257962,5894.03247380163 L 318.0075821552989,5894.427422861549 L 311.18217936387646,5894.709450642132 L 302.1572903852092,5894.991478422715 L 286.42047072996365,5895.780825707043 L 278.692799374878,5896.232510824384 L 269.4988038949626,5896.739830328129 L 244.22922492179612,5898.206705288467 L 235.65547022496048,5898.714024792212 L 219.24112289370413,5900.011242415793 L 212.52919221712574,5900.57529797696 L 205.534682924455,5901.478117376132 L 192.3361132944596,5902.775334999714 L 186.97758546337593,5903.452311840216 L 181.50613635295713,5904.241659124544 L 173.4402519953751,5905.65179802746 L 170.16828907220105,5906.272589646049 L 165.93787236345082,5907.1748582097125 L 159.90291852737425,5908.697918391964 L 157.92872406329082,5909.261973953131 L 156.6876916616223,5909.995136015546 L 155.89779354178535,5910.728298077961 L 155.89779354178535,5910.841219357296 L 156.0669000430335,5910.954140636632 L 159.39504818812065,5911.856409200294 L 163.73838617620606,5912.420464761461 L 168.75815016928436,5912.533386040796 L 183.53651603895366,5912.1384369808775 L 191.49002995270956,5912.0260665370515 L 206.49368754554018,5911.405274918463 L 213.71348856137223,5911.179983195301 L 224.20525250037826,5910.897955414718 L 242.76234996145735,5910.27716379613 L 252.01308149879486,5910.108057294881 L 261.99697509854724,5909.713108234962 L 282.35916052246165,5909.205788731218 L 290.25593837879546,5909.03613139446 L 300.29601720046094,5908.641733170051 L 325.9605452335459,5907.964756329549 L 336.62141567380013,5907.513622047718 L 353.6560037881362,5907.1748582097125 L 361.38312430771293,5907.231594267135 L 368.7725826603021,5906.610802648545 L 380.3357216642195,5906.272589646049 L 385.2993004353847,5906.4978813692105 L 391.7859393888018,5906.272589646049 L 399.9647450257189,5906.046747087379 L 402.44680982905595,5906.159668366714 L 404.4210042931394,5906.046747087379 L 406.0564349192175,5905.933825808044 L 406.0564349192175,5905.877640586131 L 404.9850598543061,5905.482691526212 L 402.7850228315524,5905.031557244381 L 398.61079134471527,5904.298395181966 L 386.1453837771347,5903.3955757827935 L 380.3357216642195,5903.057362780297 L 373.6232401521322,5902.493307219131 L 357.94260571879965,5901.5343025980455 L 350.5536982017194,5901.478117376132 L 340.2310407639617,5900.970247036878 L 312.87434604737655,5900.293270196376 L 301.81907738271286,5900.067978473216 L 282.64118830304494,5899.898871971967 L 273.4471928231295,5899.72921463521 L 263.40711400146404,5899.72921463521 L 242.53705823829608,5899.72921463521 L 233.96330354146045,5899.7859506926325 L 222.85129881937456,5899.7859506926325 L 206.4375023236272,5900.067978473216 L 199.49917825286957,5900.293270196376 L 190.9821596134559,5900.406191475712 L 175.3577104020365,5900.57529797696 L 170.33794640895826,5900.688219256295 L 163.68165011878398,5900.970247036878 L 162.04621949270592,5901.2522748174615 L 160.41023803111892,5901.309010874884 L 159.90291852737425,5901.703409099294 L 160.46697408854095,5901.873066436051 L 161.76419171212262,5902.098358159212 L 168.70196494737127,5902.437121997217 L 172.8761964342084,5902.324200717882 L 177.67066870412538,5902.324200717882 L 197.8637476267915,5901.5343025980455 L 205.7037894257033,5901.083168316214 L 223.58446088178954,5900.237084974464 L 231.31213223687507,5900.124163695129 L 241.9162666197073,5899.673029413297 L 261.8273177617901,5899.165159074044 L 271.0780492991276,5898.939867350882 L 282.4720818017967,5898.657839570299 L 301.7061561033777,5898.657839570299 L 310.7877811394669,5898.544918290963 L 320.0946978987175,5898.770760849634 L 345.30754081446196,5899.673029413297 L 352.92229089021237,5899.7859506926325 L 365.7831983532203,5900.462927533134 L 370.12598550579685,5900.970247036878 L 373.90526793271556,5901.309010874884 L 379.0946892625509,5902.437121997217 L 380.3919068861326,5902.7191497778 L 381.2947262853046,5903.170284059633 L 381.46383278655287,5903.565233119551 L 381.2379902278826,5903.790524842712 L 380.1098791055492,5904.241659124544 L 369.1675317202206,5905.539427583634 L 360.9319900258814,5905.821455364217 L 345.1384343132138,5906.159668366714 L 336.3393878932168,5906.610802648545 L 325.3964896723792,5906.667538705968 L 302.94718850504626,5907.1748582097125 L 293.1891374639641,5907.287779489047 L 279.5388827166281,5907.231594267135 L 254.66425280338012,5907.456885990296 L 243.04437774204075,5907.964756329549 L 229.39412299470473,5908.472075833294 L 205.6476042037902,5910.220978574216 L 195.21257632220625,5911.3490896965495 L 183.53651603895366,5913.04125638005 L 163.79457139811916,5916.368853689628 L 155.95452959920732,5918.173941652463 L 155.95452959920732,5918.173941652463" stroke="#FCD34D" stroke-width="2" opacity="0.9"/>
  </g>
  <g id="stroke-group-hhtl8uq5jt-25" data-anchor-line="1" data-timestamp="2026-04-21T18:42:55Z">
    <path d="M 457.61133354405763,5900.80114053563 L 457.61133354405763,5900.80114053563 L 457.61133354405763,5900.80114053563 L 457.61133354405763,5900.80114053563 L 457.61133354405763,5900.80114053563 L 459.4164215068928,5904.636608184463 L 462.3490697565526,5912.533386040796 L 463.7030234375561,5916.594696248298 L 464.3800002780581,5920.148136116546 L 465.11316234047297,5926.465668568715 L 465.4513753429693,5929.285946374549 L 465.79013918097473,5932.106224180382 L 466.74914380205985,5936.505747390381 L 467.2002780838915,5938.254650131303 L 467.4823058644748,5939.66478903422 L 467.59522714381,5940.5108723759695 L 467.59522714381,5940.5108723759695" stroke="#FCD34D" stroke-width="2" opacity="0.9"/>
  </g>
  <g id="stroke-group-hhtl8uq5jt-26" data-anchor-line="1" data-timestamp="2026-04-21T18:42:55Z">
    <path d="M 458.2315743271374,5898.88313129346 L 458.2315743271374,5898.88313129346 L 458.2315743271374,5898.88313129346 L 458.2315743271374,5898.88313129346 L 458.2315743271374,5898.88313129346 L 459.75463450938923,5901.365196096797 L 464.9440558392247,5908.584997112629 L 466.80532902397306,5910.785034135383 L 473.0099401968067,5914.73342306355 L 475.09705594022535,5915.297478624717 L 479.94771343205537,5915.184557345381 L 482.5988847366407,5914.620501784215 L 485.0809495399777,5913.4923906618815 L 489.0855236900578,5910.503006354799 L 490.7215051516448,5908.584997112629 L 492.13164405456155,5906.441696147298 L 494.38786629922834,5900.067978473216 L 494.38786629922834,5897.7550201711265 L 493.4288616781431,5893.355496961129 L 492.63896355830616,5891.268381217709 L 491.9058014958913,5889.520029312296 L 490.2698200343042,5886.981779287046 L 489.6495792512244,5886.361538503967 L 489.36755147064116,5886.135695945296 L 488.91641718880953,5885.853668164713 L 488.6905746301393,5885.7974829428 L 488.465282906978,5885.7974829428 L 487.73157000905405,5887.263807067629 L 487.788306066476,5889.1818163098 L 488.85968113138745,5893.581339519798 L 489.7057644731376,5895.668455263217 L 490.49566259297455,5897.585913669878 L 492.469857057058,5900.57529797696 L 493.5417829574783,5901.64722387738 L 493.5417829574783,5901.64722387738" stroke="#FCD34D" stroke-width="2" opacity="0.9"/>
  </g>
  <g id="stroke-group-hhtl8uq5jt-27" data-anchor-line="1" data-timestamp="2026-04-21T18:42:55Z">
    <path d="M 499.35144507039354,5900.744955313718 L 499.35144507039354,5900.744955313718 L 499.35144507039354,5900.744955313718 L 499.35144507039354,5900.744955313718 L 499.35144507039354,5900.744955313718 L 499.35144507039354,5906.385510925385 L 500.36663491339175,5912.1384369808775 L 500.98687569647154,5914.73342306355 L 501.7205885943955,5916.876724028882 L 504.76615812339026,5919.132946273548 L 506.5712460862254,5919.753187056628 L 508.54544055030897,5919.979029615299 L 512.2679869198056,5919.471159276045 L 514.0168896607278,5918.73799721363 L 515.5961350648927,5917.496964811961 L 519.036653653806,5910.785034135383 L 518.6422554293964,5907.287779489047 L 518.0214638108077,5905.482691526212 L 517.1753804690577,5903.903446122047 L 515.0882647256391,5901.2522748174615 L 513.6781258227223,5900.124163695129 L 511.98595913922236,5899.221895131465 L 508.48925532839587,5898.26289051038 L 506.6841673655606,5898.206705288467 L 504.70997290147716,5898.4319970116285 L 500.1407923547216,5900.18089975255 L 499.40763029230664,5901.139353538127 L 498.5615469505566,5903.11354800221 L 498.5615469505566,5903.11354800221" stroke="#FCD34D" stroke-width="2" opacity="0.9"/>
  </g>
  <g id="stroke-group-hhtl8uq5jt-28" data-anchor-line="1" data-timestamp="2026-04-21T18:42:56Z">
    <path d="M 556.2081354688952,5900.18089975255 L 556.2081354688952,5900.18089975255 L 559.3104410553121,5900.857325757544 L 561.9616123598973,5901.64722387738 L 568.843200373233,5905.708534084883 L 570.0274967174794,5909.205788731218 L 570.0836819393926,5910.390085075464 L 569.9713114955664,5911.969330479629 L 569.9145754381443,5912.420464761461 L 569.8583902162312,5912.759228599466 L 569.5196263782258,5913.66149716313 L 569.4072559343996,5913.887339721799 L 569.0123068744812,5914.1693675023835 L 568.843200373233,5914.056446223048 L 568.5044365352276,5911.631117477133 L 568.7302790938978,5909.882214736211 L 570.0836819393926,5904.580422962549 L 570.5915522786462,5903.226469281545 L 572.8477745233129,5897.529728447966 L 573.9197004237333,5895.160584923963 L 574.4837559849,5894.2583163603 L 574.9348902667315,5893.80663124296 L 575.6680523291465,5893.299311739215 L 576.0062653316429,5893.1863904598795 L 576.5703208928096,5893.1863904598795 L 579.5035199779782,5895.047663644628 L 580.6316311003117,5896.570723826881 L 582.6058255643951,5900.688219256295 L 583.0007746243135,5902.2112794385475 L 584.2418070259821,5905.990561865466 L 584.8058625871488,5906.836645207216 L 586.3851079913138,5908.415890611381 L 587.400297834312,5908.9237609506345 L 588.6413302359806,5909.205788731218 L 591.6874506004843,5908.9237609506345 L 593.1537747253143,5908.528811890716 L 594.4509923488959,5908.133862830798 L 597.1583488753942,5906.385510925385 L 597.6662192146478,5905.877640586131 L 598.2864599977275,5905.087742466294 L 598.568487778311,5904.693344241884 L 598.9634368382294,5903.959631343961 L 599.6965989006444,5901.365196096797 L 599.9224414593145,5899.955057193881 L 599.8095201799795,5898.4319970116285 L 599.4145711200609,5896.062853487627 L 599.1892793968997,5895.216770145877 L 598.9634368382294,5894.65271458471 L 598.568487778311,5894.03247380163 L 598.3431960551496,5893.80663124296 L 598.0611682745664,5893.637524741712 L 597.4971127133996,5893.4684182404635 L 597.1583488753942,5893.524603462376 L 596.6510293716495,5893.80663124296 L 595.4661821918941,5895.780825707043 L 595.1279691893976,5897.360621946717 L 595.0717839674846,5898.939867350882 L 596.4819228704014,5902.944441500962 L 597.2150849328162,5904.185473902631 L 599.0201728956515,5906.441696147298 L 600.1482840179849,5907.287779489047 L 601.6146081428147,5908.020941551463 L 605.3938905697335,5908.641733170051 L 607.2551637544818,5908.528811890716 L 609.1731729966522,5908.133862830798 L 613.6288814285637,5907.005751708464 L 615.6030758926472,5906.215853588627 L 617.5210851348176,5905.426506304299 L 622.1464509034863,5902.775334999714 L 623.2178259683976,5901.760145156715 L 624.6279648713144,5900.124163695129 L 624.9667287093198,5899.447186854627 L 625.1920204324811,5898.4319970116285 L 624.8538074299846,5895.9504830438 L 624.345937090731,5894.8223719214675 L 623.4436685270679,5893.694260799133 L 621.6385805642327,5892.058279337547 L 620.3975481625641,5891.49422377638 L 619.0441453170694,5891.099274716462 L 616.3929740124842,5891.212195995797 L 615.2648628901507,5891.550408998293 L 613.8547239872339,5892.227385838794 L 611.8805295231505,5894.427422861549 L 610.9777101239783,5895.837561764465 L 610.4136545628118,5897.247700667382 L 609.3422794979003,5900.124163695129 L 609.3422794979003,5901.421381318711 L 609.5675712210617,5902.7191497778 L 611.8237934657285,5906.441696147298 L 613.4035897054024,5907.5698072696305 L 616.9002935162288,5908.9237609506345 L 619.1565157608956,5909.318159175044 L 621.6385805642327,5909.600186955628 L 626.6021593353978,5909.769844292385 L 629.19714541807,5909.544001733714 L 632.1297936677297,5909.092867451883 L 637.9400066161539,5907.682728548966 L 640.7035483645653,5906.836645207216 L 642.9597706092322,5905.708534084883 L 647.4722150985658,5902.098358159212 L 648.3750344977379,5901.026983094301 L 649.3334882833141,5899.165159074044 L 649.4464095626493,5898.4319970116285 L 649.3902243407362,5897.698834949214 L 648.7132475002343,5895.893746986379 L 648.0930067171546,5894.991478422715 L 647.1340020960694,5894.1453950809655 L 644.7086733501543,5892.96054790121 L 641.6063677637375,5892.848177457384 L 639.1243029604003,5893.976288579717 L 637.883270558732,5894.87855714338 L 636.7551594363985,5896.062853487627 L 635.2320992541466,5898.714024792212 L 634.837701029737,5899.898871971967 L 634.6680436929798,5900.914061814966 L 634.780964972315,5902.098358159212 L 635.0068075309853,5902.493307219131 L 635.4017565909038,5902.944441500962 L 639.8574650228153,5903.6776035633775 L 642.5086363274006,5902.944441500962 L 645.1030715745638,5901.873066436051 L 645.1030715745638,5901.873066436051" stroke="#FCD34D" stroke-width="2" opacity="0.9"/>
  </g>
  <g id="stroke-group-hhtl8uq5jt-29" data-anchor-line="1" data-timestamp="2026-04-21T18:42:56Z">
    <path d="M 650.9132845229881,5880.269297774959 L 649.2211178394879,5877.110806966629 L 648.1491919390676,5874.6287421632915 L 646.9648955948212,5871.921385636793 L 646.7390530361508,5871.526436576875 L 646.5132104774806,5871.301144853714 L 646.2311826968972,5871.075302295044 L 646.1749974749841,5871.357330075627 L 646.3441039762324,5872.824205035966 L 647.8671641584843,5878.690052370794 L 648.9390900589045,5882.638441298961 L 649.5593308419843,5886.64356628455 L 650.4054141837345,5902.493307219131 L 650.2924929043993,5909.092867451883 L 649.6155160638975,5924.435288882719 L 649.1643817820659,5933.290520524629 L 648.9390900589045,5942.428330782632 L 648.9390900589045,5942.428330782632" stroke="#FCD34D" stroke-width="2" opacity="0.9"/>
  </g>
  <g id="stroke-group-hhtl8uq5jt-30" data-anchor-line="1" data-timestamp="2026-04-21T18:43:00Z">
    <path d="M 381.4070967291308,8758.11991695416 L 381.4070967291308,8758.11991695416 L 378.0227633621306,8755.468745649574 L 373.28502714963577,8752.366440063157 L 361.6651520882963,8746.048907610988 L 357.0965223770495,8744.526398264246 L 352.8099204463862,8742.94660202457 L 344.17942969212856,8740.352166777408 L 333.0112397481296,8738.152129754655 L 309.3776422365502,8735.331851948822 L 301.5370496021294,8734.767796387654 L 294.0352208057141,8734.316662105823 L 285.85641516879696,8733.865527823991 L 276.66241968888147,8733.583500043407 L 259.4019890158751,8733.075629704155 L 250.2079935359596,8732.963259260328 L 241.9730026771294,8732.906523202906 L 217.2107432077076,8733.18855098349 L 209.70891441129226,8733.41439354216 L 187.08995590720212,8734.429583385157 L 180.8291595124553,8734.993638946326 L 167.79969638370807,8736.629620407912 L 160.46697408854095,8737.870101974071 L 153.81067779836673,8739.280240876988 L 140.83739989153264,8742.326361241492 L 134.01254793561907,8744.074713146905 L 128.0899645433687,8745.87980110974 L 116.97795982128292,8749.884926095328 L 110.77334864844914,8751.80238450199 L 104.7378439768637,8753.607472464826 L 91.08814006503667,8757.89407439549 L 86.74480207695126,8759.078921575245 L 78.34015388136385,8761.27840776249 L 75.12492701561189,8762.237412383574 L 72.69959826969682,8763.19641700466 L 69.65402874070202,8765.001504967495 L 68.92031584277811,8766.12961608983 L 68.63828806219482,8767.313912434074 L 69.03323712211329,8771.206116140329 L 71.45856586802824,8775.718560629663 L 75.63279735486549,8780.569218121493 L 78.6221816619472,8782.82544036616 L 82.11943630828256,8784.74344960833 L 89.0010243216181,8788.240704254666 L 92.38535768861834,8790.101977439414 L 96.27701055936313,8792.35819968408 L 107.72777911945434,8797.60380623583 L 114.3267885166976,8800.706111822246 L 120.53139968953133,8803.470204406167 L 142.81159435561602,8810.182135082745 L 150.65218699003674,8811.761380486909 L 168.2508306655397,8814.243445290247 L 176.65492802561812,8815.033343410083 L 186.01858084229076,8815.709769415076 L 206.32458104429202,8816.612588814249 L 217.2669284296207,8816.725510093584 L 228.04072014921007,8816.668774036161 L 250.4338360946299,8815.935611973746 L 261.3199982580455,8815.37155641258 L 272.71403076071465,8814.7513156295 L 305.59835980963146,8812.21306560425 L 315.63843863129694,8811.254060983165 L 334.9292489902999,8808.60288967858 L 343.8412166896321,8807.023644274414 L 352.41497138646776,8805.44439887025 L 368.1517910417133,8801.270167383413 L 373.96200399013753,8798.901023859411 L 379.32053182122127,8796.644801614744 L 389.30387458546465,8792.414384905993 L 393.534291294215,8790.722218222494 L 396.6365968806317,8789.142972818328 L 400.4726153649725,8785.984482009999 L 401.600726487306,8784.235579269076 L 402.2771524922988,8782.318120862416 L 402.33388854972077,8777.74894031566 L 401.7698329885542,8775.267426347831 L 400.4726153649725,8772.672440265158 L 395.90343481821685,8767.708861493993 L 392.4061801718816,8765.790852251823 L 388.11957824121816,8764.155421625745 L 376.2182262348043,8759.981190138908 L 372.72097158846896,8758.79689379466 L 364.8803789540483,8756.765963273156 L 360.8758048039682,8755.80750948758 L 357.0965223770495,8754.96142614583 L 351.6250732666308,8753.88950024541 L 349.8767213612176,8753.607472464826 L 348.7486102388841,8753.551287242914 L 347.50757783721565,8754.227713247907 L 347.2255500566323,8754.622662307824 L 347.05644355538413,8755.299639148327 L 347.05644355538413,8755.299639148327" stroke="#FCD34D" stroke-width="2" opacity="0.9"/>
  </g>
  <g id="stroke-group-hhtl8uq5jt-31" data-anchor-line="1" data-timestamp="2026-04-21T18:43:01Z">
    <path d="M 396.41130515747045,8767.765046715907 L 396.41130515747045,8767.765046715907 L 396.41130515747045,8767.765046715907 L 396.41130515747045,8767.765046715907 L 400.1338515269671,8766.80659293033 L 409.72279606680104,8764.493634628241 L 415.70211551647344,8763.309338283994 L 420.8909860108,8762.35033366291 L 430.3108240493856,8760.207032697577 L 434.6541620374711,8759.248028076494 L 439.27952780613987,8758.458129956656 L 447.458333443057,8757.217648390497 L 450.616824251387,8756.87888455249 L 452.53483349355736,8756.65359282933 L 453.8882363390519,8756.371565048747 L 454.05789367580917,8756.371565048747 L 454.17026411963536,8756.314828991324 L 452.3657269923091,8756.03280121074 L 449.9965834683072,8755.976615988828 L 441.59193527271975,8755.976615988828 L 438.82839352430824,8756.089537268163 L 434.0901064763043,8756.314828991324 L 432.3417545708911,8756.540671549994 L 431.04398611180056,8756.765963273156 L 430.02879626880224,8756.991805831825 L 429.8596897675541,8757.104727111162 L 429.746768488219,8757.217648390497 L 429.746768488219,8757.612046614906 L 429.97261104688926,8757.950810452912 L 431.438935171719,8759.078921575245 L 438.71547224497306,8762.068305882327 L 441.81777783139,8762.80146794474 L 447.7965464455534,8764.155421625745 L 450.50390297205183,8764.88858368816 L 452.59101871547034,8765.678481807998 L 455.0163474613853,8767.539754992746 L 455.4680325787259,8768.385838334496 L 455.6371390799741,8769.062815174997 L 455.524217800639,8770.754981858498 L 454.9601622394723,8772.165120761414 L 453.60620855846867,8773.631444886243 L 449.31960662780523,8776.169694911494 L 446.55551404388484,8777.35399125574 L 443.5661297368032,8778.482102378073 L 437.869388903223,8780.682139400828 L 435.8951944391396,8781.697329243825 L 435.8951944391396,8781.697329243825" stroke="#FCD34D" stroke-width="2" opacity="0.9"/>
  </g>
  <g id="stroke-group-hhtl8uq5jt-32" data-anchor-line="1" data-timestamp="2026-04-21T18:43:02Z">
    <path d="M 471.9947503538085,8761.335143819912 L 471.9947503538085,8761.335143819912 L 471.9947503538085,8761.335143819912 L 471.9947503538085,8761.335143819912 L 471.9947503538085,8761.335143819912 L 471.9947503538085,8761.335143819912 L 472.0509355757216,8762.914389224077 L 472.6717271943104,8766.016694810494 L 473.34815319930317,8767.257727212162 L 474.2509725984753,8768.216731833247 L 476.67630134439025,8769.457213399406 L 478.2555467485553,8769.795977237412 L 480.00444948947745,8769.626870736163 L 483.7831810808872,8767.821782773328 L 484.6860004800593,8766.862778152243 L 485.8141116023927,8765.170611468744 L 486.0394033255541,8764.606555907576 L 486.15232460488903,8764.155421625745 L 486.2652458842242,8763.365523505909 L 486.2652458842242,8762.914389224077 L 486.2090606623111,8762.463254942246 L 485.98321810364087,8761.504250321159 L 485.8141116023927,8761.053116039328 L 485.6450051011444,8760.601981757496 L 485.2500560412259,8759.925004916995 L 485.02421348255575,8759.699162358325 L 484.7989217593945,8759.642977136411 L 484.00902363955754,8760.376139198826 L 483.6140745796389,8761.617171600496 L 483.44496807839073,8763.027310503412 L 483.7831810808872,8766.58075037166 L 484.1781301408057,8768.329102277074 L 484.7421857019723,8769.73924117999 L 486.5472736648077,8771.826356923408 L 487.5062782858928,8772.165120761414 L 491.05971815414114,8771.995463424657 L 493.0339126182247,8771.488143920913 L 494.83900058105985,8770.754981858498 L 498.11041266872496,8768.724051336992 L 499.0694172898102,8767.539754992746 L 499.6334728509768,8766.524565149746 L 499.91550063156023,8765.283532748079 L 499.97168585347333,8764.88858368816 L 499.97168585347333,8764.26834290508 L 499.5205515716418,8761.842463323655 L 498.84357473113994,8760.150296640157 L 497.9413061674768,8758.627787293413 L 495.96711170339324,8755.919879931405 L 495.00810708230813,8754.453555806576 L 494.105838518645,8753.099602125572 L 493.14683389755976,8750.392245599074 L 492.75188483764134,8749.095027975492 L 492.469857057058,8747.853995573823 L 492.469857057058,8745.315745548574 L 492.5260422789711,8744.751689987406 L 492.75188483764134,8743.849421423743 L 492.9209913388895,8743.454472363825 L 493.0339126182247,8743.059523303908 L 493.37212562072114,8742.439282520827 L 493.5979681793914,8742.157254740243 L 493.82381073806164,8741.931412181573 L 494.44405152114143,8741.536463121654 L 495.00810708230813,8741.480277899742 L 496.8131950451434,8741.931412181573 L 500.1407923547216,8744.018527924993 L 501.0997969758067,8745.25956032666 L 501.8329590382216,8746.838805730826 L 503.58186177914376,8750.731009437079 L 504.20210256222356,8752.761389123076 L 504.82289418081234,8754.848504866495 L 506.00719052505883,8759.417134577741 L 506.51506086431243,8761.617171600496 L 506.909459088722,8763.534630007156 L 507.9251997672292,8768.103810553912 L 508.3195979916386,8769.11900039691 L 508.9965748321406,8770.303296741156 L 509.22241739081085,8770.529139299828 L 509.4477091139721,8770.642060579163 L 509.8993942313126,8770.754981858498 L 510.124685954474,8770.642060579163 L 510.3505285131441,8770.416218020491 L 511.027505353646,8769.006079117575 L 511.2527970768074,8768.159995775824 L 511.5915609148127,8766.411643870411 L 511.7039313586389,8765.50882447124 L 511.8168526379741,8764.719477186913 L 511.98595913922236,8763.083495725325 L 512.0988804185573,8762.519440164158 L 512.2118016978925,8761.955384602992 L 512.4376442565627,8760.940194759993 L 512.6067507578109,8760.489060478161 L 512.7758572590593,8760.094111418242 L 513.9039683813927,8759.473870635164 L 515.4270285636445,8761.109301261242 L 516.3292971273077,8762.745282722828 L 516.9500887458964,8764.324528126994 L 517.5703295289762,8767.708861493993 L 517.8523573095596,8769.457213399406 L 518.190570312056,8770.924088359745 L 519.1495749331411,8773.180310604412 L 519.1495749331411,8773.180310604412" stroke="#FCD34D" stroke-width="2" opacity="0.9"/>
  </g>
  <g id="stroke-group-hhtl8uq5jt-33" data-anchor-line="1" data-timestamp="2026-04-21T18:43:02Z">
    <path d="M 524.7901305448082,8767.595940214658 L 524.7901305448082,8767.595940214658 L 524.7901305448082,8767.595940214658 L 524.7901305448082,8767.595940214658 L 524.7901305448082,8767.595940214658 L 524.7901305448082,8767.595940214658 L 524.7901305448082,8767.595940214658 L 524.7901305448082,8767.595940214658 L 524.7901305448082,8767.595940214658 L 524.7901305448082,8767.595940214658 L 524.7901305448082,8767.595940214658 L 524.7901305448082,8767.595940214658 L 526.9901675675619,8768.780787394413 L 527.6104083506416,8769.062815174997 L 528.9643620316454,8769.73924117999 L 529.3025750341418,8769.908898516747 L 529.9233666527306,8770.134190239909 L 530.1486583758918,8770.190926297331 L 530.3745009345621,8770.190926297331 L 530.7694499944806,8770.247111519244 L 530.8818204383067,8770.190926297331 L 531.051477775064,8770.134190239909 L 531.3335055556473,8770.134190239909 L 531.5026120568955,8770.190926297331 L 531.5587972788086,8770.190926297331 L 531.7279037800567,8770.190926297331 L 531.784639837479,8770.247111519244 L 531.8975611168139,8770.360032798579 L 532.1228528399753,8770.754981858498 L 532.2919593412236,8770.98027358166 L 532.5178018998937,8771.319037419664 L 533.1380426829735,8772.334227262661 L 533.4768065209789,8772.954468045742 L 533.8150195234755,8773.518523606908 L 535.3942649276404,8776.113509689581 L 536.2403482693904,8777.466912535076 L 537.0302463892274,8778.65175971483 L 537.5943019503941,8780.343926398331 L 537.8201445090643,8780.964167181412 L 538.0454362322256,8781.58440796449 L 538.4403852921441,8782.65633386491 L 538.6094917933924,8783.164204204164 L 538.7785982946406,8783.615338485997 L 539.117362132646,8784.34850054841 L 539.4555751351423,8784.799634830242 L 539.7376029157258,8784.912556109579 L 539.850524195061,8784.856370887665 L 539.9634454743959,8784.686713550907 L 540.1325519756442,8784.179394047163 L 540.1887371975573,8783.840630209157 L 540.1887371975573,8783.50241720666 L 540.0763667537311,8782.374306084328 L 539.9634454743959,8781.97935702441 L 539.6246816363906,8780.795060680162 L 539.5123111925644,8780.400111620243 L 539.2302834119812,8779.328185719824 L 539.173547354559,8778.989972717327 L 539.117362132646,8778.42591715616 L 539.117362132646,8778.200074597491 L 539.117362132646,8778.030968096242 L 539.117362132646,8777.636019036323 L 539.117362132646,8777.57983381441 L 539.117362132646,8777.523648592498 L 539.117362132646,8777.57983381441 L 539.0606260752239,8777.74894031566 L 539.0606260752239,8777.74894031566" stroke="#FCD34D" stroke-width="2" opacity="0.9"/>
  </g>
  <g id="stroke-group-hhtl8uq5jt-34" data-anchor-line="1" data-timestamp="2026-04-21T18:43:03Z">
    <path d="M 524.9592370460564,8767.877967995242 L 524.9592370460564,8767.877967995242 L 524.9592370460564,8767.877967995242 L 524.9592370460564,8767.877967995242 L 524.9592370460564,8767.877967995242 L 527.5542231287286,8771.206116140329 L 531.9537463387271,8774.81574123049 L 533.8150195234755,8775.774745851575 L 536.9173251098922,8776.90285697391 L 538.1583575115608,8777.128699532579 L 539.2864686338942,8776.959593031332 L 540.8657140380592,8776.338801412741 L 541.0915565967293,8776.169694911494 L 541.3168483198907,8775.605639350328 L 541.4297695992259,8775.267426347831 L 541.486505656648,8774.928662509825 L 541.6556121578961,8774.082579168076 L 541.6556121578961,8773.913472666827 L 541.5988761004742,8773.74436616558 L 541.486505656648,8773.800551387492 L 541.2606630979777,8774.308421726746 L 540.5836862574757,8778.087704153664 L 540.5275010355628,8780.569218121493 L 540.6966075368109,8783.389495927326 L 541.486505656648,8789.81994965883 L 542.1067464397278,8797.60380623583 L 542.7269872228075,8805.951718373994 L 542.8399085021426,8810.407977641415 L 542.7837232802295,8814.863686073326 L 542.4449594422241,8822.930121266418 L 542.1067464397278,8826.370639855331 L 541.6556121578961,8829.3038389405 L 540.4145797562276,8833.252227868667 L 539.6246816363906,8834.549445492248 L 538.8353343520627,8835.339343612084 L 535.2818944838142,8835.790477893916 L 533.7020982441403,8835.057315831502 L 529.8104453733954,8832.801093586835 L 527.836250909312,8831.165112125247 L 526.0873481683898,8829.190917661164 L 523.2108851406432,8824.45263061316 L 522.0827740183098,8821.519982363501 L 521.2928758984727,8818.191834218413 L 521.5749036790562,8811.084954481916 L 522.4777230782283,8807.925912838078 L 523.8311259237231,8804.992713752908 L 529.1896537548066,8799.295972919328 L 532.6307231792289,8796.757722894079 L 536.2403482693904,8794.501500649412 L 544.0247556818981,8790.384005219996 L 548.9883344530632,8788.635102479075 L 554.3468622841469,8786.999671852996 L 554.3468622841469,8786.999671852996" stroke="#FCD34D" stroke-width="2" opacity="0.9"/>
  </g>
  <g id="stroke-group-hhtl8uq5jt-35" data-anchor-line="1" data-timestamp="2026-04-21T18:43:03Z">
    <path d="M 577.0781912320632,8738.095944532743 L 577.0781912320632,8738.095944532743 L 577.0781912320632,8738.095944532743 L 577.698432015143,8744.695504765494 L 578.2624875763097,8748.248944633742 L 579.7293625366485,8755.468745649574 L 580.3496033197283,8759.304213298406 L 581.2524227189003,8762.97057444599 L 583.2828024048969,8770.360032798579 L 584.0159644673118,8773.913472666827 L 584.4109135272303,8777.241620811914 L 586.1030802107305,8786.660908014992 L 586.7233209938103,8789.425000598912 L 586.7233209938103,8789.425000598912" stroke="#FCD34D" stroke-width="2" opacity="0.9"/>
  </g>
  <g id="stroke-group-hhtl8uq5jt-36" data-anchor-line="1" data-timestamp="2026-04-21T18:43:04Z">
    <path d="M 574.3140986481428,8771.319037419664 L 574.3140986481428,8771.319037419664 L 579.4473347560652,8768.554944835743 L 582.7187468437303,8767.031884653492 L 591.1233950393176,8762.35033366291 L 593.2666960046492,8760.771088258745 L 597.7791404939829,8755.80750948758 L 598.8505155588944,8754.340634527241 L 601.6146081428147,8750.392245599074 L 602.1224784820683,8749.377055756077 L 602.6297979858131,8748.023102075073 L 602.686534043235,8747.853995573823 L 602.6297979858131,8747.571967793241 L 602.6297979858131,8747.515782571327 L 602.6297979858131,8747.571967793241 L 602.7427192651481,8748.813000194908 L 602.8556405444833,8750.787194658993 L 602.9118257663963,8753.26925946233 L 603.7017238862333,8760.827273480658 L 604.0966729461518,8763.252602226574 L 604.8298350085666,8767.877967995242 L 604.998941509815,8770.078005017995 L 605.055126731728,8772.165120761414 L 605.1680480110632,8777.071963475157 L 605.1680480110632,8777.918046816907 L 605.1680480110632,8778.877051437992 L 605.11186278915,8779.102893996664 L 604.998941509815,8779.328185719824 L 604.6607285073185,8779.441106999158 L 604.4910711705613,8779.384921777246 L 604.209043389978,8779.159079218576 L 603.2505896044017,8777.861861594994 L 602.5736127638999,8776.50790791399 L 602.0095572027333,8774.928662509825 L 601.5584229209016,8771.43140786349 L 601.5016868634796,8770.078005017995 L 601.6146081428147,8768.836972616327 L 601.9528211453111,8767.257727212162 L 602.4045062626517,8766.072880032407 L 602.9685618238184,8764.944768910073 L 605.11186278915,8762.463254942246 L 606.57818691398,8761.504250321159 L 608.2141683755669,8760.601981757496 L 611.8237934657285,8759.473870635164 L 613.6288814285637,8759.248028076494 L 615.3777841694858,8759.417134577741 L 617.8031129154008,8760.319953976914 L 618.4800897559028,8760.88400953808 L 618.9874092596474,8761.560435543073 L 620.0593351600677,8763.478444785243 L 620.5104694418993,8764.719477186913 L 620.8486824443956,8766.354907812989 L 621.0745250030659,8769.96508373866 L 620.9616037237308,8771.939278202744 L 620.5666546638123,8774.026393946162 L 619.7205713220623,8777.805676373082 L 619.4385435414789,8779.49784305658 L 619.4385435414789,8779.49784305658" stroke="#FCD34D" stroke-width="2" opacity="0.9"/>
  </g>
  <g id="stroke-group-hhtl8uq5jt-37" data-anchor-line="1" data-timestamp="2026-04-21T18:43:04Z">
    <path d="M 630.6072843209868,8761.842463323655 L 630.6072843209868,8761.842463323655 L 630.6072843209868,8761.842463323655 L 630.6072843209868,8761.842463323655 L 630.6072843209868,8761.842463323655 L 630.6072843209868,8761.842463323655 L 630.6634695428999,8764.211606847659 L 630.6634695428999,8766.58075037166 L 630.8893121015701,8770.529139299828 L 631.1713398821535,8772.277491205241 L 631.3966316053147,8773.687630108157 L 632.411821448313,8776.451722692078 L 632.411821448313,8776.451722692078" stroke="#FCD34D" stroke-width="2" opacity="0.9"/>
  </g>
  <g id="stroke-group-hhtl8uq5jt-38" data-anchor-line="1" data-timestamp="2026-04-21T18:43:04Z">
    <path d="M 650.3492289618213,8760.88400953808 L 650.3492289618213,8760.88400953808 L 650.3492289618213,8760.88400953808 L 650.3492289618213,8760.88400953808 L 651.0823910242362,8763.140231782747 L 652.0413956453215,8765.170611468744 L 654.127960553231,8768.780787394413 L 655.0869651743162,8770.360032798579 L 655.9330485160664,8771.826356923408 L 657.1740809177348,8774.251685669324 L 657.28700219707,8774.477528227993 L 657.28700219707,8774.985398567247 L 657.0049744164866,8775.492718070993 L 655.8768632941532,8776.50790791399 L 652.6616364284013,8778.143889375577 L 651.0256549668143,8778.538838435496 L 649.7284373432326,8778.65175971483 L 648.7694327221474,8778.707944936745 L 648.7694327221474,8778.707944936745" stroke="#FCD34D" stroke-width="2" opacity="0.9"/>
  </g>
  <g id="stroke-group-hhtl8uq5jt-39" data-anchor-line="1" data-timestamp="2026-04-21T18:43:05Z">
    <path d="M 649.9542799019029,8757.837889173576 L 649.9542799019029,8757.837889173576 L 651.8717383085643,8759.81208363766 L 651.8717383085643,8759.81208363766" stroke="#FCD34D" stroke-width="2" opacity="0.9"/>
  </g>
  <g id="stroke-group-hhtl8uq5jt-40" data-anchor-line="1" data-timestamp="2026-04-21T18:43:05Z">
    <path d="M 674.0395625308228,8778.989972717327 L 674.0395625308228,8778.989972717327 L 674.0395625308228,8778.989972717327 L 674.0395625308228,8778.989972717327" stroke="#FCD34D" stroke-width="2" opacity="0.9"/>
  </g>
</svg>
