<svg xmlns="http://www.w3.org/2000/svg" data-source-file="/data/user/0/com.praveen.gitmdannotations_tablet/app_flutter/repos/alvin4frnds/surri/jobs/pending/spec-003-pwa-offline-assets/02-spec.md" data-source-sha="f2a762fb004f541a1a0f7fb462a96006b55b873c">
  <g id="stroke-group-hhtni9juge-0" data-anchor-line="241" data-timestamp="2026-04-21T20:05:35Z">
    <path d="M 199.38680780904338,5912.609863528757 L 198.54072446729333,5912.779520865514 L 197.63790506812126,5912.89189130934 L 196.67890044703609,5913.004812588675 L 194.76144204037462,5913.11773386801 L 194.02827997795976,5913.11773386801 L 193.18219663620965,5913.173919089923 L 191.6024003965357,5913.11773386801 L 190.7563170547857,5913.173919089923 L 189.8540484911225,5913.230655147346 L 189.06415037128556,5913.343576426681 L 188.16188180762248,5913.399761648594 L 187.37198368778547,5913.512682927929 L 187.37198368778547,5913.512682927929" stroke="#DC2626" stroke-width="2" opacity="0.9"/>
  </g>
  <g id="stroke-group-hhtni9juge-1" data-anchor-line="241" data-timestamp="2026-04-21T20:05:35Z">
    <path d="M 165.82550191962463,5918.81447470159 L 165.82550191962463,5918.81447470159 L 165.82550191962463,5918.81447470159 L 165.82550191962463,5918.81447470159 L 165.82550191962463,5918.81447470159 L 169.15309922920278,5918.081312639176 L 175.80884468386813,5916.614988514346 L 178.51675204587536,5915.768905172596 L 182.35221969470717,5914.979007052759 L 190.5310253316244,5913.96381720976 L 194.93054854162284,5913.343576426681 L 200.40199765204164,5912.835706087427 L 212.92414127704427,5911.820516244428 L 218.50796083128915,5911.3126459051755 L 228.32274792979337,5911.0306181245915 L 231.82000257612867,5911.256460683262 L 236.050419284879,5910.805326401431 L 242.76234996145735,5910.297456062177 L 246.2034193858796,5910.410377341512 L 249.75685925412802,5909.902507002258 L 255.51033614513017,5909.451372720427 L 257.25868805054336,5909.395187498514 L 258.49972045221193,5909.056423660509 L 259.4587250732971,5909.056423660509 L 259.5149102952102,5909.056423660509 L 259.5149102952102,5909.000238438595 L 259.1199612352917,5908.88731715926 L 258.04858617038036,5908.831131937347 L 254.0434611847914,5908.831131937347 L 244.68035920362775,5909.338451441092 L 240.90107677670903,5909.902507002258 L 235.9374980055439,5910.2412708402635 L 225.3895488446247,5911.707594965093 L 220.08720623545418,5912.666599586179 L 213.26235427954066,5913.568868149842 L 203.16553940045316,5915.43014133459 L 198.76601619045465,5916.445882013098 L 192.50521979570777,5917.686363579257 L 183.8752798769591,5919.942585823924 L 181.1111872930387,5920.732483943761 L 178.12180298595695,5921.465646006176 L 175.63973818261985,5922.650493185931 L 175.01949739954006,5922.650493185931 L 174.90657612020493,5922.81959968718 L 174.96276134211803,5923.101627467762 L 175.13241867887524,5923.270733969011 L 175.47063168137163,5923.439840470259 L 180.49094650995886,5923.665683028929 L 184.21349287945554,5922.762863629758 L 189.79786326920947,5921.465646006176 L 200.1199698714583,5918.758289479678 L 204.91444214137522,5917.404335798674 L 210.21623391503692,5915.599798671347 L 220.82091913337803,5912.948627366763 L 225.0513358421283,5912.327835748173 L 230.5789701744602,5911.256460683262 L 237.00887307045525,5910.35364128409 L 239.4347526518792,5910.184534782842 L 242.53705823829608,5909.95924305968 L 247.72592873262255,5910.015428281594 L 249.8697805334632,5910.2412708402635 L 250.94115559837456,5910.35364128409 L 251.95634544137283,5910.861511623343 L 251.95634544137283,5910.861511623343" stroke="#DC2626" stroke-width="2" opacity="0.9"/>
  </g>
  <g id="stroke-group-hhtni9juge-2" data-anchor-line="241" data-timestamp="2026-04-21T20:05:36Z">
    <path d="M 255.28449358645992,5909.451372720427 L 255.28449358645992,5909.451372720427 L 254.72043802529322,5908.831131937347 L 254.6075167459581,5908.718210658012 L 254.49459546662297,5908.492368099342 L 254.551331524045,5908.436182877429 L 254.6075167459581,5908.492368099342 L 255.51033614513017,5908.88731715926 L 256.5817112100416,5909.282266219178 L 258.8379334547083,5909.50755794234 L 262.78632238287526,5909.789585722923 L 264.4784890663754,5910.35364128409 L 267.74990115404046,5911.087354182014 L 276.0983641277148,5913.004812588675 L 280.1591234997079,5914.020002431674 L 285.9693364481321,5914.979007052759 L 295.1633319280475,5917.404335798674 L 298.8858782975442,5918.3071551978455 L 305.4292533083833,5919.548187599515 L 315.3002256288006,5921.916780288007 L 319.1356932776324,5922.81959968718 L 323.1402674277123,5923.778604308265 L 330.1909619422961,5924.962900652511 L 333.0112397481296,5925.414034934342 L 336.2264666138816,5925.414034934342 L 340.79509632512827,5925.188743211182 L 342.14905000613203,5925.301113655008 L 343.10805462721714,5925.0190858744245 L 343.72829541029694,5924.793794151263 L 343.785031467719,5924.6246876500145 L 343.785031467719,5924.398845091345 L 343.4462676297136,5923.721868250843 L 342.8260268466338,5922.8757849090925 L 340.85183238255036,5921.240354283014 L 335.6624110527149,5918.871210759013 L 332.8421332468814,5918.3071551978455 L 329.7960128823777,5917.235229297426 L 324.6071423880512,5916.332960733763 L 322.68913314588076,5916.050932953179 L 320.3767256793009,5915.4868773920125 L 317.0485775342138,5914.922821830845 L 315.8642811899673,5914.58405799284 L 314.8485405114601,5914.358766269679 L 314.00245716970994,5914.302030212257 L 313.94627194779684,5914.245844990344 L 313.89008672588375,5914.189659768431 L 314.00245716970994,5914.1329237110085 L 314.1721145064672,5914.076738489095 L 314.56651273087664,5914.076738489095 L 317.6126330953805,5914.302030212257 L 320.1508831206306,5914.640794050262 L 322.4632905872105,5914.866085773423 L 326.9757350765441,5915.091928332094 L 329.1195868773848,5915.43014133459 L 331.1499665633813,5915.655983893261 L 334.5904851522946,5916.445882013098 L 335.77533233204997,5917.122308018091 L 336.1702813919685,5917.461071856096 L 336.8467073969614,5918.927395980925 L 336.7905221750483,5919.660558043341 L 335.94443883329836,5921.35272472684 L 332.72921196754635,5924.793794151263 L 331.03704528404614,5926.260118276093 L 327.76563319638115,5928.178127518263 L 323.36610998638264,5931.054590546009 L 321.8430498041307,5932.069780389008 L 319.9250405619604,5933.81868312993 L 317.21768403546196,5936.469854434516 L 316.82273497554354,5937.2592017188435 L 316.82273497554354,5937.2592017188435" stroke="#DC2626" stroke-width="2" opacity="0.9"/>
  </g>
  <g id="stroke-group-hhtni9juge-3" data-anchor-line="242" data-timestamp="2026-04-21T20:05:37Z">
    <path d="M 351.28686026413436,5924.51176637068 L 351.28686026413436,5924.51176637068 L 351.28686026413436,5924.51176637068 L 351.28686026413436,5924.51176637068 L 351.28686026413436,5924.51176637068 L 351.28686026413436,5924.51176637068 L 351.28686026413436,5924.51176637068 L 351.004832483551,5923.890974752091 L 350.6098834236325,5923.214548747098 L 349.9329065831307,5921.860595066095 L 349.59469358063427,5921.183618225592 L 349.25592974262884,5920.563377442512 L 348.63568895954904,5919.3785302627575 L 348.3536611789657,5918.871210759013 L 348.18455467771753,5918.420076477181 L 347.7896056177989,5917.743099636679 L 347.67668433846393,5917.461071856096 L 347.6204991165507,5917.291965354848 L 348.01544817646925,5917.573993135431 L 348.63568895954904,5918.758289479678 L 349.368851021964,5920.901590445009 L 350.4407769223843,5926.316854333515 L 350.77898992488065,5929.080396081927 L 350.6660686455456,5931.054590546009 L 351.061017705464,5935.736141536591 L 351.34304548604746,5938.162021118016 L 351.7379945459659,5940.305322083347 L 352.97902694763445,5943.463812891678 L 353.6560037881362,5944.59192401401 L 354.220059349303,5945.268900854512 L 355.009406633631,5945.832956415679 L 355.29143441421434,5945.945877695014 L 355.5734621947977,5946.002062916928 L 356.19425381338647,5945.945877695014 L 356.98360109771454,5945.550928635095 L 358.3375547787181,5944.6486600714325 L 360.64996224529807,5941.771646208177 L 361.439860365135,5939.74126652218 L 362.1730224275499,5937.485044277513 L 363.1882122705482,5932.74675722951 L 363.5831613304666,5930.152321982347 L 363.86518911105,5927.726993236432 L 364.3730594503036,5924.116817310761 L 364.48542989412977,5923.044891410341 L 364.48542989412977,5922.650493185931 L 364.54216595155174,5922.368465405348 L 364.54216595155174,5922.255544126013 L 364.54216595155174,5922.198808068591 L 364.59835117346495,5922.255544126013 L 364.6550872308869,5922.424650627261 L 364.9371150114704,5923.157812689676 L 366.0652261338038,5927.162937675264 L 367.19333725613706,5931.562460885263 L 368.0956058198003,5935.679956314679 L 368.6596613809669,5937.428308220092 L 369.3928234433819,5938.951368402344 L 371.19791140621703,5941.264326704432 L 371.931073468632,5942.05367398876 L 372.4951290297988,5942.561544328014 L 374.46932349388214,5942.730650829262 L 375.42832811496737,5942.166595268096 L 377.68455035963416,5939.290132240349 L 378.6435549807193,5937.20301649693 L 379.6025596018045,5934.777687751015 L 381.2379902278826,5929.531530363758 L 381.8020457890493,5926.937095116595 L 382.02788834771957,5924.342659869431 L 381.63293928780104,5919.435266320179 L 381.2379902278826,5917.291965354848 L 380.56101338738085,5915.373956112678 L 379.2637957637992,5911.933437523764 L 378.5868189232973,5910.466562563425 L 377.9665781402175,5909.1693449398435 L 377.12049479846746,5907.308071755096 L 376.8384670178841,5906.7440161939285 L 376.66936051663595,5906.405252355923 L 376.4435179579657,5905.897932852178 L 376.3305966786305,5905.72882635093 L 376.27441145671753,5905.6720902935085 L 376.16149017738235,5906.010854131513 L 376.10530495546914,5906.913122695177 L 376.16149017738235,5908.718210658012 L 376.72554573854893,5912.779520865514 L 377.0075735191323,5914.979007052759 L 377.28960129971574,5917.235229297426 L 377.28960129971574,5917.235229297426" stroke="#DC2626" stroke-width="2" opacity="0.9"/>
  </g>
  <g id="stroke-group-hhtni9juge-4" data-anchor-line="241" data-timestamp="2026-04-21T20:05:38Z">
    <path d="M 391.3909903288833,5907.928312538175 L 391.3909903288833,5907.928312538175 L 391.3909903288833,5907.928312538175 L 391.3909903288833,5907.928312538175 L 393.4781060723018,5908.88731715926 L 395.3961153144721,5910.184534782842 L 397.08828199797233,5911.933437523764 L 399.4568746864653,5916.107118175092 L 400.077666305054,5918.758289479678 L 399.9085598038058,5921.747673786759 L 399.3445042426391,5927.219122897178 L 399.0057404046337,5929.58826642118 L 398.7804486814724,5931.449539605928 L 398.55460612280206,5933.761947072508 L 398.441684843467,5934.326002633675 L 398.3287635641319,5934.66476647168 L 398.10347184097066,5935.228822032846 L 397.93436533972226,5935.454113756008 L 397.7647080029652,5935.679956314679 L 397.3135737211337,5935.961984095262 L 396.80625421738887,5935.961984095262 L 396.0163560975519,5935.172085975425 L 395.3961153144721,5933.874868351843 L 394.94443019713174,5931.731567386511 L 395.0011662545537,5926.711252557924 L 395.33937925705015,5924.398845091345 L 396.07254131946513,5922.255544126013 L 397.8214440603873,5918.363340419759 L 398.9495551827206,5916.727909793681 L 400.19058758438916,5915.43014133459 L 403.06705061213574,5913.343576426681 L 404.3642682357173,5912.722784808092 L 405.661485859299,5912.271650526261 L 408.48176366513246,5911.9896227456775 L 410.0048238473844,5912.158729246925 L 411.6408053089714,5912.609863528757 L 414.4043470573829,5914.189659768431 L 415.3633516784681,5915.317770890764 L 416.26617107764014,5916.897016294929 L 417.1122544193903,5921.014511724345 L 417.1684396413033,5923.214548747098 L 417.0555183619681,5925.526956213678 L 416.32235629955323,5929.926479423677 L 415.9274072396347,5932.0135951670945 L 415.9274072396347,5932.0135951670945" stroke="#DC2626" stroke-width="2" opacity="0.9"/>
  </g>
  <g id="stroke-group-hhtni9juge-5" data-anchor-line="241" data-timestamp="2026-04-21T20:05:38Z">
    <path d="M 430.3108240493856,5917.686363579257 L 430.3108240493856,5917.686363579257 L 430.3108240493856,5917.686363579257 L 430.3108240493856,5917.686363579257 L 430.3108240493856,5917.686363579257 L 430.3108240493856,5917.686363579257 L 430.59285182996905,5919.3785302627575 L 430.8748796105524,5921.183618225592 L 431.21364344855783,5922.650493185931 L 431.7776990097244,5924.680872871928 L 432.0029907328858,5925.188743211182 L 432.22883329155604,5925.526956213678 L 432.67996757338756,5926.091011774844 L 432.9058101320578,5926.373039555428 L 433.1311018552192,5926.598882114098 L 433.75189347380797,5926.711252557924 L 434.0901064763043,5926.711252557924 L 434.48505553622294,5926.485960834763 L 435.2744028205509,5925.752798772348 L 435.7260879378913,5925.132007153759 L 436.12048616230084,5924.51176637068 L 436.8541990602247,5922.650493185931 L 437.0233055614731,5922.198808068591 L 437.3615185639694,5921.35272472684 L 437.5306250652177,5921.014511724345 L 437.75646762388783,5920.788669165674 L 438.3767084069676,5920.506641385091 L 438.94076396813443,5920.676298721848 L 439.95650464664163,5921.691488564846 L 442.2689121132215,5925.865169216175 L 443.22791673430675,5928.065206238928 L 443.84815751738654,5930.152321982347 L 444.75097691655856,5934.326002633675 L 445.31503247772525,5936.300197097758 L 445.54032420088663,5938.218206339929 L 445.7094307021349,5941.940752709425 L 445.6532454802217,5943.858761951596 L 445.54032420088663,5945.776771193766 L 445.0330046971419,5949.386396283928 L 444.5813195798015,5951.13529902485 L 443.84815751738654,5952.770729650928 L 441.7048565520548,5955.534822234848 L 440.40763892847315,5956.550012077847 L 439.0536852474696,5957.396095419596 L 436.51543522221937,5958.242178761347 L 435.8384583817175,5958.242178761347 L 435.2182175986377,5958.073072260098 L 434.2592129775526,5957.565201920845 L 433.5822361370507,5956.944961137765 L 432.5670462940525,5955.647743514183 L 431.15690739113575,5952.432516648431 L 430.649587887391,5950.289215683099 L 430.53666660805595,5948.202099939681 L 430.98780088988747,5944.309896233427 L 431.60804167296726,5942.504808270592 L 432.5108610721394,5940.756456365179 L 434.93618981805434,5937.372122998178 L 436.4025139428843,5935.623771092765 L 438.20760190571946,5933.987789631178 L 442.7767824524751,5930.998405324097 L 445.48413897897353,5929.701187700515 L 448.07857422613677,5928.234312740176 L 448.07857422613677,5928.234312740176" stroke="#DC2626" stroke-width="2" opacity="0.9"/>
  </g>
  <g id="stroke-group-hhtni9juge-6" data-anchor-line="241" data-timestamp="2026-04-21T20:05:39Z">
    <path d="M 469.51268555047136,5903.584974550089 L 469.51268555047136,5903.584974550089 L 469.51268555047136,5903.584974550089 L 469.51268555047136,5903.584974550089 L 469.51268555047136,5903.584974550089 L 472.0509355757216,5908.436182877429 L 472.6149911368883,5909.677215279097 L 473.6301809798865,5911.876701466342 L 474.08186609722713,5912.609863528757 L 474.4762643216367,5913.399761648594 L 475.2099772195605,5914.640794050262 L 475.4352689427218,5915.035743110181 L 475.71729672330514,5915.373956112678 L 475.71729672330514,5915.373956112678" stroke="#DC2626" stroke-width="2" opacity="0.9"/>
  </g>
  <g id="stroke-group-hhtni9juge-7" data-anchor-line="240" data-timestamp="2026-04-21T20:05:39Z">
    <path d="M 472.2200420769698,5893.601631785847 L 472.2200420769698,5893.601631785847 L 472.2200420769698,5893.601631785847 L 472.2200420769698,5893.601631785847 L 472.2200420769698,5893.601631785847 L 472.2200420769698,5893.601631785847 L 472.2200420769698,5893.601631785847 L 472.5588059149752,5897.493284656591 L 472.5588059149752,5897.493284656591" stroke="#DC2626" stroke-width="2" opacity="0.9"/>
  </g>
  <g id="stroke-group-hhtni9juge-8" data-anchor-line="240" data-timestamp="2026-04-21T20:05:39Z">
    <path d="M 488.40854684955593,5896.1398818110965 L 488.40854684955593,5896.1398818110965 L 488.40854684955593,5896.1398818110965 L 488.40854684955593,5896.1398818110965 L 488.40854684955593,5896.1398818110965 L 488.40854684955593,5896.1398818110965 L 489.1417089119708,5897.493284656591 L 489.87542180989476,5899.016344838843 L 491.2288246553894,5902.174835647173 L 491.67995893722093,5903.415868048842 L 491.9619867178044,5904.374872669927 L 492.3007505558097,5905.446798570347 L 492.4136718351449,5905.841196794756 L 492.5827783363932,5906.179960632762 L 492.8080700595543,5906.631094914594 L 492.9777273963116,5906.7440161939285 L 493.0900978401378,5906.800201415841 L 493.3159403988079,5906.631094914594 L 493.37212562072114,5906.461988413345 L 493.4288616781431,5906.179960632762 L 493.37212562072114,5905.50298379226 L 493.25975517689494,5905.108034732341 L 493.14683389755976,5904.713085672423 L 492.69569961572813,5903.867002330673 L 492.4136718351449,5903.472604106263 L 492.0749079971396,5903.077655046345 L 491.3417459347246,5902.456863427757 L 490.9467968748062,5902.231571704595 L 490.55184781488754,5902.062465203347 L 489.7057644731376,5902.062465203347 L 489.1984449693929,5902.231571704595 L 488.23944034830765,5902.73889120834 L 486.71638016605584,5903.979923610008 L 486.0394033255541,5904.713085672423 L 485.6450051011444,5905.220956011676 L 485.3062412631391,5905.72882635093 L 485.0809495399777,5906.236145854675 L 485.02421348255575,5906.800201415841 L 484.96802826064265,5907.364256977008 L 485.1371347618908,5908.549104156764 L 485.3629773205611,5909.1693449398435 L 485.7573755449706,5910.015428281594 L 486.9984079466392,5911.651409743181 L 488.0135977896374,5912.609863528757 L 489.1984449693929,5913.512682927929 L 492.8080700595543,5915.373956112678 L 494.83900058105985,5916.107118175092 L 496.7002737658082,5916.671173736258 L 499.35144507039354,5917.461071856096 L 499.85876457413815,5917.686363579257 L 500.592477472062,5918.025127417262 L 501.55093125763835,5918.476261699094 L 501.7767738163085,5918.645368200342 L 501.94588031755677,5918.81447470159 L 502.05880159689195,5919.322345040844 L 501.8329590382216,5919.942585823924 L 500.87450525264535,5921.014511724345 L 496.98230154639157,5923.665683028929 L 494.83900058105985,5924.849979373176 L 493.0339126182247,5925.865169216175 L 490.3827413136394,5927.332044176514 L 489.31136624872806,5927.726993236432 L 488.521468128891,5928.009021017015 L 487.0551440040613,5928.403419241425 L 486.5472736648077,5928.5163405207595 L 486.15232460488903,5928.5163405207595 L 486.15232460488903,5928.5163405207595" stroke="#DC2626" stroke-width="2" opacity="0.9"/>
  </g>
  <g id="stroke-group-hhtni9juge-9" data-anchor-line="240" data-timestamp="2026-04-21T20:05:40Z">
    <path d="M 527.1592740688101,5887.566127114261 L 527.1592740688101,5887.566127114261 L 527.1592740688101,5887.566127114261 L 527.1592740688101,5887.566127114261 L 528.682334251062,5889.765613301505 L 530.0924731539787,5892.191492882929 L 531.5587972788086,5895.124141132589 L 534.0408620821457,5901.328752305422 L 534.9431306458089,5904.374872669927 L 535.6201074863106,5907.364256977008 L 536.748218608644,5912.835706087427 L 537.1431676685626,5915.43014133459 L 537.3684593917238,5918.194233918511 L 537.8201445090643,5923.665683028929 L 537.9325149528905,5926.147196996758 L 537.9892510103126,5928.460155298846 L 537.9892510103126,5928.460155298846" stroke="#DC2626" stroke-width="2" opacity="0.9"/>
  </g>
  <g id="stroke-group-hhtni9juge-10" data-anchor-line="241" data-timestamp="2026-04-21T20:05:40Z">
    <path d="M 527.2154592907232,5914.471687549014 L 527.2154592907232,5914.471687549014 L 527.2154592907232,5914.471687549014 L 527.2154592907232,5914.471687549014 L 527.2154592907232,5914.471687549014 L 529.9233666527306,5912.89189130934 L 535.2251584263922,5909.451372720427 L 538.1021722896478,5907.4209930344305 L 540.8657140380592,5905.220956011676 L 544.870839023648,5901.328752305422 L 546.6191909290612,5899.0725300607555 L 548.3675428344745,5896.478094813593 L 552.0339039820581,5892.021835546172 L 553.4440428849749,5889.935270638262 L 554.3468622841469,5888.1863678973405 L 555.192945625897,5885.309904869594 L 555.1362095684749,5884.125057689838 L 555.0800243465618,5883.391895627424 L 554.7418113440655,5882.320520562512 L 554.6288900647303,5882.094678003842 L 554.5159687853951,5881.925571502594 L 554.40304750606,5881.8688354451715 L 554.4597835634821,5881.981756724506 L 554.7418113440655,5882.602548343095 L 555.2491308478101,5886.49420121384 L 555.5311586283934,5889.25829379776 L 555.7570011870637,5892.416784606091 L 556.3772419701435,5898.847238337595 L 556.828376251975,5901.836622644676 L 557.1671400899804,5904.487793949262 L 557.9564873743084,5909.11315971793 L 558.2385151548918,5911.0306181245915 L 558.2952512123138,5912.553678306844 L 558.464357713562,5914.979007052759 L 558.5772789928972,5915.994196895757 L 558.6334642148103,5916.614988514346 L 558.6902002722323,5917.179044075512 L 558.6902002722323,5917.404335798674 L 558.6902002722323,5917.573993135431 L 558.5772789928972,5917.743099636679 L 558.2952512123138,5917.686363579257 L 557.674459593725,5917.179044075512 L 557.1104040325584,5916.502067235011 L 556.4901632494787,5915.43014133459 L 555.7570011870637,5912.49749308493 L 555.7002651296416,5910.748590344008 L 556.1519502469822,5908.774395879925 L 557.7873808730602,5905.164770789764 L 559.0284132747288,5903.584974550089 L 560.2694456763974,5902.174835647173 L 562.8638809235605,5900.031534681842 L 564.1049133252291,5899.411293898762 L 565.3459457268976,5899.129266118178 L 567.6583531934775,5899.298372619426 L 568.899385595146,5899.7495069012575 L 570.0274967174794,5900.482668963673 L 571.7196634009795,5902.400678205843 L 572.3966402414814,5903.641710607511 L 573.0168810245611,5905.051849510428 L 573.5247513638149,5907.872127316262 L 573.5809365857278,5909.000238438595 L 573.693857865063,5910.2412708402635 L 573.693857865063,5912.271650526261 L 573.5809365857278,5913.11773386801 L 573.5247513638149,5913.96381720976 L 573.3556448625665,5915.373956112678 L 573.2427235832315,5915.8818264519305 L 573.2427235832315,5915.8818264519305" stroke="#DC2626" stroke-width="2" opacity="0.9"/>
  </g>
  <g id="stroke-group-hhtni9juge-11" data-anchor-line="241" data-timestamp="2026-04-21T20:05:41Z">
    <path d="M 581.9855847813153,5901.554594864093 L 581.9855847813153,5901.554594864093 L 581.9855847813153,5901.554594864093 L 581.9855847813153,5901.554594864093 L 582.4367190631469,5902.73889120834 L 582.7749320656433,5903.754631886846 L 583.2828024048969,5905.50298379226 L 583.5086449635672,5906.292881912097 L 583.6210154073934,5907.026043974512 L 583.6777514648154,5907.646284757591 L 583.6777514648154,5907.646284757591" stroke="#DC2626" stroke-width="2" opacity="0.9"/>
  </g>
  <g id="stroke-group-hhtni9juge-12" data-anchor-line="240" data-timestamp="2026-04-21T20:05:41Z">
    <path d="M 583.6777514648154,5893.601631785847 L 583.6777514648154,5893.601631785847 L 583.6777514648154,5893.601631785847 L 583.6777514648154,5893.601631785847 L 583.6777514648154,5893.601631785847 L 583.6777514648154,5893.601631785847" stroke="#DC2626" stroke-width="2" opacity="0.9"/>
  </g>
  <g id="stroke-group-hhtni9juge-13" data-anchor-line="240" data-timestamp="2026-04-21T20:05:41Z">
    <path d="M 620.6233907212344,5890.555511421342 L 620.6233907212344,5890.555511421342 L 620.6233907212344,5890.555511421342 L 620.6233907212344,5890.555511421342 L 620.6233907212344,5890.555511421342 L 622.3155574047345,5894.334793848261 L 625.0229139312328,5901.723701365341 L 626.2639463329014,5905.446798570347 L 627.3920574552347,5908.605289378676 L 628.2943260188979,5912.722784808092 L 628.4634325201462,5914.189659768431 L 628.6330898569033,5915.543062613926 L 628.9151176374867,5917.066122796177 L 628.9713028593998,5917.34815057676 L 629.0274880813129,5917.573993135431 L 629.1404093606479,5917.856020916014 L 629.19714541807,5917.912206137928 L 629.2533306399831,5917.912206137928 L 629.3662519193183,5917.34815057676 L 629.4224371412313,5916.614988514346 L 629.5915436424796,5915.091928332094 L 629.8735714230629,5912.158729246925 L 629.8735714230629,5910.692405122096 L 629.8173862011497,5909.056423660509 L 629.5353584205665,5904.826006951758 L 629.5915436424796,5902.5697847070915 L 629.9864927023981,5900.370298519847 L 631.2275251040666,5896.308988312345 L 631.9606871664815,5894.729742908179 L 632.5814787850702,5893.319604005263 L 633.8219603512298,5891.34540954118 L 634.6118584710669,5890.781353980013 L 635.3450205334816,5890.49932619943 L 636.6989742144854,5890.555511421342 L 637.883270558732,5891.232488261844 L 639.2372242397355,5892.3605993841775 L 641.6063677637375,5895.237062411924 L 642.3957150480654,5896.873043873511 L 643.1288771104804,5898.621395778924 L 643.8058539509823,5902.11865042526 L 644.0316965096524,5903.867002330673 L 644.0878817315656,5905.446798570347 L 644.5390160133971,5908.323261598093 L 644.8777798514026,5909.5642939997615 L 645.0468863526507,5910.466562563425 L 645.3289141332342,5911.369381962597 L 645.3289141332342,5911.369381962597" stroke="#DC2626" stroke-width="2" opacity="0.9"/>
  </g>
  <g id="stroke-group-hhtni9juge-14" data-anchor-line="241" data-timestamp="2026-04-21T20:05:42Z">
    <path d="M 657.8510577582367,5898.396104055763 L 657.8510577582367,5898.396104055763 L 657.8510577582367,5898.396104055763 L 657.8510577582367,5898.396104055763 L 657.8510577582367,5898.396104055763 L 662.194395746322,5894.7859281300925 L 665.6349143352354,5891.514516042427 L 666.875946736904,5890.329668862672 L 667.8911365799022,5889.201557740339 L 668.9063264229005,5887.848154894844 L 669.357460704732,5887.3970206130125 L 669.6394884853154,5887.002071553094 L 670.0344375452339,5886.268909490679 L 670.147358824569,5885.930145652674 L 670.3164653258173,5885.591932650177 L 670.3732013832392,5885.196983590258 L 670.260280103904,5885.027877089011 L 670.0911736026559,5884.914955809675 L 669.6962245427375,5884.914955809675 L 669.3012754828189,5885.140798368346 L 668.3990069191558,5885.930145652674 L 666.3680763976504,5889.314479019674 L 665.5787291133222,5890.893724423839 L 664.9579374947335,5892.473520663512 L 664.1685902104056,5895.519090192507 L 664.1685902104056,5896.873043873511 L 664.3938819335668,5898.170261497093 L 664.9017522728204,5899.862428180593 L 665.4090717765652,5900.482668963673 L 665.8607568939057,5900.934354081013 L 668.6242986423172,5901.7804374227635 L 670.8243356650709,5901.836622644676 L 672.9114514084895,5901.554594864093 L 676.8031042792343,5900.482668963673 L 678.4952709627344,5899.524215178097 L 680.0745163668993,5898.565210557012 L 682.6127663921494,5896.478094813593 L 683.7408775144828,5895.575826249929 L 684.8689886368163,5894.616821628844 L 686.9561043802349,5892.698812386674 L 687.6330812207367,5891.852729044924 L 688.0842155025683,5891.0066457031735 L 688.4791645624867,5889.709428079592 L 688.5920858418219,5888.919529959755 L 688.5920858418219,5888.1863678973405 L 688.1409515599903,5886.7200437725105 L 687.9151090013202,5886.155988211344 L 687.6892664426498,5885.704853929512 L 687.06902565957,5884.971141031589 L 686.6740765996516,5884.632928029092 L 686.2791275397332,5884.350900248509 L 685.3768589760699,5884.012687246012 L 684.699882135568,5884.012687246012 L 683.5155857913217,5884.350900248509 L 680.5823867061529,5887.114992832429 L 679.6233820850678,5888.863344737842 L 678.9464052445659,5890.781353980013 L 678.5520070201563,5894.108951289591 L 678.6643774639825,5895.4629049705945 L 678.9464052445659,5896.760122594176 L 679.792488586316,5898.903423559508 L 680.4132802049047,5899.636585621923 L 681.1464422673197,5900.257377240511 L 684.3049330756496,5901.159645804175 L 686.5611553203164,5901.441673584758 L 688.9870349017403,5901.441673584758 L 694.6837757353205,5900.990539302927 L 697.8990026010725,5900.595590243008 L 700.8322016862411,5900.088270739263 L 706.4727572979082,5898.96015961693 L 708.728979542575,5898.396104055763 L 708.728979542575,5898.396104055763" stroke="#DC2626" stroke-width="2" opacity="0.9"/>
  </g>
  <g id="stroke-group-hhtni9juge-15" data-anchor-line="240" data-timestamp="2026-04-21T20:05:42Z">
    <path d="M 726.2708871606558,5887.227363276255 L 726.2708871606558,5887.227363276255 L 726.2708871606558,5887.227363276255 L 726.2708871606558,5887.227363276255 L 726.2708871606558,5887.227363276255 L 726.2708871606558,5887.227363276255 L 726.2708871606558,5887.227363276255 L 726.2708871606558,5887.227363276255 L 726.2708871606558,5887.227363276255 L 726.2708871606558,5887.227363276255 L 726.2708871606558,5887.227363276255 L 726.2708871606558,5887.227363276255 L 724.9736695370742,5887.227363276255 L 719.7842482072386,5888.412210456011 L 716.9639704014052,5889.765613301505 L 714.5948268774032,5891.457779985006 L 711.6054425703217,5895.857854030513 L 710.7031740066584,5898.339367998341 L 710.1391184454917,5900.65232630043 L 709.5183268269029,5904.487793949262 L 709.4621416049899,5905.785011572843 L 709.6874333281511,5906.631094914594 L 710.0823823880696,5907.477178256344 L 710.3644101686531,5907.703020815014 L 710.7031740066584,5907.81539125884 L 712.9593962513252,5907.646284757591 L 714.9335907154086,5906.7440161939285 L 717.0768916807403,5905.333877291012 L 721.1382018882424,5901.610780086006 L 723.1123963523258,5899.693321679345 L 724.9169334796521,5897.550020714013 L 728.019239066069,5893.26286794784 L 728.9782436871541,5891.0066457031735 L 729.5990353057429,5888.863344737842 L 730.5013038694061,5884.520006749757 L 730.7833316499895,5882.376705784425 L 730.8395168719024,5880.176668761671 L 730.6704103706543,5875.100168711171 L 730.7271464280763,5872.167520461511 L 730.6704103706543,5869.008478817673 L 730.445118647493,5863.142631482844 L 730.3321973681578,5860.71675190142 L 730.0501695875745,5858.799293494759 L 729.7681418069911,5856.48633519267 L 729.7681418069911,5856.261043469509 L 729.7681418069911,5856.091936968261 L 729.711405749569,5855.979015688925 L 729.5422992483209,5856.204307412087 L 729.0911649664893,5857.33241853442 L 727.7939473429077,5862.352733363007 L 727.1731557243189,5865.624145450673 L 726.7787574999094,5868.895557538337 L 726.2147019387427,5875.49511777109 L 726.383808439991,5878.597423357506 L 726.6091001631522,5881.41770116334 L 727.2860770036541,5886.212173433257 L 727.9068686222428,5888.412210456011 L 728.5832946272357,5890.104377139511 L 730.3321973681578,5892.416784606091 L 731.347387211156,5893.206682725928 L 732.2496557748192,5893.88365956643 L 734.7317205781563,5894.673006850758 L 735.9160169224027,5894.7859281300925 L 737.2137853814934,5894.842113352006 L 739.8644058505697,5894.278057790839 L 741.3312808109084,5893.770738287094 L 742.572313212577,5893.26286794784 L 745.1667484597403,5891.796543823011 L 746.1257530808256,5891.0066457031735 L 746.9151003651535,5890.329668862672 L 748.0999475449089,5889.032451239091 L 748.6072670486536,5888.243103954763 L 749.1713226098203,5887.002071553094 L 749.9050355077443,5884.520006749757 L 750.1870632883275,5882.038492781929 L 750.1303272309054,5881.0794881608435 L 749.9050355077443,5880.402511320342 L 749.735378170987,5879.95137703851 L 749.5100864478256,5879.669349257927 L 749.002216108572,5879.218214976096 L 748.6640031060757,5879.0485576393385 L 748.0999475449089,5878.936187195512 L 745.5616975196588,5879.782270537262 L 743.8695308361587,5881.0794881608435 L 742.4593919332419,5882.658733565008 L 740.6543039704067,5885.817224373339 L 740.203169688575,5887.453205834925 L 739.9773271299049,5888.919529959755 L 739.8644058505697,5891.232488261844 L 740.0902484092401,5892.134756825508 L 740.5413826910715,5892.924654945345 L 742.4026558758198,5894.447715127596 L 743.7566095568236,5894.898849409427 L 745.7308040209069,5895.124141132589 L 750.525276290824,5894.842113352006 L 753.007341094161,5894.447715127596 L 755.3197485607409,5894.052766067678 L 759.7192717707394,5892.698812386674 L 761.6934662348228,5891.9656503242595 L 763.3294476964098,5891.175752204423 L 766.2059107241565,5888.976266017177 L 767.4469431258251,5887.904340116757 L 768.6312394700715,5886.945335495672 L 770.605433934155,5884.858770587763 L 771.451517275905,5883.166603904262 L 772.297600617655,5880.79746038026 L 772.5234431763254,5879.330585419922 L 772.6363644556604,5877.808076073178 L 772.5796283982384,5875.326011269842 L 772.297600617655,5874.423742706178 L 772.1284941164068,5873.8029510875895 L 771.8464663358235,5873.0136038032615 L 771.6773598345752,5872.787761244591 L 771.508253333327,5872.618654743343 L 770.8312764928253,5872.561918685921 L 769.87227187174,5873.238895526423 L 768.5750542481585,5874.987798267345 L 766.6008597840749,5879.0485576393385 L 766.0929894448213,5880.966566881509 L 765.810961664238,5882.602548343095 L 765.5289338836548,5885.253168812172 L 765.5856699410767,5886.155988211344 L 765.7547764423249,5886.889150273759 L 766.3188320034916,5888.017261396092 L 766.657045005988,5888.355474398589 L 766.9958088439935,5888.581316957259 L 767.8418921857435,5888.863344737842 L 768.293026467575,5888.863344737842 L 769.0829245874121,5888.750423458507 L 771.1694894953216,5887.791418837422 L 772.5234431763254,5886.832965051845 L 774.1026885804904,5885.253168812172 L 776.5280173264053,5881.530622442675 L 776.5280173264053,5881.530622442675" stroke="#DC2626" stroke-width="2" opacity="0.9"/>
  </g>
  <g id="stroke-group-hhtni9juge-16" data-anchor-line="238" data-timestamp="2026-04-21T20:05:43Z">
    <path d="M 775.7386700420773,5841.200649819256 L 775.2307997028237,5835.616279429502 L 774.8358506429051,5834.375797863342 L 774.666744141657,5833.980848803424 L 774.2717950817386,5834.037034025337 L 773.7644755779938,5834.657825643926 L 772.974577458157,5836.632020108009 L 771.1133042734086,5843.061923004005 L 770.2672209316585,5846.55917765034 L 769.5902440911567,5850.16935357601 L 768.4621329688233,5859.363349055926 L 768.0109986869917,5864.326927827091 L 767.7289709064083,5869.234321376342 L 767.7851561283214,5877.751340015757 L 768.2368412456619,5881.192409440178 L 768.8570820287417,5884.181793747261 L 770.4930634903288,5889.765613301505 L 770.4930634903288,5889.765613301505" stroke="#DC2626" stroke-width="2" opacity="0.9"/>
  </g>
</svg>
