<svg xmlns="http://www.w3.org/2000/svg" data-source-file="/data/user/0/com.praveen.gitmdannotations_tablet/app_flutter/repos/alvin4frnds/surri/jobs/pending/spec-001-open-overbid-window/02-spec.md" data-source-sha="d338bb482c96f9636ccc29cdb8847bd777889245">
  <g id="stroke-group-hhtnof1x19-195" data-anchor-line="262" data-timestamp="2026-04-21T20:23:14Z">
    <path d="M 646.7946618986422,6947.275536047884 L 646.7946618986422,6947.275536047884 L 646.7946618986422,6947.275536047884 L 646.7946618986422,6947.275536047884 L 646.7946618986422,6947.275536047884" stroke="#DC2626" stroke-width="2" opacity="0.9"/>
  </g>
  <g id="stroke-group-hhtnof1x19-196" data-anchor-line="262" data-timestamp="2026-04-21T20:23:14Z">
    <path d="M 634.5741050869706,6942.8416864838555 L 634.5741050869706,6942.8416864838555 L 634.5741050869706,6942.8416864838555 L 634.5741050869706,6942.8416864838555 L 634.5741050869706,6942.8416864838555 L 634.5741050869706,6942.8416864838555 L 634.5741050869706,6942.8416864838555 L 634.5741050869706,6942.8416864838555 L 634.685806368454,6942.580807595179 L 635.0209102129041,6942.3945175101 L 635.8406593568199,6942.543695117292 L 636.734997304332,6943.027976568936 L 637.5918589261347,6943.661435627771 L 638.4487205479375,6944.332007164494 L 639.231357213966,6945.002578701217 L 639.9019287506889,6945.822327845132 L 640.4607990059283,6947.126358440692 L 640.9821929354584,6948.318687754767 L 641.4668382349239,6949.2872506580525 L 641.8394184050834,6950.144112279855 L 642.1374097716467,6950.926748945884 L 642.3608123346136,6951.485619201124 L 642.5099899418065,6952.08160193425 L 642.6962800268861,6952.677948515199 L 642.8079813083696,6953.124753641133 L 642.9571589155624,6953.609398940598 L 642.9942713934493,6953.869913981452 L 643.0688601970459,6954.130792870128 L 643.1059726749327,6954.354559280917 L 643.1805614785292,6954.540849365997 L 643.1805614785292,6954.540849365997" stroke="#DC2626" stroke-width="2" opacity="0.9"/>
  </g>
  <g id="stroke-group-hhtnof1x19-197" data-anchor-line="262" data-timestamp="2026-04-21T20:23:14Z">
    <path d="M 648.9184416381165,6945.1142799827 L 648.9184416381165,6945.1142799827 L 648.9184416381165,6945.1142799827 L 648.9184416381165,6945.1142799827 L 648.9184416381165,6945.1142799827 L 648.9184416381165,6945.1142799827 L 648.9184416381165,6945.1142799827 L 648.6200864237309,6947.089245962804 L 648.0612161684915,6949.100960572973 L 647.2043545466887,6951.001337749481 L 646.2729041212897,6952.789649796682 L 645.1180511329237,6954.428784236691 L 643.9257218188484,6956.068282524522 L 642.9571589155624,6957.894070897433 L 642.1374097716467,6959.756971748232 L 641.354773105618,6961.507807469724 L 640.6470890910082,6963.259007039039 L 639.9390412285759,6964.898505326871 L 639.231357213966,6966.388826007509 L 638.7095994366135,6967.692856603067 L 638.337019266454,6968.8105971135465 L 638.337019266454,6968.8105971135465" stroke="#DC2626" stroke-width="2" opacity="0.9"/>
  </g>
  <g id="stroke-group-hhtnof1x19-198" data-anchor-line="262" data-timestamp="2026-04-21T20:23:14Z">
    <path d="M 656.593447604276,6946.865479552015 L 656.593447604276,6946.865479552015 L 656.593447604276,6946.865479552015 L 656.593447604276,6946.865479552015 L 656.8914389708391,6948.504977839846 L 657.077729055919,6950.032410998372 L 657.1523178595154,6951.6344329604935 L 657.1523178595154,6953.050528685359 L 657.0031402523225,6954.466260562401 L 656.8168501672428,6955.91910491733 L 656.593447604276,6957.297724316485 L 656.3700450413093,6958.49005363056 L 656.109166152633,6959.570681663152 L 655.8482872639566,6960.502132088551 L 655.5502958973935,6961.284404906757 L 655.2894170087172,6961.99245276919 L 655.1777157272338,6962.439257895123 L 655.1031269236374,6962.811838065283 L 655.1031269236374,6962.811838065283" stroke="#DC2626" stroke-width="2" opacity="0.9"/>
  </g>
  <g id="stroke-group-hhtnof1x19-199" data-anchor-line="262" data-timestamp="2026-04-21T20:23:15Z">
    <path d="M 655.1031269236374,6950.963861423771 L 655.1031269236374,6950.963861423771 L 655.3265294866043,6949.548129546729 L 655.4757070937972,6949.100960572973 L 655.6619971788768,6948.542090317734 L 656.109166152633,6947.536051088738 L 656.4071575191963,6946.977180833498 L 656.7051488857594,6946.530375707565 L 657.1523178595154,6945.934029126616 L 657.6365993111584,6945.33804639349 L 658.1583570885109,6944.7791761382505 L 658.8660411031207,6944.108604601527 L 659.6112014434401,6943.549734346288 L 660.5426518688391,6942.990864091048 L 661.4741022942383,6942.655396398775 L 662.3684402417502,6942.580807595179 L 663.0390117784731,6942.580807595179 L 663.4490682743423,6942.618283920889 L 663.7841721187924,6942.7299852023725 L 664.0079385295817,6942.8416864838555 L 664.4176311776282,6943.288855457612 L 664.6410337405952,6943.9594269943345 L 664.6410337405952,6943.9594269943345" stroke="#DC2626" stroke-width="2" opacity="0.9"/>
  </g>
  <g id="stroke-group-hhtnof1x19-200" data-anchor-line="262" data-timestamp="2026-04-21T20:23:15Z">
    <path d="M 657.7483005926418,6954.615074321771 L 657.7483005926418,6954.615074321771 L 659.0898075139099,6954.019091588644 L 661.8841587901072,6952.938463556053 L 663.4861807522292,6952.417069626523 L 664.9393889549808,6951.89531184917 L 666.1688307469431,6951.485619201124 L 667.0256923687457,6951.187627834561 L 667.5474501460981,6951.001337749481 L 667.733740231178,6950.926748945884 L 667.8454415126614,6950.889272620175 L 667.8825539905484,6950.889272620175 L 667.8454415126614,6950.926748945884 L 667.3236837353089,6951.2247403124475 L 666.6531121985861,6951.56020800472 L 665.758774251074,6952.007013130654 L 663.5978820337127,6953.236818770439 L 663.5978820337127,6953.236818770439" stroke="#DC2626" stroke-width="2" opacity="0.9"/>
  </g>
  <g id="stroke-group-hhtnof1x19-201" data-anchor-line="263" data-timestamp="2026-04-21T20:23:15Z">
    <path d="M 655.4385946159101,6962.998128150362 L 655.4385946159101,6962.998128150362 L 655.4385946159101,6962.998128150362 L 655.4385946159101,6962.998128150362 L 656.6680364078724,6962.3650329393495 L 658.1583570885109,6961.58239627332 L 659.574088965553,6960.8372359330015 L 661.2135872533844,6959.980374311199 L 662.778132889797,6959.1981014929925 L 664.4176311776282,6958.415464826964 L 665.758774251074,6957.744893290241 L 666.6902246764731,6957.223135512889 L 667.6591514275815,6956.701741583358 L 668.4789005714972,6956.403750216795 L 669.8946324485394,6955.844879961555 L 670.3043250965861,6955.658589876476 L 670.3043250965861,6955.658589876476" stroke="#DC2626" stroke-width="2" opacity="0.9"/>
  </g>
  <g id="stroke-group-hhtnof1x19-202" data-anchor-line="262" data-timestamp="2026-04-21T20:23:15Z">
    <path d="M 677.6813396961822,6947.87151878101 L 677.6813396961822,6947.87151878101 L 677.6813396961822,6947.87151878101 L 677.6813396961822,6947.87151878101 L 677.6813396961822,6947.87151878101 L 677.6813396961822,6947.87151878101 L 677.6813396961822,6947.87151878101 L 677.383348329619,6947.536051088738 L 677.1224694409428,6947.275536047884 L 676.7873655964927,6947.089245962804 L 676.414785426333,6946.902955877725 L 676.0422052561734,6946.753778270531 L 675.1107548307742,6946.716665792645 L 674.6635858570182,6946.790890748419 L 674.2164168832622,6946.902955877725 L 673.8067242352155,6947.089245962804 L 673.5458453465394,6947.275536047884 L 673.3595552614595,6947.461826132964 L 673.1361526984927,6947.796929977414 L 673.0986763727832,6948.281211429057 L 673.434144065056,6949.138436898682 L 674.4772957719384,6950.256177409161 L 675.967616452577,6951.075562705255 L 677.9422185848586,6951.597320482607 L 679.1716603768208,6951.746498089799 L 680.4014660166055,6951.9327881748795 L 683.1212284892064,6952.565883385893 L 685.3192331844548,6953.311043726212 L 686.5490388242395,6953.795689025677 L 686.7353289093194,6953.944502785048 L 686.8470301908028,6954.056204066532 L 686.8470301908028,6954.354559280917 L 686.6607401057229,6954.615074321771 L 685.5429995952439,6955.286009706317 L 683.9780901110091,6955.91910491733 L 682.2643668674036,6956.477975172569 L 680.7365698610558,6956.962620472034 L 679.4325392654971,6957.446901923678 L 678.2030974735346,6957.782005768127 L 677.0482444851688,6958.005772178917 L 676.0793177340604,6958.192062263997 L 675.2595685901447,6958.340876023367 L 674.6264733791312,6958.415464826964 L 674.2538932089715,6958.452941152673 L 673.7692479095061,6958.527166108447 L 673.5829578244262,6958.564642434157 L 673.3966677393465,6958.601754912043 L 673.1361526984927,6958.67634371564 L 673.0615638948963,6958.713456193527 L 673.1732651763797,6958.713456193527 L 673.9184255166989,6958.564642434157 L 673.9184255166989,6958.564642434157" stroke="#DC2626" stroke-width="2" opacity="0.9"/>
  </g>
  <g id="stroke-group-hhtnof1x19-203" data-anchor-line="265" data-timestamp="2026-04-21T20:23:33Z">
    <path d="M 355.95836276333876,7021.344401106055 L 355.95836276333876,7021.344401106055 L 355.95836276333876,7021.344401106055 L 355.95836276333876,7021.344401106055 L 355.95836276333876,7021.344401106055 L 355.95836276333876,7021.344401106055 L 357.15069207741396,7020.710942047219 L 358.6039002801656,7019.9657817069 L 360.09422096080414,7019.295210170177 L 361.8079442044094,7018.550049829858 L 363.85713514028737,7017.693188208055 L 366.16720496484163,7017.208542908589 L 368.81237863384615,7016.50085889398 L 371.5696174321563,7015.867399835144 L 374.3639687083536,7015.345642057791 L 376.97202989947107,7014.7125468467775 L 379.542614764879,7014.004498984345 L 382.29985356318934,7013.259338644027 L 385.65307509462605,7012.514178303707 L 389.4905780777058,7011.8436067669845 L 396.4950125071424,7010.539576171425 L 399.9228228421755,7009.9061171125895 L 403.79780215096457,7009.384359335238 L 407.85870769701114,7008.862965405707 L 411.39821931352765,7008.378683954064 L 414.3417481969177,7007.931514980308 L 416.91269691014827,7007.5589348101485 L 419.63245938274906,7007.260943443585 L 422.3893343332369,7007.000064554909 L 425.07198432795076,7006.776298144119 L 427.68004551906813,7006.552895581153 L 429.95300286573547,7006.441194299669 L 431.59213730574436,7006.40371797396 L 432.85905542341607,7006.40371797396 L 433.7905058488151,7006.478306777556 L 434.423964907651,7006.515783103266 L 434.64736747061784,7006.552895581153 L 434.7965450778106,7006.59000805904 L 434.94535883718106,7006.62748438475 L 435.0570601186645,7006.702073188346 L 435.13164892226087,7006.776298144119 L 435.13164892226087,7006.888363273425 L 435.0570601186645,7007.037177032796 L 434.7965450778106,7007.335168399359 L 433.93931960818554,7007.931514980308 L 432.6352890126269,7008.564974039144 L 431.10785585410133,7009.086367968674 L 429.2820674811902,7009.4964244645425 L 427.4566429561014,7009.831528308993 L 425.48204082381983,7010.129519675556 L 423.06026971778215,7010.390398564233 L 420.8619011747114,7010.688389930796 L 419.0361128018002,7011.060970100955 L 417.2852770803079,7011.433550271115 L 415.4223762295097,7011.731905485501 L 413.671176660195,7012.029896852064 L 411.54739692072053,7012.402477022224 L 409.01392453319943,7012.84964599598 L 406.40586334208206,7013.296451121913 L 403.7603258252552,7013.781096421379 L 401.2643297634436,7014.116200265829 L 398.99137241677647,7014.414191632392 L 396.9421814808984,7014.749659324665 L 394.8558780671334,7015.047650691228 L 392.24781687601603,7015.308529579905 L 389.71434448849504,7015.606520946468 L 387.3296858603444,7015.979101116627 L 384.94502723219375,7016.426270090383 L 383.0079014256215,7016.724261456946 L 380.1760738237149,7017.096841627106 L 379.05833331323606,7017.134317952816 L 378.2014716914334,7017.096841627106 L 377.7171902397903,7017.096841627106 L 377.49342382900113,7017.096841627106 L 377.3446100696307,7017.134317952816 L 377.1954324624378,7017.1714304307025 L 377.0837311809545,7017.208542908589 L 376.97202989947107,7017.208542908589 L 376.89744109587457,7017.208542908589 L 376.89744109587457,7017.1714304307025 L 376.97202989947107,7017.134317952816 L 377.4563113511141,7016.910551542026 L 378.536939383706,7016.46338256827 L 380.1760738237149,7015.94198863874 L 381.96438587091666,7015.681109750064 L 383.9018755253112,7015.159351972711 L 386.17483287197854,7014.451667958102 L 389.00629662606275,7013.929910180749 L 391.80064790226004,7013.37103992551 L 394.334120289781,7012.737580866674 L 396.60707763644825,7012.10448565566 L 399.0288487424858,7011.508139074712 L 401.78572369297365,7010.986745145182 L 404.8038413799601,7010.464987367829 L 407.85870769701114,7009.943229590476 L 410.5788340174345,7009.421835660946 L 412.8885399941663,7008.974666687191 L 414.9752072557536,7008.602086517031 L 416.8752205844388,7008.229506346871 L 418.7010089573499,7007.856926176712 L 420.750199893228,7007.521458484439 L 422.6502132219131,7007.335168399359 L 424.3268239876314,7007.260943443585 L 425.70544338678656,7007.1488783142795 L 426.7114826157821,7007.074653358505 L 427.1211752638287,7007.111765836392 L 427.23287654531214,7007.1488783142795 L 427.2703528710216,7007.186354639989 L 426.9348851787489,7007.447233528665 L 425.7425558646736,7007.931514980308 L 424.2897115097445,7008.490385235547 L 422.3893343332369,7008.974666687191 L 420.34014339735893,7009.4964244645425 L 418.4772425465608,7009.980705916186 L 416.688930499359,7010.502099845716 L 414.7889171706738,7011.098446426665 L 410.7276477768048,7012.141598133548 L 408.5296430815565,7012.700468388787 L 406.6292659050489,7013.1847498404295 L 404.69177625065424,7013.594806336299 L 402.86635172556555,7013.967386506459 L 401.4877323264104,7014.302490350909 L 400.44458061952787,7014.451667958102 L 399.62483147561227,7014.451667958102 L 399.32684010904904,7014.526256761698 L 399.17766250185616,7014.563369239585 L 399.1030736982599,7014.563369239585 L 399.1030736982599,7014.488780435989 L 399.1030736982599,7014.488780435989" stroke="#DC2626" stroke-width="2" opacity="0.9"/>
  </g>
  <g id="stroke-group-hhtnof1x19-204" data-anchor-line="264" data-timestamp="2026-04-21T20:23:33Z">
    <path d="M 442.62072865116295,7009.384359335238 L 442.54613984756645,7010.576688649313 L 442.54613984756645,7011.582727878308 L 442.62072865116295,7012.514178303707 L 442.6949536069369,7012.6633559109 L 442.80701873624275,7012.775057192383 L 443.0675337770965,7012.81216967027 L 443.2167113842894,7012.81216967027 L 443.4030014693692,7012.84964599598 L 443.589291554449,7012.84964599598 L 443.589291554449,7012.84964599598" stroke="#DC2626" stroke-width="2" opacity="0.9"/>
  </g>
  <g id="stroke-group-hhtnof1x19-205" data-anchor-line="264" data-timestamp="2026-04-21T20:23:34Z">
    <path d="M 435.72799550320974,7011.5456154004205 L 435.72799550320974,7011.5456154004205 L 435.72799550320974,7011.5456154004205 L 435.72799550320974,7011.5456154004205 L 435.72799550320974,7011.5456154004205 L 435.72799550320974,7011.5456154004205 L 435.72799550320974,7011.5456154004205 L 437.3300174653316,7012.551290781594 L 438.6711605387774,7013.520217532702 L 439.7889010492563,7014.451667958102 L 440.8695290818482,7015.345642057791 L 441.72639070365085,7016.3145688089 L 442.3969622403737,7017.208542908589 L 442.9187200177262,7018.065768378215 L 443.2538238621763,7018.885153674308 L 443.589291554449,7019.704902818224 L 443.99898420249565,7020.860119654411 L 444.07357300609203,7021.195223498862 L 444.14816180968853,7021.4561023875385 L 444.2227506132848,7021.716981276215 L 444.3344518947682,7021.940383839181 L 444.4090406983647,7022.201262727857 L 444.5578544577352,7022.462141616534 L 444.74414454281487,7022.6855441795005 L 444.74414454281487,7022.6855441795005" stroke="#DC2626" stroke-width="2" opacity="0.9"/>
  </g>
  <g id="stroke-group-hhtnof1x19-206" data-anchor-line="265" data-timestamp="2026-04-21T20:23:34Z">
    <path d="M 447.24050445244893,7014.898836931858 L 447.24050445244893,7014.898836931858 L 447.24050445244893,7014.898836931858 L 447.24050445244893,7014.898836931858 L 447.24050445244893,7014.898836931858 L 447.24050445244893,7014.898836931858 L 447.24050445244893,7014.898836931858 L 446.9054006079987,7016.09080239811 L 446.5699329157261,7017.246019234299 L 445.52678120884366,7019.77949162182 L 445.0424997572005,7021.120634695266 L 444.2227506132848,7022.462141616534 L 443.3284126657728,7023.728695886383 L 442.4715510439702,7024.883912722571 L 441.61468942216743,7026.00165323305 L 440.7578278003648,7026.970216136337 L 440.01266746004546,7027.789965280252 L 439.4163208790966,7028.609714424168 L 438.82033814597025,7029.391987242374 L 438.3360566943271,7030.21173638629 L 438.3360566943271,7030.21173638629" stroke="#DC2626" stroke-width="2" opacity="0.9"/>
  </g>
  <g id="stroke-group-hhtnof1x19-207" data-anchor-line="264" data-timestamp="2026-04-21T20:23:34Z">
    <path d="M 452.754618201247,7012.6633559109 L 452.754618201247,7012.6633559109 L 452.754618201247,7012.6633559109 L 452.754618201247,7012.6633559109 L 453.05297341563266,7014.377079154505 L 453.201787175003,7015.904512313031 L 453.2763759785995,7017.134317952816 L 453.2763759785995,7018.363759744778 L 453.2763759785995,7019.77949162182 L 453.1646746971161,7021.940383839181 L 453.12719837140673,7022.573842898017 L 453.05297341563266,7023.132713153256 L 452.9783846120363,7023.616994604899 L 452.86668333055286,7024.064163578656 L 452.754618201247,7024.883912722571 L 452.754618201247,7024.883912722571" stroke="#DC2626" stroke-width="2" opacity="0.9"/>
  </g>
  <g id="stroke-group-hhtnof1x19-208" data-anchor-line="265" data-timestamp="2026-04-21T20:23:34Z">
    <path d="M 452.1957479460076,7016.016577442337 L 452.1957479460076,7016.016577442337 L 452.1957479460076,7016.016577442337 L 452.1957479460076,7016.016577442337 L 452.1957479460076,7016.016577442337 L 452.1957479460076,7016.016577442337 L 452.1957479460076,7016.016577442337 L 452.60580444187667,7015.56940846858 L 453.49977854156623,7014.786771802552 L 454.50581777056186,7014.079087787942 L 455.6235582810407,7013.520217532702 L 456.778775117229,7013.0730485589465 L 457.74733802051514,7012.737580866674 L 458.38079707935094,7012.551290781594 L 459.0884810939608,7012.327888218627 L 459.6473513492002,7012.253299415031 L 459.9828190414729,7012.178710611434 L 460.3182867337455,7012.253299415031 L 460.5045768188253,7012.327888218627 L 460.65339057819574,7012.402477022224 L 460.6908669039052,7012.588767107303 L 460.6908669039052,7012.588767107303" stroke="#DC2626" stroke-width="2" opacity="0.9"/>
  </g>
  <g id="stroke-group-hhtnof1x19-209" data-anchor-line="265" data-timestamp="2026-04-21T20:23:35Z">
    <path d="M 455.9215496476039,7021.008933413782 L 455.9215496476039,7021.008933413782 L 457.0767664837922,7020.673829569332 L 458.1570306685617,7020.412950680656 L 459.3122475047501,7019.9657817069 L 460.6162781003087,7019.257733844467 L 461.0634470740648,7019.0343312815 L 461.2497371591446,7018.922630000017 L 461.5848410035949,7018.773452392825 L 461.65942980719126,7018.736339914937 L 461.6965422850783,7018.698863589228 L 461.73401861078764,7018.661751111341 L 461.6965422850783,7018.661751111341 L 461.5848410035949,7018.661751111341 L 461.2497371591446,7018.773452392825 L 460.8025681853886,7018.885153674308 L 459.8711177599895,7019.257733844467 L 459.0513686160738,7019.59320153674 L 458.19450699427114,7020.002894184787 L 457.4493466539519,7020.3383618770595 L 456.815887595116,7020.673829569332 L 456.21990486198956,7021.083522217378 L 455.7352595625241,7021.4561023875385 L 455.32556691447746,7021.791570079811 L 454.95298674431785,7022.126673924261 L 454.69210785564167,7022.424665290824 L 454.43122896696536,7022.72302050521 L 454.24493888188556,7022.983535546064 L 454.05864879680576,7023.28189076045 L 453.87235871172595,7023.579882127013 L 453.68606862664615,7023.877873493576 L 453.5372548672757,7024.175864860139 L 453.49977854156623,7024.399631270929 L 453.4626660636793,7024.6230338338955 L 453.49977854156623,7024.772211441088 L 453.6489561487591,7025.032726481942 L 455.77273588823357,7025.1447916112475 L 457.1513552873887,7024.883912722571 L 458.56708716443075,7024.548445030298 L 459.9082302378765,7024.138752382252 L 461.10055955195185,7023.766172212092 L 462.7771703176702,7022.983535546064 L 463.7832095466657,7022.53673042013 L 464.82636125354816,7022.052085120665 L 466.5029720192665,7021.0464097394915 L 467.54612372614895,7020.226660595576 L 468.06788150350144,7019.77949162182 L 468.25417158858124,7019.59320153674 L 468.55216295514447,7019.183508888694 L 468.8501543217077,7018.810928718533 L 469.111033210384,7018.4008722226645 L 469.3719120990602,7017.916590771021 L 469.4836133805435,7017.730300685942 L 469.55820218414,7017.544010600862 L 469.63279098773637,7017.357720515783 L 469.7444922692198,7017.1714304307025 L 469.8561935507032,7016.948027867736 L 469.96789483218663,7016.687148979059 L 470.07959611367005,7016.389157612496 L 470.1916612429758,7016.09080239811 L 470.34047500234624,7015.792811031547 L 470.489652609539,7015.457707187097 L 470.63846636890946,7015.085127016938 L 470.7505314982153,7014.7125468467775 L 470.8622327796986,7014.339966676618 L 470.97393406118204,7013.967386506459 L 471.08563534266557,7012.923870951754 L 471.08563534266557,7012.588767107303 L 471.04852286477853,7012.29077574074 L 470.97393406118204,7012.029896852064 L 470.8622327796986,7011.769017963387 L 470.71305517250585,7011.5456154004205 L 470.5642414131354,7011.359325315341 L 470.34047500234624,7011.210147708149 L 470.1170724393794,7011.098446426665 L 469.8561935507032,7010.986745145182 L 469.5207258584305,7010.949268819472 L 469.18562201398026,7010.949268819472 L 468.70134056233735,7011.023857623069 L 468.3287603921776,7011.1355589045515 L 467.956180222018,7011.321848989632 L 467.65782500763237,7011.508139074712 L 467.3973099667786,7011.731905485501 L 467.1364310781024,7011.9553080484675 L 466.91266466731315,7012.216186937144 L 466.6521496264593,7012.62587958519 L 466.3537944120736,7013.781096421379 L 466.3912707377831,7014.414191632392 L 466.6146733007499,7015.271417102017 L 466.9501409930225,7015.94198863874 L 467.73241381122875,7016.687148979059 L 471.7562068793883,7018.4008722226645 L 472.79972243409327,7018.661751111341 L 473.6565840558959,7018.922630000017 L 474.5505581555856,7019.183508888694 L 475.33319482161426,7019.556089058853 L 476.59974909146354,7020.263773073463 L 477.0098055873326,7020.52465196214 L 477.15861934670306,7020.785530850815 L 477.2706844760089,7020.971820935895 L 477.15861934670306,7021.269812302458 L 477.04691806521964,7021.4561023875385 L 476.4880478099801,7021.865795035585 L 475.705774991774,7022.275851531454 L 474.4763331998116,7022.760132983097 L 473.1723026042529,7023.24441443474 L 471.7562068793883,7023.728695886383 L 470.3779513280557,7024.138752382252 L 469.0364444067875,7024.660146311782 L 467.65782500763237,7025.070202807651 L 466.1303918491068,7025.405306652101 L 464.7517724499518,7025.703661866487 L 463.4852181801025,7025.9641769073405 L 462.4417026253975,7026.225055796017 L 461.8828323701581,7026.3742334032095 L 461.8828323701581,7026.3742334032095" stroke="#DC2626" stroke-width="2" opacity="0.9"/>
  </g>
  <g id="stroke-group-hhtnof1x19-210" data-anchor-line="266" data-timestamp="2026-04-21T20:24:05Z">
    <path d="M 782.6747227254249,7053.200005654703 L 782.6747227254249,7053.200005654703 L 782.6747227254249,7053.200005654703 L 782.6747227254249,7053.200005654703 L 782.6747227254249,7053.200005654703 L 782.6747227254249,7053.200005654703 L 785.3198963944293,7052.156853947821 L 788.4122390371899,7050.554468137877 L 791.6908717650302,7049.362502671624 L 793.5912489415377,7048.877857372158 L 795.7150286810122,7048.393575920515 L 798.0993234613403,7047.909294468872 L 800.5585708930873,7047.499601820826 L 802.8682768698192,7047.089545324957 L 804.8432428499232,7046.67985267691 L 806.5940785714155,7046.30727250675 L 808.3081656628433,7046.046393618074 L 809.9101876249651,7045.748402251511 L 811.5122095870871,7045.4875233628345 L 814.7166173591535,7045.003241911191 L 816.0948729104862,7044.779475500402 L 817.138388465191,7044.630661741032 L 817.9206612833973,7044.556072937436 L 818.2186526499604,7044.556072937436 L 818.3678302571533,7044.556072937436 L 818.4795315386367,7044.593185415322 L 818.5541203422331,7044.630661741032 L 818.5912328201201,7044.705250544628 L 818.5541203422331,7044.779475500402 L 818.4049427350403,7044.928653107595 L 817.7343711983175,7045.3758220813515 L 816.5420418842422,7045.971804814478 L 815.0146087257166,7046.418973788233 L 813.4125867635947,7046.903255239877 L 811.8847897572467,7047.4250130172295 L 810.3198802730119,7047.946406946759 L 808.8295595923734,7048.579866005595 L 807.4138277153312,7049.213325064431 L 805.9235070346926,7049.8838966011535 L 804.1723074653779,7050.405654378506 L 802.2351816588057,7051.001637111633 L 800.1485143972183,7051.523394888985 L 795.6404398774156,7052.6411353994645 L 793.5912489415377,7053.125416851107 L 791.8400493722229,7053.535109499154 L 789.1948757032185,7054.243157361586 L 788.1513601485136,7054.504036250262 L 787.4061998081944,7054.727438813229 L 786.9219183565514,7054.839140094712 L 786.6985157935845,7054.802027616825 L 786.5493381863917,7054.764915138939 L 786.4376369049083,7054.727438813229 L 786.3630481013117,7054.690326335342 L 786.3259356234249,7054.615737531745 L 786.3630481013117,7054.504036250262 L 786.623926989988,7054.131456080103 L 787.3690873303074,7053.42340821767 L 788.7477067294625,7052.491957792271 L 790.238027410101,7051.448806085389 L 792.2126295423826,7050.591944463586 L 794.5226993669368,7049.8838966011535 L 797.0190592765707,7049.138736260835 L 799.5525316640919,7048.617342331305 L 801.899713966533,7048.132697031839 L 803.986017380298,7047.723004383793 L 805.7001044717257,7047.313311735746 L 807.1529488266549,7046.940731565586 L 808.494455747923,7046.86614276199 L 809.6867850619983,7046.82866643628 L 810.7670492467679,7046.791553958394 L 811.6984996721669,7046.754441480506 L 812.5553612939696,7046.82866643628 L 813.9714570188341,7047.01495652136 L 814.4557384704772,7047.089545324957 L 814.4557384704772,7047.089545324957" stroke="#DC2626" stroke-width="2" opacity="0.9"/>
  </g>
  <g id="stroke-group-hhtnof1x19-211" data-anchor-line="267" data-timestamp="2026-04-21T20:24:07Z">
    <path d="M 324.4007495812533,7079.578608932441 L 324.4007495812533,7079.578608932441 L 324.4007495812533,7079.578608932441 L 324.4007495812533,7079.578608932441 L 324.4007495812533,7079.578608932441 L 324.4007495812533,7079.578608932441 L 324.4007495812533,7079.578608932441 L 324.4007495812533,7079.578608932441 L 324.3636371033663,7079.317730043765 L 324.4007495812533,7079.317730043765 L 324.51281471055916,7079.615721410328 L 324.7362172735259,7080.323769272761 L 324.8479185550093,7081.292332176046 L 324.8479185550093,7083.341523111924 L 324.69910479563885,7084.3475623409195 L 324.587039666333,7085.763294217962 L 324.51281471055916,7087.365680027906 L 324.3636371033663,7089.0422907936245 L 324.2890482997699,7090.793126515117 L 324.2144594961735,7092.395512325062 L 324.14023454039943,7093.811244202104 L 324.06564573680305,7095.003573516179 L 324.0281694110936,7096.158426504545 L 324.0281694110936,7097.089876929944 L 324.06564573680305,7097.760448466666 L 324.14023454039943,7098.095916158939 L 324.2144594961735,7098.319318721906 L 324.32652462547924,7098.505608806986 L 324.4753383848497,7098.691898892066 L 324.6616284699295,7098.841076499259 L 324.8479185550093,7098.952777780742 L 325.1087974436855,7099.027366584339 L 325.4067888102487,7099.027366584339 L 326.114836672681,7098.878188977145 L 327.1951008574505,7098.505608806986 L 328.68542153808903,7097.72333598878 L 331.40554785851236,7095.860435137982 L 332.5232883689912,7094.891508386873 L 333.67814135735705,7093.960057961474 L 334.7212930642396,7093.103196339671 L 335.57815468604224,7092.395512325062 L 336.28620254847453,7091.7991657441125 L 336.807960325827,7091.389473096066 L 336.807960325827,7091.389473096066" stroke="#DC2626" stroke-width="2" opacity="0.9"/>
  </g>
  <g id="stroke-group-hhtnof1x19-212" data-anchor-line="267" data-timestamp="2026-04-21T20:24:07Z">
    <path d="M 340.38458442023057,7092.469737280835 L 340.38458442023057,7092.469737280835 L 340.38458442023057,7092.469737280835 L 340.38458442023057,7092.469737280835 L 340.38458442023057,7092.469737280835 L 340.8688658718735,7091.203183010986 L 341.1297447605498,7090.346321389184 L 341.3160348456296,7089.749974808235 L 341.427736127113,7089.340282160188 L 341.5394374085964,7088.930225664319 L 341.6515025379023,7088.520533016273 L 341.7632038193857,7088.110840368226 L 341.91201757875604,7087.29109122431 L 341.9866063823524,7086.955623532037 L 342.0240827080619,7086.620519687587 L 342.0240827080619,7085.987060628751 L 341.9494939044654,7085.577004132882 L 341.8003162972726,7085.353601569916 L 341.6886150157892,7085.353601569916 L 341.5769137343058,7085.428190373512 L 340.6079869831973,7087.2536148986 L 339.9003029685874,7089.749974808235 L 339.75112536139466,7090.830602840826 L 339.6765365577983,7092.097157110676 L 339.63942407991124,7093.326962750461 L 339.75112536139466,7094.183824372263 L 340.0491167279579,7094.59351702031 L 340.30999561663407,7094.854395908986 L 340.53376202742334,7095.040685994066 L 340.83175339398656,7095.264088557033 L 342.5083641597049,7095.822958812272 L 343.47692706299097,7095.636668727192 L 344.7063688549533,7095.264088557033 L 346.15957705770484,7094.742694627503 L 346.15957705770484,7094.742694627503" stroke="#DC2626" stroke-width="2" opacity="0.9"/>
  </g>
  <g id="stroke-group-hhtnof1x19-213" data-anchor-line="267" data-timestamp="2026-04-21T20:24:08Z">
    <path d="M 358.67812523593955,7084.459263622403 L 358.67812523593955,7084.459263622403 L 358.67812523593955,7084.459263622403 L 358.67812523593955,7084.459263622403 L 358.67812523593955,7084.459263622403 L 358.67812523593955,7084.459263622403 L 358.67812523593955,7084.459263622403 L 358.67812523593955,7084.459263622403 L 358.04503002492606,7084.385038666629 L 357.41157096609015,7084.385038666629 L 356.51723301857817,7084.533852426 L 354.170050716137,7085.651592936479 L 353.57406798301054,7086.359640798911 L 353.23860029073785,7087.067324813521 L 352.97772140206166,7087.961662761033 L 352.9406089241746,7089.340282160188 L 353.42489037581765,7090.308845063474 L 354.05834943465356,7090.793126515117 L 354.87809857856917,7090.979416600197 L 355.9958390890481,7090.532611474263 L 356.74099942936743,7089.824563611831 L 357.3369821624939,7089.079403271512 L 357.85873993984626,7088.147952846112 L 358.1567313064096,7087.365680027906 L 358.30554506577994,7086.881034728441 L 358.3801338693763,7086.396753276797 L 358.4547226729728,7085.8753593472675 L 358.5293114765691,7085.241900288432 L 358.5664239544561,7084.608441229596 L 358.5664239544561,7084.049570974356 L 358.6039002801656,7083.63987832631 L 358.6410127580525,7083.490700719117 L 358.67812523593955,7083.378999437634 L 359.01359292821223,7083.527813197004 L 359.3861730983717,7084.049570974356 L 359.75875326853145,7084.6455537074835 L 360.31762352377086,7085.8753593472675 L 361.0627838640901,7088.893113186432 L 361.24907394917,7090.495135148554 L 361.28618642705703,7092.022932154901 L 361.21196147128296,7093.550365313427 L 361.02567138620316,7095.15238727555 L 360.2430347201745,7098.393907525502 L 359.7216407906445,7099.921340684028 L 359.19988301329204,7101.225371279586 L 358.1938437842965,7103.200337259691 L 357.7095623326534,7103.721731189221 L 357.3369821624939,7103.982610077897 L 357.03899079593066,7104.09431135938 L 356.77811190725436,7104.13178768509 L 356.5547093442875,7104.13178768509 L 356.2938304556113,7104.13178768509 L 356.0700640448222,7104.09431135938 L 355.8095490039683,7104.019722555784 L 355.5486701152921,7103.908021274301 L 355.1760899451324,7103.684618711333 L 354.69180849348936,7103.312038541174 L 354.24463951973337,7102.864869567418 L 353.79747054597726,7102.268886834292 L 353.42489037581765,7101.560838971859 L 353.08942268354497,7100.480210939268 L 352.9406089241746,7099.213656669418 L 354.2071631940239,7095.674145052902 L 355.13861361942304,7094.705218301793 L 356.1075403705315,7093.66206659491 L 357.0761032738176,7092.768092495221 L 358.1567313064096,7092.060044632789 L 358.1567313064096,7092.060044632789" stroke="#DC2626" stroke-width="2" opacity="0.9"/>
  </g>
  <g id="stroke-group-hhtnof1x19-214" data-anchor-line="267" data-timestamp="2026-04-21T20:24:08Z">
    <path d="M 372.389366576072,7086.210463191718 L 372.389366576072,7086.210463191718 L 372.389366576072,7086.210463191718 L 372.389366576072,7086.210463191718 L 372.389366576072,7086.210463191718 L 371.0107471769169,7086.843922250554 L 369.70671658135814,7087.849961479549 L 368.55149974516985,7088.706823101352 L 367.5083480382873,7089.824563611831 L 366.72607522008116,7090.94230412231 L 366.0555036833582,7092.060044632789 L 365.45915710240934,7093.252373946864 L 365.2357545394425,7094.183824372263 L 365.4966334281188,7096.344716589624 L 365.83173727256894,7096.680184281897 L 366.0555036833582,7096.866474366977 L 366.35349504992143,7097.0152881263475 L 367.28494547532057,7097.16446573354 L 367.8063394048505,7097.16446573354 L 368.36520966008993,7097.089876929944 L 369.0361450446353,7096.903586844864 L 370.00470794792136,7096.456417871108 L 370.8990458954336,7095.7858463343855 L 371.6442062357528,7095.15238727555 L 372.2401889688791,7094.59351702031 L 372.64988161692577,7094.22093685015 L 373.0224617870855,7093.773767876394 L 373.35792947935806,7093.289486424751 L 373.61880836803437,7092.693503691625 L 373.80509845311417,7092.171745914272 L 373.991388538194,7091.68746446263 L 374.1030898196774,7091.277771814583 L 374.1776786232738,7090.905191644423 L 374.2147911011607,7090.346321389184 L 374.2147911011607,7089.638273526751 L 374.2147911011607,7089.340282160188 L 374.1776786232738,7089.0422907936245 L 374.14020229756443,7088.743935579239 L 374.06597734179036,7088.445944212675 L 373.7305096495178,7087.66367139447 L 373.61880836803437,7087.47738130939 L 373.54421956443787,7087.328203702197 L 373.4696307608415,7087.216502420713 L 373.43251828295456,7087.179389942827 L 373.3950419572451,7087.216502420713 L 373.32081700147114,7087.5144937872765 L 373.2833406757617,7087.924550283145 L 373.35792947935806,7088.706823101352 L 373.43251828295456,7088.967701990028 L 373.54421956443787,7089.228580878705 L 373.6559208459213,7089.4519834416715 L 373.80509845311417,7089.601161048864 L 374.1030898196774,7089.712862330348 L 374.5502587934335,7089.675386004638 L 375.3700079373491,7089.228580878705 L 376.33857084063516,7088.297130453306 L 377.1208436588414,7087.29109122431 L 377.9405928027571,7086.173350713831 L 378.68575314307634,7085.092722681239 L 379.31921220191225,7084.01245849647 L 379.84096997926474,7083.0064192674745 L 380.2877751051983,7082.037492516366 L 380.6978316010674,7081.0689296130795 L 380.95871048974357,7080.212067991277 L 381.1450005748235,7078.647158507042 L 381.1450005748235,7077.75282055953 L 381.070411771227,7076.6725563747605 L 380.9212341640342,7075.517339538572 L 380.7349440789544,7074.437075353802 L 380.623242797471,7073.654438687774 L 380.5115415159876,7073.133044758244 L 380.4740651902781,7072.909278347454 L 380.4369527123912,7072.760464588084 L 380.39984023450415,7072.648763306601 L 380.3623639087947,7072.5741745030045 L 380.2877751051983,7072.5741745030045 L 380.1760738237149,7072.983867151051 L 379.95267126074805,7074.47418783169 L 379.7289048499589,7076.2624998788915 L 379.542614764879,7078.125400729689 L 379.05833331323606,7082.149557645672 L 378.79745442455976,7084.310449863033 L 378.536939383706,7086.508454558281 L 378.2014716914334,7090.867715318714 L 378.31317297291673,7094.44470326094 L 378.49946305799654,7095.972136419465 L 378.68575314307634,7097.35075581862 L 378.68575314307634,7097.35075581862" stroke="#DC2626" stroke-width="2" opacity="0.9"/>
  </g>
  <g id="stroke-group-hhtnof1x19-215" data-anchor-line="267" data-timestamp="2026-04-21T20:24:09Z">
    <path d="M 406.59215342716186,7077.268539107887 L 406.59215342716186,7077.268539107887 L 406.59215342716186,7077.268539107887 L 406.59215342716186,7077.268539107887 L 406.59215342716186,7077.268539107887 L 408.1941753892838,7077.827409363126 L 409.57279478843896,7078.423755944075 L 410.6905352989178,7079.0197386772015 L 412.47884734611966,7080.360881750647 L 412.9631287977627,7080.882639527999 L 413.3357089679223,7081.4786222611265 L 413.671176660195,7081.963267560592 L 413.8945792231617,7082.372960208639 L 414.3046357190308,7083.118120548957 L 414.4909258041106,7083.378999437634 L 414.56515075988466,7083.63987832631 L 414.56515075988466,7083.63987832631" stroke="#DC2626" stroke-width="2" opacity="0.9"/>
  </g>
  <g id="stroke-group-hhtnof1x19-216" data-anchor-line="267" data-timestamp="2026-04-21T20:24:09Z">
    <path d="M 419.4832817755563,7074.28789774661 L 419.4832817755563,7074.28789774661 L 419.4832817755563,7074.28789774661 L 419.4832817755563,7074.28789774661 L 419.4832817755563,7074.28789774661 L 419.07358912750965,7076.001984838038 L 418.6635326316406,7077.75282055953 L 418.17925117999755,7079.653197736037 L 417.6578572504675,7081.4786222611265 L 417.136099473115,7083.192709352554 L 416.6143416957625,7084.794731314676 L 416.01835896263606,7086.620519687587 L 415.4223762295097,7088.445944212675 L 414.90061845215723,7090.308845063474 L 414.4909258041106,7092.060044632789 L 414.0437568303545,7093.773767876394 L 413.00060512347204,7097.276167015024 L 413.00060512347204,7097.276167015024" stroke="#DC2626" stroke-width="2" opacity="0.9"/>
  </g>
  <g id="stroke-group-hhtnof1x19-217" data-anchor-line="267" data-timestamp="2026-04-21T20:24:10Z">
    <path d="M 426.4877162049929,7088.259654127596 L 426.4877162049929,7088.259654127596 L 426.4877162049929,7088.259654127596 L 426.4877162049929,7088.259654127596 L 426.4877162049929,7088.259654127596 L 426.4877162049929,7088.259654127596 L 428.23891577430754,7086.2850519953145 L 430.1018166251058,7084.272973537323 L 431.59213730574436,7082.559250293718 L 432.448998927547,7081.329808501756 L 432.67276533833626,7080.919752005887 L 432.7844666198197,7080.659236965033 L 432.8961679013031,7080.398358076357 L 432.93364422701245,7080.174591665567 L 432.9707567048995,7079.9511891026 L 432.9707567048995,7079.727786539634 L 432.9707567048995,7079.541496454554 L 432.9707567048995,7079.392318847361 L 432.85905542341607,7079.206028762282 L 432.74735414193265,7079.243141240168 L 432.48647525325646,7079.541496454554 L 431.96471747590397,7080.435470554244 L 431.48043602426094,7081.4786222611265 L 431.03326705050483,7082.670951575202 L 430.7352756839416,7083.751579607793 L 430.5118731209749,7085.055610203352 L 430.32558303589497,7086.359640798911 L 430.32558303589497,7087.589082590874 L 430.4743967952654,7088.669710623465 L 430.6981632060547,7089.638273526751 L 431.03326705050483,7090.420546344957 L 431.48043602426094,7090.979416600197 L 432.0021938016133,7091.426585573953 L 432.5235877311434,7091.836642069822 L 433.1941592678663,7092.022932154901 L 434.0139084117819,7092.022932154901 L 434.94535883718106,7091.7991657441125 L 436.0630993476599,7091.426585573953 L 437.3300174653316,7090.75601403723 L 438.63404806089034,7089.8616760897185 L 439.9751911343361,7088.967701990028 L 441.46551181497466,7087.961662761033 L 442.8441312141298,7086.881034728441 L 443.9247592467216,7085.800770543671 L 444.93043462789467,7084.869320118272 L 445.675594968214,7084.086683452244 L 446.607045393613,7082.670951575202 L 446.607045393613,7082.335847730751 L 446.5699329157261,7082.074968842075 L 446.4953441121297,7081.739501149803 L 446.3836428306463,7081.366920979643 L 446.2344652234534,7081.0689296130795 L 445.97395018259965,7080.69634944292 L 445.7501837718104,7080.398358076357 L 445.4893048831342,7080.137479187681 L 445.22878984228043,7079.914076624714 L 444.96791095360413,7079.727786539634 L 444.70703206492794,7079.578608932441 L 444.4836295019611,7079.4294313252485 L 444.25986309117184,7079.355206369474 L 444.0364605282051,7079.317730043765 L 443.8501704431253,7079.355206369474 L 443.7009928359324,7079.4294313252485 L 443.5521790765621,7079.653197736037 L 443.4775902729656,7079.876600299004 L 443.5521790765621,7080.472946879953 L 443.8501704431253,7081.218107220272 L 444.520741979848,7082.112081319962 L 445.4893048831342,7083.0064192674745 L 446.53282043783906,7083.863280889277 L 447.5759721447215,7084.683030033192 L 448.69371265520044,7085.539891654995 L 450.70542726536905,7088.110840368226 L 451.04089495764174,7088.930225664319 L 451.22718504272143,7089.787451133944 L 451.26429752060847,7090.38343386707 L 451.22718504272143,7090.905191644423 L 451.1154837612381,7091.501174377549 L 450.89171735044886,7092.134633436385 L 450.51913718028925,7092.954382580301 L 449.8485656435663,7093.66206659491 L 449.06629282536016,7094.2584131758595 L 448.06025359636465,7094.742694627503 L 446.79333547869294,7095.040685994066 L 445.4893048831342,7095.189863601258 L 444.2227506132848,7095.226976079146 L 443.0304212992096,7095.15238727555 L 441.9497932666177,7095.0777984719525 L 440.9812303633315,7094.891508386873 L 440.2360700230123,7094.59351702031 L 439.7517885713693,7094.332638131634 L 439.45379720480605,7094.183824372263 L 439.19291831612986,7093.960057961474 L 439.1183295125335,7093.811244202104 L 439.043740708937,7093.624954117024 L 439.00662823104994,7093.401187706235 L 439.043740708937,7093.103196339671 L 439.043740708937,7093.103196339671" stroke="#DC2626" stroke-width="2" opacity="0.9"/>
  </g>
  <g id="stroke-group-hhtnof1x19-218" data-anchor-line="268" data-timestamp="2026-04-21T20:24:11Z">
    <path d="M 463.93202330603606,7093.773767876394 L 463.93202330603606,7093.773767876394 L 463.93202330603606,7093.773767876394 L 463.93202330603606,7093.773767876394 L 463.93202330603606,7093.773767876394 L 463.93202330603606,7093.773767876394 L 463.93202330603606,7093.773767876394 L 463.93202330603606,7093.773767876394 L 463.93202330603606,7093.773767876394 L 463.93202330603606,7093.773767876394 L 463.93202330603606,7093.773767876394 L 463.93202330603606,7093.773767876394 L 463.93202330603606,7093.773767876394 L 463.93202330603606,7093.773767876394 L 463.93202330603606,7093.773767876394 L 463.93202330603606,7093.773767876394 L 463.93202330603606,7093.773767876394 L 463.93202330603606,7093.773767876394 L 463.93202330603606,7093.773767876394 L 463.93202330603606,7093.773767876394 L 463.93202330603606,7093.773767876394 L 463.93202330603606,7093.773767876394 L 463.93202330603606,7093.773767876394 L 463.93202330603606,7093.773767876394 L 463.93202330603606,7093.773767876394 L 463.93202330603606,7093.773767876394 L 463.93202330603606,7093.773767876394 L 463.93202330603606,7093.773767876394 L 463.93202330603606,7093.773767876394 L 463.93202330603606,7093.773767876394 L 463.93202330603606,7093.773767876394 L 463.93202330603606,7093.773767876394 L 463.93202330603606,7093.773767876394 L 463.93202330603606,7093.773767876394 L 463.93202330603606,7093.773767876394 L 463.93202330603606,7093.773767876394 L 463.93202330603606,7093.773767876394 L 463.93202330603606,7093.773767876394 L 463.93202330603606,7093.773767876394 L 463.93202330603606,7093.773767876394 L 463.93202330603606,7093.773767876394 L 463.93202330603606,7093.773767876394 L 463.93202330603606,7093.773767876394 L 463.93202330603606,7093.773767876394 L 463.93202330603606,7093.773767876394 L 463.93202330603606,7093.773767876394 L 463.93202330603606,7093.773767876394 L 463.93202330603606,7093.773767876394 L 463.93202330603606,7093.773767876394 L 463.93202330603606,7093.773767876394 L 463.93202330603606,7093.773767876394 L 463.93202330603606,7093.773767876394 L 463.93202330603606,7093.773767876394 L 463.93202330603606,7093.773767876394 L 463.93202330603606,7093.773767876394 L 463.93202330603606,7093.773767876394 L 463.93202330603606,7093.773767876394 L 463.93202330603606,7093.773767876394 L 463.93202330603606,7093.773767876394 L 463.93202330603606,7093.773767876394 L 463.93202330603606,7093.773767876394 L 463.93202330603606,7093.773767876394 L 463.93202330603606,7093.773767876394 L 463.93202330603606,7093.773767876394 L 463.93202330603606,7093.773767876394 L 463.93202330603606,7093.773767876394 L 463.93202330603606,7093.773767876394 L 463.93202330603606,7093.773767876394 L 463.93202330603606,7093.773767876394 L 463.93202330603606,7093.773767876394 L 463.93202330603606,7093.773767876394 L 463.93202330603606,7093.773767876394 L 463.93202330603606,7093.773767876394 L 463.93202330603606,7093.773767876394 L 463.93202330603606,7093.773767876394 L 463.93202330603606,7093.773767876394 L 463.93202330603606,7093.773767876394 L 463.93202330603606,7093.773767876394 L 463.93202330603606,7093.773767876394 L 463.93202330603606,7093.773767876394 L 463.93202330603606,7093.773767876394 L 463.93202330603606,7093.773767876394 L 463.93202330603606,7093.773767876394 L 463.93202330603606,7093.773767876394 L 463.93202330603606,7093.773767876394 L 464.1557897168252,7095.115274797662 L 464.26749099830863,7096.531006674704 L 464.2303785204217,7097.984214877456 L 464.1557897168252,7099.250769147306 L 463.9694996317454,7100.666501024348 L 463.7086207430692,7101.896306664132 L 463.2989280950226,7103.088272130385 L 462.96346040275,7104.243488966573 L 462.74005783978316,7105.174939391973 L 462.74005783978316,7105.174939391973" stroke="#DC2626" stroke-width="2" opacity="0.9"/>
  </g>
  <g id="stroke-group-hhtnof1x19-219" data-anchor-line="267" data-timestamp="2026-04-21T20:24:12Z">
    <path d="M 492.2481162381682,7083.900393367164 L 492.2481162381682,7083.900393367164 L 492.2481162381682,7083.900393367164 L 492.2481162381682,7083.900393367164 L 492.2481162381682,7083.900393367164 L 492.2481162381682,7083.900393367164 L 492.2481162381682,7083.900393367164 L 492.2481162381682,7083.900393367164 L 492.2481162381682,7083.900393367164 L 492.2481162381682,7083.900393367164 L 492.397293845361,7085.614480458592 L 492.5464714525539,7087.030212335634 L 492.7698740155206,7088.520533016273 L 493.0307529041968,7089.899152415427 L 493.25415546716374,7091.054005403793 L 493.4033330743565,7092.134633436385 L 493.5896231594363,7092.768092495221 L 494.18560589256276,7093.8483566799905 L 494.33478349975564,7093.997534287183 L 494.52107358483545,7094.07212309078 L 494.7444761478022,7094.109235568667 L 495.15453264367125,7094.034646765071 L 496.0113942654739,7093.69954292062 L 498.24687528643176,7091.612875659032 L 500.07229981152045,7089.153992075108 L 501.2646291255958,7086.955623532037 L 502.0843782695115,7085.092722681239 L 502.7178373283473,7083.751579607793 L 502.9041274134272,7083.081008071071 L 502.9041274134272,7082.782652856685 L 502.9041274134272,7082.447549012235 L 502.86665108771774,7081.925791234882 L 502.8295386098307,7081.4786222611265 L 502.606136046864,7080.621760639324 L 502.49407091755813,7080.323769272761 L 502.3823696360747,7080.025777906197 L 502.23355587670426,7079.764899017521 L 502.1214907473985,7079.541496454554 L 502.0097894659151,7079.317730043765 L 501.8980881844317,7079.131439958685 L 501.60009681786835,7079.0197386772015 L 501.4509192106756,7079.355206369474 L 501.22751664770885,7079.9511891026 L 501.11581536622543,7080.808050724403 L 501.0037502369196,7081.4786222611265 L 501.0037502369196,7081.4786222611265" stroke="#DC2626" stroke-width="2" opacity="0.9"/>
  </g>
  <g id="stroke-group-hhtnof1x19-220" data-anchor-line="267" data-timestamp="2026-04-21T20:24:13Z">
    <path d="M 506.1827601412674,7087.99877523892 L 506.1827601412674,7087.99877523892 L 506.1827601412674,7087.99877523892 L 506.1827601412674,7087.99877523892 L 506.1827601412674,7087.99877523892 L 506.1827601412674,7087.99877523892 L 506.1827601412674,7087.99877523892 L 506.1827601412674,7087.551970112986 L 506.108171337671,7087.179389942827 L 506.071058859784,7086.843922250554 L 505.9218812525912,7086.173350713831 L 505.5493010824316,7085.502779177108 L 505.40048732306116,7085.316489092028 L 505.2513097158683,7085.241900288432 L 505.1021321086755,7085.204423962722 L 504.7295519385159,7085.4653028513985 L 504.1706816832765,7086.620519687587 L 503.98439159819657,7087.2536148986 L 503.87269031671326,7088.259654127596 L 504.1706816832765,7089.899152415427 L 504.65532698274194,7090.867715318714 L 505.1021321086755,7091.351996770357 L 505.2884221937553,7091.501174377549 L 505.4747122788352,7091.612875659032 L 505.95935757830057,7091.7991657441125 L 506.5182278335401,7091.9108670255955 L 506.85333167799035,7091.9108670255955 L 507.37508945534273,7091.836642069822 L 507.93395971058226,7091.68746446263 L 508.56741876941805,7091.389473096066 L 509.237990306141,7091.016892925906 L 510.02026312434714,7090.420546344957 L 511.58517260858207,7088.669710623465 L 512.255744145305,7087.849961479549 L 512.702913119061,7087.216502420713 L 513.0754932892206,7086.657632165474 L 513.2617833743004,7086.2850519953145 L 513.3734846557838,7086.024173106638 L 513.4480734593803,7085.800770543671 L 513.5226622629767,7085.539891654995 L 513.5597747408638,7085.279012766319 L 513.5597747408638,7085.018133877643 L 513.5597747408638,7084.757618836789 L 513.5226622629767,7084.459263622403 L 513.4480734593803,7084.19874858155 L 513.3363721778969,7083.900393367164 L 513.2246708964135,7083.63987832631 L 513.0754932892206,7083.378999437634 L 512.9263156820278,7083.155233026844 L 512.740025596948,7082.968942941765 L 512.5537355118681,7082.820129182394 L 512.3674454267884,7082.7084279009105 L 512.1811553417086,7082.633839097314 L 511.9948652566287,7082.596362771605 L 511.8085751715489,7082.633839097314 L 511.6222850864692,7082.7084279009105 L 511.4359950013893,7082.820129182394 L 511.10089115693904,7083.229821830441 L 510.9891898754556,7083.490700719117 L 510.8771247461498,7083.751579607793 L 510.80289979037593,7084.01245849647 L 510.76542346466647,7084.2358610594365 L 510.76542346466647,7084.459263622403 L 510.80289979037593,7084.6455537074835 L 510.8771247461498,7084.831843792563 L 511.02630235334266,7084.981021399755 L 511.2125924384226,7085.092722681239 L 511.4359950013893,7085.167311484835 L 511.8085751715489,7085.167311484835 L 512.2932204710145,7085.130199006949 L 513.0754932892206,7084.981021399755 L 514.4541126883759,7084.272973537323 L 516.0932471283847,7083.602402000601 L 516.5404161021409,7083.45358824123 L 516.8384074687041,7083.341523111924 L 517.0992863573803,7083.26729815615 L 517.3230527681694,7083.192709352554 L 517.8444466976995,7083.043531745361 L 518.3287281493425,7082.931830463878 L 518.5524945601318,7082.894717985991 L 518.7758971230986,7082.931830463878 L 519.1859536189677,7083.26729815615 L 519.4839449855309,7084.943908921869 L 519.4093561819344,7086.061649432348 L 519.2230660968546,7087.216502420713 L 519.0738884896618,7088.259654127596 L 518.8875984045819,7089.191104552995 L 518.6270833637282,7090.644312755747 L 518.5896070380187,7090.94230412231 L 518.5896070380187,7091.12859420739 L 518.6270833637282,7091.277771814583 L 518.7013083195021,7091.426585573953 L 518.813373448808,7091.538286855436 L 518.9621872081784,7091.650351984742 L 519.6327587449013,7091.724576940516 L 520.2291053258501,7091.612875659032 L 521.0859669476528,7091.314884292469 L 522.0545298509388,7090.793126515117 L 522.8742789948545,7090.271732585587 L 523.396036772207,7089.787451133944 L 523.88031822385,7089.340282160188 L 524.2157859161227,7089.004814467915 L 524.513777282686,7088.6322342977555 L 524.7746561713622,7088.259654127596 L 524.960946256442,7087.99877523892 L 525.2214612972957,7087.47738130939 L 525.4077513823756,7086.955623532037 L 525.6315177931648,7086.061649432348 L 525.7061065967612,7085.763294217962 L 525.7432190746482,7085.4653028513985 L 525.7803315525352,7085.204423962722 L 525.8178078782446,7084.943908921869 L 525.8178078782446,7084.72014251108 L 525.8178078782446,7084.496739948113 L 525.7803315525352,7084.310449863033 L 525.7061065967612,7084.16127225584 L 525.6315177931648,7084.01245849647 L 525.5198165116814,7083.900393367164 L 525.4077513823756,7083.8261684113895 L 525.2960501008921,7083.78869208568 L 525.2214612972957,7083.78869208568 L 525.1097600158124,7083.8261684113895 L 524.9980587343289,7083.900393367164 L 524.9234699307325,7084.01245849647 L 524.8488811271361,7084.16127225584 L 524.8117686492492,7084.385038666629 L 524.7746561713622,7084.6455537074835 L 524.7746561713622,7085.018133877643 L 524.8488811271361,7085.577004132882 L 524.960946256442,7086.173350713831 L 525.1097600158124,7086.73222096907 L 525.2960501008921,7087.216502420713 L 525.445227708085,7087.551970112986 L 525.8178078782446,7088.110840368226 L 526.0412104412114,7088.371355409079 L 526.3020893298876,7088.595121819869 L 526.6000806964508,7088.781411904949 L 526.8980720630141,7088.930225664319 L 527.1964272773997,7089.0422907936245 L 527.7178212069298,7089.079403271512 L 528.1278777027989,7089.0422907936245 L 528.8355617174086,7088.743935579239 L 529.5436095798409,7088.297130453306 L 530.027891031484,7087.81248515384 L 530.47506000524,7087.216502420713 L 530.7730513718033,7086.806809772667 L 531.0710427383665,7086.2850519953145 L 531.2948091491558,7085.763294217962 L 531.4065104306392,7085.4653028513985 L 531.4810992342354,7085.167311484835 L 531.5553241900095,7084.869320118272 L 531.6299129936059,7084.608441229596 L 531.7045017972024,7084.385038666629 L 531.7790906007988,7084.2358610594365 L 531.9279043601691,7084.086683452244 L 532.5988397447144,7084.981021399755 L 533.1948224778408,7086.247939517428 L 533.7165802551933,7087.551970112986 L 534.0891604253529,7088.893113186432 L 534.4617405955127,7090.420546344957 L 534.6851431584794,7092.171745914272 L 534.7222556363664,7094.109235568667 L 534.6851431584794,7096.046725223061 L 534.4242642698032,7099.623349317465 L 534.0891604253529,7101.225371279586 L 533.6045151258875,7102.827757089532 L 533.0831211963575,7104.46689152954 L 532.5988397447144,7106.106389817372 L 532.077081967362,7107.745524257381 L 531.5182117121226,7109.161619982245 L 530.9593414568831,7110.31647297061 L 530.3633587237566,7111.173334592413 L 529.8416009464042,7111.8439061291365 L 529.6181983834374,7112.067672539925 L 529.4690207762445,7112.104785017813 L 529.3573194947611,7112.104785017813 L 529.2456182132777,7112.067672539925 L 529.133553083972,7111.993083736329 L 529.0218518024885,7111.881382454846 L 528.7984492395217,7111.545914762573 L 528.5004578729585,7110.87534322585 L 528.1278777027989,7109.496723826695 L 528.0532888992025,7104.951172981183 L 528.3141677878787,7103.4608523005445 L 528.6867479580383,7101.933419142019 L 529.1710294096813,7100.517687264977 L 530.2887699201602,7097.797924792376 L 531.1827440198499,7096.531006674704 L 532.3379608560382,7095.264088557033 L 533.6045151258875,7093.997534287183 L 535.0206108507521,7092.805204973108 L 536.5109315313906,7091.612875659032 L 538.1129534935126,7090.6814252336335 L 538.1129534935126,7090.6814252336335" stroke="#DC2626" stroke-width="2" opacity="0.9"/>
  </g>
  <g id="stroke-group-hhtnof1x19-221" data-anchor-line="268" data-timestamp="2026-04-21T20:24:14Z">
    <path d="M 554.3201908954566,7093.8483566799905 L 554.3201908954566,7093.8483566799905 L 554.3201908954566,7093.8483566799905 L 554.3201908954566,7093.8483566799905 L 554.3201908954566,7093.8483566799905 L 556.4439706349309,7091.612875659032 L 557.4125335382171,7090.495135148554 L 558.2693951600197,7089.340282160188 L 559.0520318260484,7088.297130453306 L 559.7971921663676,7087.216502420713 L 561.02663395833,7085.390714047802 L 561.6226166914564,7084.01245849647 L 561.9206080580196,7083.304410634038 L 561.9951968616161,7083.081008071071 L 562.0326731873255,7082.857241660281 L 562.0697856652124,7082.633839097314 L 562.0697856652124,7082.372960208639 L 562.0697856652124,7082.112081319962 L 562.0326731873255,7081.851202431286 L 561.8463831022457,7081.366920979643 L 561.7343179729398,7081.143518416676 L 561.5855042135695,7080.9572283315965 L 561.4363266063766,7080.845527050113 L 561.2875128470063,7080.770938246516 L 560.9891576326206,7080.733461920807 L 560.8028675475407,7080.808050724403 L 560.616577462461,7080.919752005887 L 560.1697723365273,7081.441509783239 L 560.0577072072215,7081.627799868319 L 559.9460059257381,7081.851202431286 L 559.9088934478511,7082.074968842075 L 559.9460059257381,7082.484661490122 L 560.0205947293346,7082.670951575202 L 560.1697723365273,7082.820129182394 L 560.3560624216071,7082.931830463878 L 560.579464984574,7083.0064192674745 L 561.1012227619264,7083.043531745361 L 561.3992141284897,7083.0064192674745 L 561.6972054950529,7082.968942941765 L 561.9951968616161,7082.894717985991 L 562.2560757502923,7082.820129182394 L 562.7403572019354,7082.633839097314 L 562.9641236127246,7082.559250293718 L 563.1875261756913,7082.484661490122 L 563.3738162607713,7082.447549012235 L 563.5601063458511,7082.410072686525 L 563.8580977124142,7082.522137815831 L 564.0072753196071,7082.670951575202 L 564.2681542082832,7083.229821830441 L 564.4915567712501,7085.614480458592 L 564.2306778825739,7088.334242931192 L 564.044387797494,7089.377394638075 L 563.8955740381236,7090.420546344957 L 563.7463964309308,7091.389473096066 L 563.6346951494475,7092.395512325062 L 563.4855175422546,7093.960057961474 L 563.4855175422546,7093.960057961474" stroke="#DC2626" stroke-width="2" opacity="0.9"/>
  </g>
  <g id="stroke-group-hhtnof1x19-222" data-anchor-line="267" data-timestamp="2026-04-21T20:24:14Z">
    <path d="M 575.0729791429127,7082.000380038478 L 575.0729791429127,7082.000380038478 L 575.0729791429127,7082.000380038478 L 575.0729791429127,7082.000380038478 L 575.0729791429127,7082.000380038478 L 575.0729791429127,7082.000380038478 L 574.1415287175136,7082.261258927155 L 573.0609006849216,7082.782652856685 L 571.9802726523297,7083.416111915521 L 571.0862985526401,7084.124159777953 L 570.3036618866114,7085.018133877643 L 569.707679153485,7085.949584303042 L 569.260510179729,7087.030212335634 L 568.9996312910528,7087.849961479549 L 568.8879300095693,7088.297130453306 L 568.8879300095693,7088.669710623465 L 568.8879300095693,7088.967701990028 L 569.0371076167621,7089.302805834479 L 569.1488088982455,7089.526572245268 L 569.5213890684051,7089.936264893315 L 569.707679153485,7090.047966174798 L 569.9310817164518,7090.1600313041035 L 570.191960605128,7090.234256259878 L 570.7508308603674,7090.271732585587 L 571.1608873562365,7090.234256259878 L 571.7939825672499,7090.085442500507 L 572.2786278667154,7089.936264893315 L 572.725432992649,7089.712862330348 L 573.135489488518,7089.4519834416715 L 573.4705933329683,7089.228580878705 L 573.8431735031279,7088.930225664319 L 574.1415287175136,7088.6322342977555 L 574.4020437583673,7088.334242931192 L 574.6258101691566,7088.073364042516 L 574.8121002542364,7087.775372675953 L 574.9609140136068,7087.47738130939 L 575.0729791429127,7087.179389942827 L 575.1472040986866,7086.843922250554 L 575.1846804243961,7086.545930883991 L 575.1846804243961,7086.2850519953145 L 575.1846804243961,7086.061649432348 L 575.1472040986866,7085.837883021559 L 575.0729791429127,7085.689069262188 L 574.9983903393163,7085.577004132882 L 574.4766325619638,7085.800770543671 L 574.2903424768839,7085.987060628751 L 574.0669399139172,7086.322164473201 L 573.9177623067244,7086.657632165474 L 573.6943597437574,7087.29109122431 L 573.5080696586778,7088.110840368226 L 573.4334808550813,7089.377394638075 L 573.4705933329683,7089.749974808235 L 573.5451821365647,7090.047966174798 L 573.6197709401612,7090.346321389184 L 573.7314722216445,7090.606836430037 L 573.9923511103207,7090.905191644423 L 574.6258101691566,7091.351996770357 L 575.5572605945557,7091.650351984742 L 576.6004123014382,7091.762053266226 L 577.6064515304337,7091.538286855436 L 578.5379019558328,7091.203183010986 L 579.3947635776354,7090.75601403723 L 580.0653351143583,7090.308845063474 L 580.5125040881144,7089.936264893315 L 580.885084258274,7089.563684723154 L 581.1830756248372,7089.116515749399 L 581.369365709917,7088.818524382836 L 581.6302445985933,7088.334242931192 L 581.7794222057861,7087.961662761033 L 582.0774135723493,7087.067324813521 L 582.1520023759457,7086.769333446958 L 582.2262273317197,7086.434229602507 L 582.2637036574291,7086.098761910234 L 582.300816135316,7085.726181740075 L 582.300816135316,7085.353601569916 L 582.300816135316,7084.981021399755 L 582.2637036574291,7084.608441229596 L 582.2262273317197,7084.272973537323 L 582.1891148538327,7083.937869692873 L 582.1145260502362,7083.676990804197 L 582.0399372466399,7083.45358824123 L 581.816534683673,7083.118120548957 L 581.7048334021896,7083.0064192674745 L 581.5556557949968,7082.968942941765 L 581.369365709917,7082.968942941765 L 581.1830756248372,7083.0064192674745 L 580.8104954546776,7083.192709352554 L 580.6242053695978,7083.304410634038 L 580.4753916102273,7083.416111915521 L 580.3633264809215,7083.527813197004 L 580.2516251994381,7083.676990804197 L 580.2145127215512,7083.78869208568 L 580.2145127215512,7083.900393367164 L 580.4753916102273,7084.19874858155 L 580.6616816953072,7084.2358610594365 L 580.885084258274,7084.2358610594365 L 581.1459631469502,7084.2358610594365 L 581.4439545135134,7084.2358610594365 L 581.7794222057861,7084.19874858155 L 582.1520023759457,7084.16127225584 L 582.5245825461053,7084.16127225584 L 582.897162716265,7084.16127225584 L 583.3068553643117,7084.16127225584 L 583.7165480123582,7084.19874858155 L 584.2383057897106,7084.310449863033 L 584.6108859598703,7084.459263622403 L 585.2814574965932,7084.906432596159 L 585.8032152739456,7085.428190373512 L 586.3246092034757,7086.359640798911 L 586.6229644178612,7087.2536148986 L 586.7717781772317,7088.297130453306 L 586.809254502941,7089.191104552995 L 586.7717781772317,7089.712862330348 L 586.7346656993446,7090.085442500507 L 586.6971893736354,7090.420546344957 L 586.7346656993446,7091.836642069822 L 586.7346656993446,7091.836642069822" stroke="#DC2626" stroke-width="2" opacity="0.9"/>
  </g>
  <g id="stroke-group-hhtnof1x19-223" data-anchor-line="267" data-timestamp="2026-04-21T20:24:15Z">
    <path d="M 600.3338419101714,7083.97498217076 L 600.3338419101714,7083.97498217076 L 600.3338419101714,7083.97498217076 L 600.3338419101714,7083.97498217076 L 600.3338419101714,7083.97498217076 L 600.3338419101714,7083.97498217076 L 600.3338419101714,7083.97498217076 L 600.2963655844619,7083.378999437634 L 600.1100754993821,7083.0064192674745 L 599.5140927662557,7082.782652856685 L 597.8745944784242,7083.155233026844 L 596.3471613198988,7084.049570974356 L 595.266533287307,7085.204423962722 L 595.04313072434,7087.2536148986 L 595.3411220909032,7087.775372675953 L 595.8999923461427,7088.371355409079 L 596.7197414900584,7088.930225664319 L 598.8806337074197,7089.340282160188 L 599.9983742178987,7089.302805834479 L 601.1907035319739,7089.116515749399 L 603.6124746380116,7088.408831734789 L 606.0342457440493,7087.775372675953 L 607.3382763396079,7087.4027925057935 L 608.4931293279737,7087.067324813521 L 609.4245797533729,7086.657632165474 L 610.0580388122088,7086.396753276797 L 610.3189177008851,7086.247939517428 L 610.4306189823685,7086.173350713831 L 610.5052077859649,7086.098761910234 L 610.5797965895612,7086.061649432348 L 610.5797965895612,7086.061649432348" stroke="#DC2626" stroke-width="2" opacity="0.9"/>
  </g>
  <g id="stroke-group-hhtnof1x19-224" data-anchor-line="267" data-timestamp="2026-04-21T20:24:16Z">
    <path d="M 636.8838110637024,7081.106042090966 L 636.8838110637024,7081.106042090966 L 636.8838110637024,7081.106042090966 L 636.8838110637024,7081.106042090966 L 637.6289714040217,7085.689069262188 L 637.9644390962943,7088.2225416497095 L 638.2624304628575,7090.94230412231 L 638.4861968736467,7094.891508386873 L 638.5604218294208,7097.648747185183 L 638.4861968736467,7099.586236839577 L 638.4861968736467,7099.586236839577" stroke="#DC2626" stroke-width="2" opacity="0.9"/>
  </g>
  <g id="stroke-group-hhtnof1x19-225" data-anchor-line="267" data-timestamp="2026-04-21T20:24:16Z">
    <path d="M 638.8587770438064,7089.4519834416715 L 638.8587770438064,7089.4519834416715 L 638.8587770438064,7089.4519834416715 L 638.8587770438064,7089.4519834416715 L 638.8587770438064,7089.4519834416715 L 638.8587770438064,7089.4519834416715 L 642.9571589155624,7088.185065324 L 644.5962933555713,7088.147952846112 L 645.9749127547265,7088.445944212675 L 646.9434756580124,7088.930225664319 L 647.6515235204447,7089.4519834416715 L 647.8378136055246,7090.308845063474 L 647.8007011276376,7091.575763181146 L 647.6886359983317,7092.6189148880285 L 647.428120957478,7093.401187706235 L 646.9434756580124,7094.22093685015 L 646.3103804469991,7095.040685994066 L 645.453154977374,7095.8975476158685 L 644.484592074088,7096.754409237671 L 643.5531416486889,7097.462457100103 L 642.6216912232898,7098.05843983323 L 641.8394184050834,7098.5430851326955 L 641.354773105618,7098.915665302855 L 640.7959028503785,7099.250769147306 L 640.7959028503785,7099.250769147306" stroke="#DC2626" stroke-width="2" opacity="0.9"/>
  </g>
  <g id="stroke-group-hhtnof1x19-226" data-anchor-line="267" data-timestamp="2026-04-21T20:24:17Z">
    <path d="M 654.8051355570742,7084.01245849647 L 654.8051355570742,7084.01245849647 L 654.8051355570742,7084.01245849647 L 654.8051355570742,7084.01245849647 L 654.8051355570742,7084.01245849647 L 654.8051355570742,7084.01245849647 L 654.544256668398,7086.620519687587 L 654.4325553869147,7088.6322342977555 L 654.4696678648015,7090.122554978394 L 654.544256668398,7090.606836430037 L 654.6559579498814,7091.054005403793 L 654.7305467534778,7091.314884292469 L 654.8422480349612,7091.538286855436 L 654.9914256421541,7091.724576940516 L 655.1402394015245,7091.836642069822 L 655.3640058123137,7091.948343351305 L 655.6619971788768,7091.985455829193 L 656.0345773490366,7091.948343351305 L 656.4817463227926,7091.836642069822 L 656.9289152965487,7091.68746446263 L 657.3014954667083,7091.501174377549 L 658.195469566398,7090.793126515117 L 658.605526062267,7090.346321389184 L 658.9781062324265,7089.899152415427 L 659.2386212732804,7089.526572245268 L 659.6486777691496,7088.743935579239 L 660.0212579393091,7087.738260198066 L 660.1700716986795,7087.2536148986 L 660.2821368279854,7086.881034728441 L 660.3563617837594,7086.508454558281 L 660.4309505873557,7086.135874388122 L 660.5055393909521,7085.800770543671 L 660.5801281945486,7085.502779177108 L 660.654716998145,7085.018133877643 L 660.691829476032,7084.869320118272 L 660.7289419539189,7084.757618836789 L 660.7289419539189,7084.794731314676 L 660.691829476032,7085.8753593472675 L 660.654716998145,7087.067324813521 L 660.691829476032,7088.297130453306 L 660.8410070832248,7090.38343386707 L 661.3624010127548,7092.2092222399815 L 661.7724575086238,7092.544326084432 L 662.5176178489431,7092.768092495221 L 663.0390117784731,7092.768092495221 L 664.2313410925485,7092.469737280835 L 665.3119691251404,7091.948343351305 L 666.3922333099098,7091.12859420739 L 668.3297229643046,7089.4519834416715 L 669.0748833046237,7088.520533016273 L 669.5966410819763,7087.700783872357 L 669.9317449264264,7086.9930998577465 L 670.2672126186991,7086.247939517428 L 670.7143815924551,7085.130199006949 L 671.0123729590182,7083.863280889277 L 671.0869617626147,7083.229821830441 L 671.1611867183886,7082.410072686525 L 671.0869617626147,7081.627799868319 L 671.0494854369052,7080.584648161436 L 670.9006716775348,7079.466907650958 L 670.8631953518255,7078.386279618366 L 670.7886065482289,7077.268539107887 L 670.7514940703421,7076.337088682488 L 670.8260828739385,7075.293936975605 L 670.8260828739385,7074.846768001849 L 670.8631953518255,7074.809655523963 L 670.8631953518255,7074.846768001849 L 670.9748966333088,7075.070534412638 L 671.0869617626147,7075.591928342168 L 671.3474768034686,7076.933435263437 L 671.5712432142578,7078.497980899849 L 671.8321221029339,7080.025777906197 L 672.3164035545769,7083.043531745361 L 672.5772824432532,7084.757618836789 L 672.9123862877034,7086.694744643361 L 673.4712565429429,7090.19714378199 L 673.6575466280227,7091.724576940516 L 673.8067242352155,7093.028607536075 L 673.9555379945859,7094.109235568667 L 674.1418280796656,7094.96609719047 L 674.3655944904549,7095.524967445709 L 674.3655944904549,7095.524967445709" stroke="#DC2626" stroke-width="2" opacity="0.9"/>
  </g>
  <g id="stroke-group-hhtnof1x19-227" data-anchor-line="267" data-timestamp="2026-04-21T20:24:17Z">
    <path d="M 662.5176178489431,7082.968942941765 L 662.5176178489431,7082.968942941765 L 662.5176178489431,7082.968942941765 L 662.5176178489431,7082.968942941765 L 666.6902246764731,7082.335847730751 L 670.6023164631492,7081.702388671915 L 672.353516032464,7081.366920979643 L 673.6575466280227,7081.106042090966 L 674.7381746606146,7080.845527050113 L 675.5579238045302,7080.659236965033 L 676.5635991857034,7080.472946879953 L 676.7873655964927,7080.435470554244 L 676.9736556815724,7080.435470554244 L 677.1599457666522,7080.435470554244 L 677.3087595260226,7080.435470554244 L 677.4579371332155,7080.435470554244 L 677.5696384146989,7080.435470554244 L 677.7559284997786,7080.51005935784 L 677.7934048254881,7080.584648161436 L 677.7934048254881,7080.584648161436" stroke="#DC2626" stroke-width="2" opacity="0.9"/>
  </g>
  <g id="stroke-group-hhtnof1x19-228" data-anchor-line="267" data-timestamp="2026-04-21T20:24:17Z">
    <path d="M 702.7187999004742,7087.589082590874 L 702.7187999004742,7087.589082590874 L 700.5579076831127,7086.2850519953145 L 699.9244486242769,7085.912471825155 L 699.4030546947469,7085.577004132882 L 698.8812969173944,7085.316489092028 L 698.6578943544276,7085.204423962722 L 698.5087167472348,7085.167311484835 L 698.322426662155,7085.204423962722 L 698.136136577075,7086.396753276797 L 698.6204180287182,7090.010853696911 L 698.8067081137979,7091.762053266226 L 698.9929981988778,7093.587477791314 L 699.290989565441,7095.338677360629 L 699.7010460613101,7096.903586844864 L 700.4833188795163,7099.586236839577 L 700.5950201609998,7101.672540253343 L 700.7441977681926,7102.641467004451 L 700.7813102460794,7103.535441104141 L 700.8187865717889,7104.46689152954 L 700.8187865717889,7104.46689152954" stroke="#DC2626" stroke-width="2" opacity="0.9"/>
  </g>
  <g id="stroke-group-hhtnof1x19-229" data-anchor-line="267" data-timestamp="2026-04-21T20:24:18Z">
    <path d="M 699.6264572577136,7090.234256259878 L 699.5147559762302,7088.557645494159 L 699.4772796505209,7087.10480113923 L 699.5893447798267,7085.837883021559 L 699.8498598206805,7084.608441229596 L 699.9619249499863,7084.310449863033 L 700.0736262314698,7084.086683452244 L 700.40873007592,7083.602402000601 L 701.7127606714786,7082.633839097314 L 704.3208218625961,7081.814089953399 L 705.8111425432346,7081.963267560592 L 707.3014632238732,7082.447549012235 L 709.6115330484273,7083.714103282084 L 710.915563643986,7085.316489092028 L 711.3256201398551,7087.10480113923 L 710.5804597995359,7090.308845063474 L 709.984113218587,7091.351996770357 L 708.5683813415449,7093.401187706235 L 707.1897619423897,7094.59351702031 L 705.9974326283143,7095.338677360629 L 704.9917572471413,7095.7858463343855 L 704.767990836352,7095.860435137982 L 704.5817007512724,7095.8975476158685 L 704.5817007512724,7095.8975476158685" stroke="#DC2626" stroke-width="2" opacity="0.9"/>
  </g>
  <g id="stroke-group-hhtnof1x19-230" data-anchor-line="267" data-timestamp="2026-04-21T20:24:18Z">
    <path d="M 714.6042528676954,7083.192709352554 L 714.6042528676954,7083.192709352554 L 714.6042528676954,7083.192709352554 L 714.6042528676954,7083.192709352554 L 714.6042528676954,7083.192709352554 L 714.6042528676954,7083.192709352554 L 714.6042528676954,7083.192709352554 L 714.976833037855,7084.3475623409195 L 715.2377119265313,7085.651592936479 L 715.498226967385,7087.067324813521 L 715.7591058560613,7088.520533016273 L 715.9828722668506,7089.563684723154 L 716.1316860262209,7090.234256259878 L 716.3179761113007,7090.644312755747 L 716.3925649148972,7090.830602840826 L 716.54174252209,7090.979416600197 L 716.7280326071699,7091.12859420739 L 716.9885476480237,7091.240295488873 L 717.510305425376,7091.389473096066 L 718.5163446543716,7091.389473096066 L 721.124405845489,7090.532611474263 L 722.2792588338549,7089.899152415427 L 723.2481855849634,7089.228580878705 L 724.0675708810566,7088.483420538385 L 724.7010299398925,7087.849961479549 L 724.9990213064557,7087.365680027906 L 725.0364976321652,7087.10480113923 L 724.8873200249723,7086.694744643361 L 724.6264411362962,7086.396753276797 L 724.2538609661365,7085.987060628751 L 721.5340984935356,7084.310449863033 L 720.3417691794604,7084.01245849647 L 719.2615049946909,7083.751579607793 L 718.2925782435823,7083.676990804197 L 717.3611278181831,7083.714103282084 L 716.6905562814603,7083.78869208568 L 716.1316860262209,7083.8261684113895 L 715.6845170524649,7083.900393367164 L 715.3494132080148,7084.01245849647 L 715.0514218414514,7084.19874858155 L 714.7905429527751,7084.3475623409195 L 714.7905429527751,7084.3475623409195" stroke="#DC2626" stroke-width="2" opacity="0.9"/>
  </g>
  <g id="stroke-group-hhtnof1x19-231" data-anchor-line="267" data-timestamp="2026-04-21T20:24:18Z">
    <path d="M 731.5566506099588,7082.596362771605 L 731.5566506099588,7082.596362771605 L 731.5566506099588,7082.596362771605 L 731.5566506099588,7082.596362771605 L 731.5566506099588,7082.596362771605 L 731.5566506099588,7082.596362771605 L 730.1780312108036,7082.410072686525 L 729.1348795039212,7082.410072686525 L 728.6505980522782,7082.447549012235 L 728.1659527528126,7082.522137815831 L 727.6816713011696,7082.670951575202 L 726.9739872865597,7082.931830463878 L 726.3405282277239,7083.714103282084 L 726.4151170313203,7084.16127225584 L 726.9365109608503,7084.906432596159 L 727.4953812160898,7085.4653028513985 L 728.4643079671982,7086.061649432348 L 729.2836932632914,7086.583043361878 L 730.1034424072071,7087.067324813521 L 730.9603040290099,7087.47738130939 L 731.7800531729256,7087.81248515384 L 733.419551460757,7088.259654127596 L 734.351001886156,7088.781411904949 L 735.282452311555,7089.116515749399 L 736.1022014554707,7089.489095919558 L 736.5864829071137,7089.749974808235 L 736.921586751564,7089.973741219023 L 737.0707643587568,7090.122554978394 L 737.1824656402403,7090.271732585587 L 737.2199419659497,7090.420546344957 L 737.1824656402403,7090.606836430037 L 736.9590630772734,7091.016892925906 L 734.6118807748321,7092.581802410141 L 733.6429540237237,7092.991495058188 L 732.7115035983246,7093.326962750461 L 731.854641976522,7093.587477791314 L 730.4014337737705,7093.773767876394 L 729.8800398442404,7093.8483566799905 L 729.4699833483713,7093.8858330057 L 729.1348795039212,7093.811244202104 L 728.9485894188413,7093.736655398507 L 728.7994118116485,7093.624954117024 L 728.7994118116485,7093.624954117024" stroke="#DC2626" stroke-width="2" opacity="0.9"/>
  </g>
  <g id="stroke-group-hhtnof1x19-232" data-anchor-line="267" data-timestamp="2026-04-21T20:24:18Z">
    <path d="M 736.5118941035174,7084.757618836789 L 736.5118941035174,7084.757618836789 L 736.5118941035174,7084.757618836789 L 736.5118941035174,7084.757618836789 L 736.5118941035174,7084.757618836789 L 736.5118941035174,7084.757618836789 L 736.5118941035174,7084.757618836789 L 736.5118941035174,7084.757618836789 L 736.5118941035174,7084.757618836789 L 736.5118941035174,7084.757618836789 L 736.2884915405506,7084.906432596159 L 736.1393139333577,7085.130199006949 L 736.0276126518743,7085.390714047802 L 735.953023848278,7085.987060628751 L 736.1393139333577,7086.583043361878 L 736.7727729921936,7087.4027925057935 L 738.6356738429919,7088.557645494159 L 739.380834183311,7089.0422907936245 L 740.1631070015172,7089.4519834416715 L 741.5417264006724,7090.458022670667 L 742.3239992188787,7091.240295488873 L 742.4360643481846,7091.538286855436 L 742.4360643481846,7091.836642069822 L 742.0260078523154,7092.656027365915 L 741.2808475119963,7093.364075228347 L 740.2005833272267,7093.960057961474 L 737.1078768366439,7094.96609719047 L 737.1078768366439,7094.96609719047" stroke="#DC2626" stroke-width="2" opacity="0.9"/>
  </g>
  <g id="stroke-group-hhtnof1x19-233" data-anchor-line="267" data-timestamp="2026-04-21T20:24:19Z">
    <path d="M 747.8384768154992,7080.323769272761 L 747.8384768154992,7080.323769272761 L 747.8384768154992,7080.323769272761 L 747.8384768154992,7080.323769272761 L 747.8384768154992,7080.323769272761 L 748.2852819414328,7081.143518416676 L 748.6578621115924,7082.149557645672 L 748.9933298038651,7083.26729815615 L 749.179619888945,7084.422151144517 L 749.2913211704284,7085.651592936479 L 749.3287974961377,7086.73222096907 L 749.3287974961377,7087.961662761033 L 749.2913211704284,7088.818524382836 L 749.2542086925414,7089.4519834416715 L 748.9187410002687,7090.308845063474 L 748.9187410002687,7090.308845063474" stroke="#DC2626" stroke-width="2" opacity="0.9"/>
  </g>
  <g id="stroke-group-hhtnof1x19-234" data-anchor-line="267" data-timestamp="2026-04-21T20:24:19Z">
    <path d="M 743.1066358849074,7075.182235694122 L 743.1066358849074,7075.182235694122 L 743.1066358849074,7075.182235694122 L 743.1066358849074,7075.182235694122 L 743.1066358849074,7075.182235694122 L 743.1066358849074,7075.182235694122 L 743.1066358849074,7075.182235694122 L 742.0260078523154,7076.001984838038 L 741.5788388785594,7076.48626628968 L 741.4300251191889,7076.709668852647 L 741.3183238377055,7076.933435263437 L 741.2808475119963,7077.380240389371 L 741.3554363155926,7077.604006800159 L 741.6534276821559,7077.7902968852395 L 742.8828694741181,7077.9019981667225 L 744.3360776768696,7077.529417996563 L 744.5594802398364,7077.417716715079 L 744.7832466506256,7077.306015433596 L 744.9695367357056,7077.156837826404 L 745.2675281022687,7076.858846459841 L 745.3421169058653,7076.709668852647 L 745.3792293837521,7076.560855093277 L 745.3421169058653,7076.2624998788915 L 745.081238017189,7076.039097315925 L 744.8578354542221,7075.964508512328 L 744.5594802398364,7075.889919708732 L 743.5163285329539,7075.964508512328 L 742.2122979373953,7076.48626628968 L 742.2122979373953,7076.48626628968" stroke="#DC2626" stroke-width="2" opacity="0.9"/>
  </g>
  <g id="stroke-group-hhtnof1x19-235" data-anchor-line="267" data-timestamp="2026-04-21T20:24:19Z">
    <path d="M 747.5775979268229,7075.629404667878 L 747.5775979268229,7075.629404667878 L 747.5775979268229,7075.629404667878 L 747.5775979268229,7075.629404667878 L 748.7324509151888,7076.933435263437 L 749.8130789477808,7078.349167140479 L 750.7445293731798,7079.876600299004 L 751.4522133877897,7081.292332176046 L 752.0110836430291,7082.745540378798 L 752.6820190275744,7087.030212335634 L 752.5328414203817,7088.185065324 L 752.0485599687386,7090.308845063474 L 751.713092276466,7091.985455829193 L 751.6385034728695,7092.395512325062 L 751.6385034728695,7092.6189148880285 L 751.6385034728695,7092.730616169511 L 751.6385034728695,7092.805204973108 L 751.6385034728695,7092.879793776705 L 751.6385034728695,7092.916906254592 L 751.6385034728695,7092.805204973108 L 751.6385034728695,7092.656027365915 L 751.6385034728695,7092.469737280835 L 751.6385034728695,7092.246334717868 L 751.6385034728695,7091.985455829193 L 751.675979798579,7091.724576940516 L 751.7505686021753,7091.203183010986 L 751.8247935579494,7090.718901559343 L 751.9739711651421,7090.010853696911 L 752.4957289424947,7087.62619506876 L 752.6445427018651,7087.179389942827 L 752.9800103941377,7086.471342080395 L 753.1663004792175,7086.173350713831 L 753.5014043236677,7085.837883021559 L 753.8368720159402,7085.577004132882 L 754.3957422711798,7085.241900288432 L 756.0723530368981,7084.757618836789 L 757.3763836324569,7084.683030033192 L 758.6804142280155,7084.794731314676 L 760.8041939674899,7085.279012766319 L 762.6670948182881,7086.173350713831 L 763.3005538771241,7086.657632165474 L 763.6731340472836,7087.067324813521 L 763.8594241323635,7087.43990498368 L 763.8965366102503,7087.887073957437 L 763.8594241323635,7088.297130453306 L 763.4122551586074,7089.340282160188 L 761.2138866155367,7091.426585573953 L 758.5687129465321,7093.14067266538 L 754.656621159856,7094.295525653746 L 753.6505819308605,7094.44470326094 L 752.7937203090578,7094.59351702031 L 752.160261250222,7094.59351702031 L 751.1916983469359,7094.518928216713 L 751.1916983469359,7094.518928216713" stroke="#DC2626" stroke-width="2" opacity="0.9"/>
  </g>
  <g id="stroke-group-hhtnof1x19-236" data-anchor-line="267" data-timestamp="2026-04-21T20:24:20Z">
    <path d="M 762.2570383224191,7071.717312881202 L 762.2570383224191,7071.717312881202 L 762.2570383224191,7071.717312881202 L 762.2570383224191,7071.717312881202 L 762.2570383224191,7071.717312881202 L 763.1513762699312,7073.244746039727 L 764.0082378917339,7074.846768001849 L 765.4614460944854,7078.051175773916 L 766.1320176312082,7079.541496454554 L 766.6908878864476,7080.882639527999 L 767.5106370303633,7083.155233026844 L 768.0320309598934,7085.241900288432 L 768.516676259359,7087.849961479549 L 768.5909012151328,7088.6322342977555 L 768.6283775408423,7089.191104552995 L 768.6283775408423,7089.712862330348 L 768.5909012151328,7090.532611474263 L 768.5909012151328,7090.979416600197 L 768.5909012151328,7090.979416600197" stroke="#DC2626" stroke-width="2" opacity="0.9"/>
  </g>
  <g id="stroke-group-hhtnof1x19-237" data-anchor-line="267" data-timestamp="2026-04-21T20:24:20Z">
    <path d="M 774.4033701783167,7089.004814467915 L 774.4033701783167,7089.004814467915 L 774.4033701783167,7089.004814467915 L 774.4033701783167,7089.004814467915 L 774.4033701783167,7089.004814467915 L 775.5211106887955,7088.147952846112 L 776.7505524807577,7087.216502420713 L 778.6134533315559,7085.837883021559 L 779.6566050384383,7085.018133877643 L 780.3646529008707,7084.496739948113 L 780.662644267434,7084.272973537323 L 780.8860468304008,7084.049570974356 L 781.3332158041568,7083.416111915521 L 781.4078046077532,7083.155233026844 L 781.1469257190771,7082.522137815831 L 780.5509429859507,7082.037492516366 L 779.2840248682788,7081.553211064723 L 778.0174705984294,7081.366920979643 L 776.8622537622413,7081.404397305352 L 775.8936908589551,7081.627799868319 L 775.1856429965228,7081.888678756995 L 773.7699111194806,7082.7084279009105 L 772.4658805239219,7084.124159777953 L 771.497317620636,7086.210463191718 L 771.3481400134431,7088.595121819869 L 772.0933003537624,7090.346321389184 L 775.3348206037157,7092.246334717868 L 776.8622537622413,7092.730616169511 L 778.6880421351524,7093.14067266538 L 780.6997567453209,7093.401187706235 L 784.3513334911434,7093.550365313427 L 785.8416541717818,7093.475776509831 L 787.0336196380348,7093.326962750461 L 788.7848192073495,7093.103196339671 L 789.4928670697817,7092.879793776705 L 789.6791571548616,7092.768092495221 L 789.827970914232,7092.581802410141 L 789.9771485214247,7092.171745914272 L 789.9771485214247,7092.171745914272" stroke="#DC2626" stroke-width="2" opacity="0.9"/>
  </g>
  <g id="stroke-group-hhtnof1x19-238" data-anchor-line="268" data-timestamp="2026-04-21T20:24:21Z">
    <path d="M 800.7073846524578,7095.003573516179 L 800.7073846524578,7095.003573516179 L 800.7073846524578,7095.003573516179 L 800.7073846524578,7095.003573516179 L 800.7073846524578,7095.003573516179 L 800.7073846524578,7095.003573516179 L 800.7073846524578,7095.003573516179" stroke="#DC2626" stroke-width="2" opacity="0.9"/>
  </g>
</svg>
